<?xml version="1.0" encoding="utf-8"?>
<!-- Generator: Adobe Illustrator 24.0.2, SVG Export Plug-In . SVG Version: 6.00 Build 0)  -->
<svg version="1.1" id="Layer_1" xmlns="http://www.w3.org/2000/svg" xmlns:xlink="http://www.w3.org/1999/xlink" x="0px" y="0px"
	 viewBox="0 0 1940.8 1080" style="enable-background:new 0 0 1940.8 1080;" xml:space="preserve">
<style type="text/css">
	.st0{fill:#FFFFFF;}
	.st1{opacity:0.8;fill:#052A51;}
	.st2{opacity:0.45;fill:#1E90FF;}
	.st3{opacity:0.4;fill:#032950;}
	.st4{opacity:0.6;fill:#03B3E7;}
</style>
<rect class="st0" width="1940.8" height="1080"/>
<path class="st1" d="M1910.5,698l12.5-59.1c1.4-6.8-2.1-13.7-8.3-16.5c-42.1-19.2-87.6-28.2-131.8-27.8c-7.1,0-12.8,4.9-14.2,11.7
	l-12.5,59.4c-28.8,3.9-56.6,13.1-82.1,26.8l-45-40.4c-5.2-4.6-12.8-5.1-18.3-0.9c-36.6,25.8-67.6,59.8-90,100.1
	c-3.3,6.1-2,13.7,3.2,18.3l45,40.4c-11,26.8-17,55.5-17.9,84.8l-58.6,18.2c-6.6,2.1-10.6,8.6-10.3,15.5c4.5,45.6,19.1,89.3,41.8,128
	c3.4,6,10.8,8.8,17.1,6.6l57.5-18.7c10.1,13.1,21.4,25.1,33.9,35.8h308.3V719.8C1931.3,711.7,1921.2,704.4,1910.5,698z
	 M1883.3,920.2c-11.2,53.2-64,87.4-117,76.2c-53.2-11.2-87.4-63.8-76.2-117c11.2-53.2,63.8-87.4,117-76.2
	C1860.3,814.5,1894.5,867,1883.3,920.2z"/>
<path class="st2" d="M1505.9,434.6h27.5c2.2,0,4-1.8,4-4v-8c0-2.2-1.8-4-4-4h-27.5v-31.9h27.5c2.2,0,4-1.8,4-4v-8c0-2.2-1.8-4-4-4
	h-27.5v-31.9h27.5c2.2,0,4-1.8,4-4v-8c0-2.2-1.8-4-4-4h-27.5v-16c0-8.8,7.1-16,15.8-16h47.3c8.7,0,15.8,7.2,15.8,16v223.6
	c0,1.4-0.4,2.6-0.8,3.9l-78-79.1v-20.5h-0.1V434.6z M1348.4,466.7h15.8v27.9c0,2.2,1.8,4,4,4h7.9c2.2,0,4-1.8,4-4v-27.9h31.5v27.9
	c0,2.2,1.8,4,4,4h7.9c2.2,0,4-1.8,4-4v-27.9h31.5v27.9c0,2.2,1.8,4,4,4h7.9c2.2,0,4-1.8,4-4v-27.9h20.2l78,79.1
	c-1.2,0.3-2.5,0.8-3.8,0.8h-220.6c-8.7,0-15.8-7.2-15.8-16v-48C1332.6,473.7,1339.7,466.7,1348.4,466.7z"/>
<g>
	<path class="st3" d="M1332.3,759.9h-160.6c-6.3,0-11.5,6.2-11.5,14V802c0,7.7,5.1,14,11.5,14h160.6c6.3,0,11.5-6.2,11.5-14v-28
		C1343.8,766.3,1338.7,759.9,1332.3,759.9z M1292.1,798.5c-4.8,0-8.5-4.6-8.5-10.5s3.9-10.5,8.5-10.5c4.8,0,8.7,4.6,8.7,10.5
		S1296.9,798.5,1292.1,798.5z M1315.1,798.5c-4.8,0-8.7-4.6-8.7-10.5s3.9-10.5,8.7-10.5s8.5,4.6,8.5,10.5S1319.9,798.5,1315.1,798.5
		z"/>
	<path class="st4" d="M1323.8,788c0,5.9-3.9,10.5-8.5,10.5c-4.8,0-8.7-4.6-8.7-10.5s3.9-10.5,8.7-10.5
		C1319.9,777.5,1323.8,782.1,1323.8,788z"/>
	<path class="st4" d="M1300.8,788c0,5.9-3.9,10.5-8.7,10.5s-8.5-4.6-8.5-10.5s3.9-10.5,8.5-10.5
		C1296.9,777.5,1300.8,782.1,1300.8,788z"/>
</g>
<g>
	<path class="st3" d="M1332.3,830h-160.6c-6.3,0-11.5,6.2-11.5,14v28.1c0,7.7,5.1,14,11.5,14h160.6c6.3,0,11.5-6.2,11.5-14V844
		C1343.8,836.4,1338.7,830,1332.3,830z M1292.1,868.6c-4.8,0-8.5-4.8-8.5-10.5c0-5.9,3.9-10.5,8.5-10.5c4.8,0,8.7,4.8,8.7,10.5
		C1300.8,863.8,1296.9,868.6,1292.1,868.6z M1315.1,868.6c-4.8,0-8.7-4.8-8.7-10.5c0-5.9,3.9-10.5,8.7-10.5s8.5,4.8,8.5,10.5
		C1323.8,863.8,1319.9,868.6,1315.1,868.6z"/>
	<path class="st4" d="M1323.8,858.1c0,5.9-3.9,10.5-8.5,10.5c-4.8,0-8.7-4.8-8.7-10.5c0-5.9,3.9-10.5,8.7-10.5
		C1319.9,847.6,1323.8,852.2,1323.8,858.1z"/>
	<path class="st4" d="M1300.8,858.1c0,5.9-3.9,10.5-8.7,10.5s-8.5-4.8-8.5-10.5c0-5.9,3.9-10.5,8.5-10.5
		C1296.9,847.6,1300.8,852.2,1300.8,858.1z"/>
</g>
<g>
	<path class="st3" d="M1332.3,689.8h-160.6c-6.3,0-11.5,6.2-11.5,14V732c0,7.7,5.1,14,11.5,14h160.6c6.3,0,11.5-6.2,11.5-14v-28.1
		C1343.8,696.2,1338.7,689.8,1332.3,689.8z M1292.1,728.4c-4.8,0-8.5-4.6-8.5-10.5s3.9-10.5,8.5-10.5c4.8,0,8.7,4.8,8.7,10.5
		C1300.8,723.8,1296.9,728.4,1292.1,728.4z M1315.1,728.4c-4.8,0-8.7-4.6-8.7-10.5s3.9-10.5,8.7-10.5s8.5,4.8,8.5,10.5
		C1323.8,723.8,1319.9,728.4,1315.1,728.4z"/>
	<path class="st4" d="M1300.8,717.9c0,5.9-3.9,10.5-8.7,10.5s-8.5-4.6-8.5-10.5s3.9-10.5,8.5-10.5
		C1296.9,707.4,1300.8,712.1,1300.8,717.9z"/>
	<path class="st4" d="M1323.8,717.9c0,5.9-3.9,10.5-8.5,10.5c-4.8,0-8.7-4.6-8.7-10.5s3.9-10.5,8.7-10.5
		C1319.9,707.4,1323.8,712.1,1323.8,717.9z"/>
</g>
</svg>
