<svg id="Layer_1" data-name="Layer 1" xmlns="http://www.w3.org/2000/svg" viewBox="0 0 762.37 788.64"><defs><style>.cls-1{fill:#fecb51;}.cls-2{fill:#0a936f;}.cls-3{fill:#2754a4;}.cls-4{fill:#2754a3;}.cls-5{fill:#fdcb52;}.cls-6{fill:#e7e5da;}.cls-7{fill:#2956a4;}.cls-8{fill:#2b58a6;}.cls-9{fill:#0c9470;}.cls-10{fill:#2b57a2;}.cls-11{fill:#129674;}.cls-12{fill:#312d10;}.cls-13{fill:#39351a;}.cls-14{fill:#2855a2;}</style></defs><path class="cls-1" d="M1127.5,245c15,.85,27.86,7.23,39.58,16.05,15.58,11.73,25.54,27.33,30.5,46.14a24.88,24.88,0,0,1,.37,4.42,29.9,29.9,0,0,0-5.39-.39,104.19,104.19,0,0,0-47,16.91c-2.35,1.56-3.6,3-1.12,5.31,2,1.89,2.32,6.8,7.3,3.26,10.89-7.73,23.24-12.1,36.35-14.4,3.1-.54,7.34.08,9-1.73s.63-5.93.78-9c.72,6.19,5.5,8.48,10.14,11.44a78.19,78.19,0,0,1,33.17,86.63,9.93,9.93,0,0,0,1.72,9.48c26.76,37.43,16.43,88.56-22.62,112.86-.56.35-1.1.74-1.65,1.12a48.47,48.47,0,0,1-1.75-4.61c-.67-2.43-1.54-3.42-4.48-2.53-22.92,7-45.25,5.08-66.94-5-1-.44-2.85-.94-3.08-.59a26.86,26.86,0,0,0-3.91,7.4c-.18.65,2.54,2.49,4.17,3.25,20.4,9.53,41.73,11.49,63.74,7.57-2.91,16.87-8.91,32.36-20.66,45.13-16.62,18.06-37.19,27.41-61.86,27.41.11-1.49.34-3,.33-4.46-.1-11.23-.18-22.46-.45-33.68,0-2.32-.7-5.08-4.13-3.29-2.32,1.22-6.82-1.19-6.3,5a184.86,184.86,0,0,1,.26,31.65c-.47,5.22.49,7.16,5.21,7.8-17.39,15.34-37.44,19.3-58.93,11.54S1025.5,601.8,1022,579c-3.37-21.75,4.8-39.34,20.46-54,1.95.31,3.91.53,5.84.92,3.58.72,4.6-.58,5.07-4.29,2.83-22.38,13.28-40.5,31.53-53.88,5-3.68-.28-5.48-1.09-8-1-3.24-3.13-2.16-4.87-.53-6.05,5.66-12.05,11.37-18.07,17.07-24.38-13.93-36.83-35.07-36.54-63,.16-16,5.5-30.62,16.65-42.65,1.1,1.26,2.15,3.56,3.31,3.62,19.38.93,35.2,8.68,47.65,23.64,3.42,4.11,5-1.52,7.56-2.38.52-.17.9-3.27.22-4.11-14.25-17.51-32.72-26.71-55.34-27.28-1.14,0-2.31,1.39-3.47,2.14-9.29-17-10.94-35-7.64-53.79,2,2.14,3,2,4.26-1,6.74-16.35,18.39-27.94,34.9-34.32,6-2.34,1.43-5.61,1.13-8.34-.47-4.12-3.32-2-5.15-1.29-18.53,7.37-31.6,20.48-40,38.39-19.15-24.27-11.28-63.4,16-79.5,25.37-15,55.7-9,73.36,14.49.8,1.06,1.64,2.09,2.46,3.13-1,1.1-2.66,2-3,3.31-2,7-3.35,14.16-5.51,21.08-2.1,6.73-2.36,6.51,4.14,9.31,2.2.95,3.47.7,4-1.57C1122.37,265.74,1124.92,255.36,1127.5,245Zm49.85,161.88a52.22,52.22,0,0,0-50.53,39.84c-.43,1.81-2.36,4.88,1.44,4.84,2.84,0,7,4.39,8.71-2.18,5.49-20.91,22.77-33.13,44.62-32.07,1.06.05,2.78-.47,3.13-1.22,3.13-6.61,1.45-9.14-5.87-9.21Z" transform="translate(-606.98 -133.15)"/><path class="cls-1" d="M978.07,366c21.45,22.85,22.85,61.47,2.26,86.93-5.91,7.31-14.24,12.67-21.46,18.93-5.84-5.65-11.6-11.39-17.56-16.89-1.57-1.44-3.83-4.3-5.78-.26-1.3,2.69-6,4.67-.57,8.64,17,12.49,27,29.44,30.3,50.33,1.22,7.74,1.24,7.75,9,7.13a23.3,23.3,0,0,0,2.44-.47c1.19,1.36,2.31,2.8,3.59,4.08,17.72,17.66,22.67,43.49,12.56,65.75-10.3,22.69-33.06,36.53-57.84,34.65-13.09-1-24.83-5.78-34.5-15,4.88-.82,5.28-3.26,4.91-8.16-.78-10.5.07-21.13.21-31.71,0-1.08.09-3-.32-3.11a25.68,25.68,0,0,0-8.16-1.69c-.73,0-2,3.19-2,4.92-.1,12.24.07,24.49.15,36.73-39,.66-74.55-28.52-81.32-66.78-.35-2-.75-3.92-1.13-5.88,22.24,4,43.75,1.93,64.31-7.84,2-1,5.38-1.51,2.77-5.08-1.81-2.47-1.45-7.27-7.4-4.4-19.42,9.37-39.84,11.2-60.83,6.16-8.15-1.95-8.15-2-11.11,5.64-24.34-14.9-37.6-36.7-39.21-65.07-1-18,4.28-34.53,14.95-49.1a9.5,9.5,0,0,0,1.69-9.07c-9.11-34.42,4.52-69,34.56-87.69,4-2.46,7.75-4.69,8.53-9.75a11.87,11.87,0,0,1,.33,3.37c-.75,4,.15,5.69,4.82,6.1a84,84,0,0,1,41.19,14.86c5,3.48,5.25-1.16,7.24-3.09,2.72-2.63,1-4-1.36-5.61a102,102,0,0,0-44.36-16.44c-2.56-.32-5.26.53-7.9.85.25-1.69.49-3.37.73-5.06,1.88.07,4,.75,5.59.13,42.09-16.22,84-32.85,126.25-48.75,14.25-5.37,23.45-14,25.38-29.39,24.41,17.91,29.91,53.13,11.92,76.36-.89-1.58-1.79-3.15-2.65-4.74a71.62,71.62,0,0,0-37.39-33.51c-1.93-.78-4.62-2.77-5.27,1.29-.45,2.82-4.59,6.12,1.29,8.4,16.48,6.39,28.06,18,34.74,34.33,1.38,3.38,2.48,2.48,4.33.95,3.62,18.93,1.37,37-7.82,54.08-1.25-.82-2.53-2.39-3.75-2.36-22,.67-40.11,9.51-54.31,26.3-1.39,1.64-3.91,3.63-.19,5.34,2.53,1.16,4.14,6.32,8.29,1.25,11.81-14.42,27.35-21.87,46-22.5C977.5,370.05,978,368.59,978.07,366ZM840.81,402.36a5.19,5.19,0,0,0-2.4.18c-1.79.92-6-1.44-5.11,3.09.62,3.3-.88,7.85,6.07,7.53,21-1,36.79,11.19,42.83,32.16,1.62,5.63,5.27,2,8,2.09,3.45.15,2.73-2.18,2.2-4.45C887,419.51,865.47,402.36,840.81,402.36Z" transform="translate(-606.98 -133.15)"/><path class="cls-2" d="M798.88,242.87c-8.75.79-17.51,1.45-26.24,2.41-13.06,1.45-26.09,3.25-39.16,4.6-3.63.38-4,1.33-2.72,4.58,4.6,11.4,8.88,22.93,13.39,34.37,1,2.44,1.53,4-1.75,5.3s-3.88-.13-4.83-2.61c-4.73-12.42-9.53-24.81-14.51-37.13-1.1-2.73-.4-4,1.87-5.58q59.9-42.84,119.64-85.89c11.15-8,23.79-11.38,37.23-12.9,33.06-3.73,66.09-7.77,99.13-11.67,14.47-1.71,28.94-3.37,44.61-5.2-2.15,1.69-3.38,2.72-4.68,3.65Q994.12,156,967.35,175.27c-1.46,1.06-2.77,2.34-4.16,3.51a7.89,7.89,0,0,0-1.85.71q-23.7,17-47.35,34.07c-9.84,7.15-19.43,15.21-31.66,17.37-18.73,3.32-37.67,5.43-56.52,8.08C816.83,240.27,807.86,241.58,798.88,242.87Z" transform="translate(-606.98 -133.15)"/><path class="cls-3" d="M791.83,751.94q21.74,10.51,43.46,21c7.33,3.53,14.65,7.12,22.13,10.33,3.52,1.51,3.7,2.91,2,6.18-15,27.89-45.64,43.53-77.83,39.44C751.11,825,724.77,800.78,718,770.4c-7.67-34.4,8.41-69.45,39.07-85.11a26.26,26.26,0,0,1,2.76-1.07A31,31,0,0,0,761,688c5,10.81,10,21.63,15.22,32.37C781.35,730.92,786.63,741.41,791.83,751.94Z" transform="translate(-606.98 -133.15)"/><path class="cls-4" d="M798.88,242.87c9-1.29,18-2.6,26.93-3.86,18.85-2.65,37.79-4.76,56.52-8.08,12.23-2.16,21.82-10.22,31.66-17.37q23.61-17.13,47.35-34.07a7.89,7.89,0,0,1,1.85-.71c4.9,12.61,9.91,25.18,14.62,37.86,1,2.57.82,5.54,1.18,8.33-1.93,15.44-11.13,24-25.38,29.39-42.21,15.9-84.16,32.53-126.25,48.75-1.61.62-3.71-.06-5.59-.13q-10.56-27.5-21.12-55C800,246.31,799.47,244.58,798.88,242.87Z" transform="translate(-606.98 -133.15)"/><path class="cls-5" d="M1229.91,886.2c1.72-10.81,3.57-22.62,5.49-34.43q5.28-32.46,10.65-64.91c.3-1.8.56-3.62,1-5.39,1.25-5,5.41-7.86,10.45-7.05q51.4,8.34,102.79,16.75c7.14,1.17,10,5,8.8,12.28q-8.13,50.68-16.39,101.35c-1.23,7.52-5.14,10.26-12.71,9q-50.91-8.33-101.78-16.79C1232.27,896.06,1229.76,893,1229.91,886.2ZM1331.82,842c11.07-5.43,15.82-14.59,15.79-26.62,0-2.18.66-3.48,3.53-3.4,4.2.12,3.33-3.69,3.91-6.27.69-3.09-1.66-3.08-3.56-3.44-2.12-.4-4.35-1.21-6.37-.87a5.74,5.74,0,0,0-3.9,3.22,12.14,12.14,0,0,0,.46,5.84c5.62,0,3.74,3.68,3.33,6.52-.57,3.94-1.15,7.89-2,11.79a6.42,6.42,0,0,1-2,3.66c-3.19,2.37-6.62,4.4-10,6.55-7.31-20.25-23.73-30.89-44.73-29-21.61,2-38,22.23-36.27,44.92,1.6,21.36,21.89,39.21,42.84,37.71C1319.69,890.67,1336.79,868.42,1331.82,842ZM1278,790.24c-7.76-1.08-5.55,4.46-6.7,7.28-.95,2.31.11,4.05,3,4.49,11,1.66,22,3.31,32.87,5.31,3.53.65,4.44-1.39,4.42-3.67,0-2.8,3.42-7.13-2.1-8.18C1298.61,793.42,1287.63,791.81,1278,790.24Zm63,107.4c-1.77-1.37-2.83-2.84-3.85-2.82s-2.09,1.51-3.14,2.35c1,1.07,1.8,2.69,3,3C1337.89,900.44,1339.22,898.91,1341.08,897.64Z" transform="translate(-606.98 -133.15)"/><path class="cls-1" d="M880.14,749.67q-3.3,13.73-6.59,27.44c-.67,2.8-2,3.18-4.67,1.95q-31.46-14.52-63.07-28.74c-2.88-1.3-3.09-2.67-1.95-5.35q13.42-31.41,26.6-62.91c1.26-3,2.64-3.59,5.62-2.15,24.62,11.92,38.14,31.75,41.94,58.54.52,3.62.74,7.27,1.09,10.9Z" transform="translate(-606.98 -133.15)"/><path class="cls-1" d="M631.68,850.37l-1.82-5.87-9.6-20c-1.21-4.76,1-7.39,5.27-9.16,3.94-1.64,7.71-3.68,11.56-5.55l14.83-7.09c4-1.79,8.16-3.39,12.06-5.42s7.16-1.78,9.86,1.89l9.3,19.94c2.34,5.14,4.64,10.3,7,15.41,3.42,7.29,3,8.71-4.18,12.44a16,16,0,0,0-1.63,1.1l-7.16,3.26L658,860.45l-6.92,3.25c-3.83,1-7.56,4.59-11.58.45h0l-2.66-3.07v0l-1-2,0,0-1-2,0,0-1-2,0,0c-.34-.68-.67-1.35-1-2h0l-1.09-3Z" transform="translate(-606.98 -133.15)"/><path class="cls-6" d="M654.35,713c-18.81.91-33.88-14.19-35.2-32.82a31.82,31.82,0,0,1,10-25.67c3.41-3.33,4.4-6.06,2.45-10.84-4.93-12.14-9-24.64-13.58-36.92a70.64,70.64,0,0,0-4.88-9.62c-1.45-2.6-1.79-4.71,1.59-5.91,4.37-1.56,8.77-3.07,13.13-4.68,3-1.11,4.28.54,5.09,3.06,3.93,12.28,7.82,24.58,11.85,36.82,1.56,4.73,3.62,9.29,5.14,14,.86,2.7,2.29,3.66,5.06,3.56,18.81-.69,34,16.76,34,34.54C688.92,697,672.84,714.09,654.35,713Zm30-34.5c-1.85-5.23-3.27-10.67-5.69-15.63S675,658,671,661.76c-6.37,6-13.39,9.56-22.57,7.44a28.45,28.45,0,0,0-10.37-.19c-7.6,1.14-13.9,8.59-12.85,14.57A29.73,29.73,0,0,0,656.5,707.9C671.63,706.66,683.15,694.2,684.38,678.51Z" transform="translate(-606.98 -133.15)"/><path class="cls-7" d="M1183,756.11c-4.56,1.87-9.07,3.88-13.73,5.46a4,4,0,0,1-3.52-1.65c-6.72-16.77-13.27-33.61-19.8-50.47-1.58-4.09-.35-7.64,3.1-10.12s7-2,10.69.21c1.5.92,3.92,1.54,5.45,1,6.2-2.22,12.22-4.95,18.3-7.49l17.14-6.36c9.57-3.67,19.19-7.22,28.69-11.08,2.77-1.13,4.07-1,5,2.08,1.56,4.87,3.53,9.61,5.33,14.4-4.16,1.67-8.3,3.36-12.47,5-18.23,7.13-36.43,14.31-54.71,21.27-3.11,1.19-3.71,2.4-2.32,5.38,2.17,4.65,3.94,9.5,5.88,14.26Z" transform="translate(-606.98 -133.15)"/><path class="cls-2" d="M791.83,751.94c-5.2-10.53-10.48-21-15.57-31.6C771.08,709.6,766.08,698.78,761,688a31,31,0,0,1-1.21-3.75c19.25-9.72,38.93-9.74,59-2.78,2.49.86,2.28,2,1.4,4.08Q805.95,718.7,791.83,751.94Z" transform="translate(-606.98 -133.15)"/><path class="cls-8" d="M1145.87,176c-.54-8.2-1-16.81-1.76-25.4-.3-3.41.53-4.54,4.14-4.71q20.71-1,41.38-2.66c3.44-.28,4.62.51,4.76,4,.42,11,1.43,21.94,1.73,32.92a13.45,13.45,0,0,1-11,13.55,14.05,14.05,0,0,1-15-7.51c-2.91-5.8-1.66-13.39,3.58-17.14a18.85,18.85,0,0,1,9.14-3.08c2.88-.23,3.14-1.1,3-3.53-.61-8.87-.53-8.91-9.47-8.46-6.15.31-12.3.8-18.45,1.06-2.78.11-3.7,1.16-3.46,4,.86,10.62,1.45,21.26,2.21,31.88s-5.64,19-15.5,20.63c-8.7,1.41-17.35-4.82-19.54-14.08-2.11-8.9,3-18.34,12-20.79C1137.21,175.75,1141.31,176.24,1145.87,176Zm-7,9.66a7.79,7.79,0,0,0-8,7.8,8,8,0,0,0,7.89,8.48,8.36,8.36,0,0,0,8.13-7.88A8.13,8.13,0,0,0,1138.86,185.67Zm49.72-6.14c-3-1.8-4.87-3.75-6.52-3.61-1.41.12-2.62,2.63-3.92,4.09,1.55,1.35,3,3.55,4.71,3.79C1184.17,184,1185.83,181.7,1188.58,179.53Z" transform="translate(-606.98 -133.15)"/><path class="cls-7" d="M1129.18,802.88c21.41,25.89,43,51.67,64,77.81,2.72,3.37,3.68,8.51,4.47,13,.7,4-4.15,7.25-7.9,5.26-4.47-2.36-9.24-5-12.47-8.69-11.89-13.69-23.18-27.89-34.72-41.88-1-1.27-2.3-2.35-3.46-3.52q-7.65-8.94-15.28-17.89l-8.22-11.72Z" transform="translate(-606.98 -133.15)"/><path class="cls-9" d="M1183,756.11q-3.45-9.06-6.92-18.13l70.62-27.55c2.22,5.35,4.54,10.65,6.55,16.07.26.72-.83,2.65-1.69,3Q1217.33,742.92,1183,756.11Z" transform="translate(-606.98 -133.15)"/><path class="cls-5" d="M1246.7,710.43,1176.08,738c-1.94-4.76-3.71-9.61-5.88-14.26-1.39-3-.79-4.19,2.32-5.38,18.28-7,36.48-14.14,54.71-21.27,4.17-1.63,8.31-3.32,12.47-5Q1243.2,701.26,1246.7,710.43Z" transform="translate(-606.98 -133.15)"/><path class="cls-8" d="M1217.11,214.61c-.61-9.06-1.06-17.38-1.78-25.67-.24-2.83.51-3.84,3.41-3.92,6-.16,12-.64,18-1,3.32-.21,6.25.37,6.4,4.41.14,3.69-2.46,4.57-5.64,4.84-4.06.34-9.57-.39-11.7,1.91-1.88,2,0,7.56.25,11.55.64,9.46,1.33,18.93,2,28.39.46,6.94-2.14,12.42-8.19,15.94a15.33,15.33,0,0,1-16.15-.07,15.82,15.82,0,0,1-7.33-18.49c2-6.66,9-12.09,15.94-11.18,4.86.64,5.75-.79,4.89-5A5.67,5.67,0,0,1,1217.11,214.61Zm1.46,22.58a6.77,6.77,0,1,0-6.62,6.75A6.83,6.83,0,0,0,1218.57,237.19Z" transform="translate(-606.98 -133.15)"/><path class="cls-7" d="M1311.08,649.89c-4.77-5-4.43-10.68-2.35-16.66a48.38,48.38,0,0,1,13-19.67c2.32,1.07,4.58,2.27,7,3.18,3.74,1.43,7.56,2.67,11.35,4-.26,8.86-1.7,17.42-6.39,25.17-3.13,5.15-7.26,8.53-13.66,8.18Z" transform="translate(-606.98 -133.15)"/><path class="cls-6" d="M614,786.76c-.31-3.27,1.21-4.93,4.3-6.09s5.93-3.23,8.88-4.9L632,774a91.22,91.22,0,0,0,8.94-4.06c3-1.73,5.75-2.11,8.75-.38Q652.33,775.8,655,782c.68,1,1.36,2,2,3,.69,1.64,1.39,3.29,2.09,4.93l-1.06,3.64-1,1.4-7.23,3.19L634.82,805a24.5,24.5,0,0,0-3.74,1c-6.14,2.66-7.15,2.25-10-4a19.81,19.81,0,0,0-2.17-3.06Q616.45,792.86,614,786.76Zm37.94-4.58c-3.42-2.34-5.28-4.58-7.38-4.82a4.28,4.28,0,0,0-4.86,5.3c.49,1.92,3.29,4.37,5.18,4.48S648.62,784.64,651.91,782.18Zm-27.44,14.69,2.34.12c1.4-1.83,3.6-3.49,4-5.53a4.13,4.13,0,0,0-4.8-5.21c-1.92.33-4.49,2.87-4.8,4.75S623.29,794.89,624.47,796.87Z" transform="translate(-606.98 -133.15)"/><path class="cls-10" d="M800.56,528.68c3-7.61,3-7.59,11.11-5.64,21,5,41.41,3.21,60.83-6.16,6-2.87,5.59,1.93,7.4,4.4,2.61,3.57-.73,4.1-2.77,5.08-20.56,9.77-42.07,11.83-64.31,7.84-3.45-1-6.94-1.85-10.31-3C801.67,530.87,801.2,529.54,800.56,528.68Z" transform="translate(-606.98 -133.15)"/><path class="cls-10" d="M1206.43,538.53c-22,3.92-43.34,2-63.74-7.57-1.63-.76-4.35-2.6-4.17-3.25a26.86,26.86,0,0,1,3.91-7.4c.23-.35,2.11.15,3.08.59,21.69,10.09,44,12,66.94,5,2.94-.89,3.81.1,4.48,2.53a48.47,48.47,0,0,0,1.75,4.61c-.82.92-1.48,2.3-2.51,2.67C1213,536.87,1209.69,537.62,1206.43,538.53Z" transform="translate(-606.98 -133.15)"/><path class="cls-10" d="M976.68,520.37a23.3,23.3,0,0,1-2.44.47c-7.74.62-7.76.61-9-7.13-3.28-20.89-13.33-37.84-30.3-50.33-5.4-4-.73-5.95.57-8.64,2-4,4.21-1.18,5.78.26,6,5.5,11.72,11.24,17.56,16.89C969.2,486.43,975.66,502.4,976.68,520.37Z" transform="translate(-606.98 -133.15)"/><path class="cls-10" d="M1060.83,476.27c6-5.7,12-11.41,18.07-17.07,1.74-1.63,3.83-2.71,4.87.53.81,2.52,6.11,4.32,1.09,8-18.25,13.38-28.7,31.5-31.53,53.88-.47,3.71-1.49,5-5.07,4.29-1.93-.39-3.89-.61-5.84-.92C1043.63,506.88,1050,490.72,1060.83,476.27Z" transform="translate(-606.98 -133.15)"/><path class="cls-9" d="M862.19,876.72a57.71,57.71,0,0,0-16.49,34.49L822,894.92a60.32,60.32,0,0,0,27-28Z" transform="translate(-606.98 -133.15)"/><path class="cls-10" d="M1040.87,366.23c1.16-.75,2.33-2.17,3.47-2.14,22.62.57,41.09,9.77,55.34,27.28.68.84.3,3.94-.22,4.11-2.51.86-4.14,6.49-7.56,2.38-12.45-15-28.27-22.71-47.65-23.64-1.16-.06-2.21-2.36-3.31-3.62C1040.92,369.14,1040.89,367.69,1040.87,366.23Z" transform="translate(-606.98 -133.15)"/><path class="cls-10" d="M978.07,366c-.06,2.56-.57,4-3.93,4.13-18.61.63-34.15,8.08-46,22.5-4.15,5.07-5.76-.09-8.29-1.25-3.72-1.71-1.2-3.7.19-5.34,14.2-16.79,32.32-25.63,54.31-26.3,1.22,0,2.5,1.54,3.75,2.36C978.11,363.43,978.09,364.73,978.07,366Z" transform="translate(-606.98 -133.15)"/><path class="cls-10" d="M1028.32,305.85c8.45-17.91,21.52-31,40-38.39,1.83-.73,4.68-2.83,5.15,1.29.3,2.73,4.92,6-1.13,8.34-16.51,6.38-28.16,18-34.9,34.32-1.24,3-2.23,3.17-4.26,1C1031.59,310.24,1030,308.05,1028.32,305.85Z" transform="translate(-606.98 -133.15)"/><path class="cls-10" d="M986,308.05c-1.85,1.53-3,2.43-4.33-.95-6.68-16.3-18.26-27.94-34.74-34.33-5.88-2.28-1.74-5.58-1.29-8.4.65-4.06,3.34-2.07,5.27-1.29a71.62,71.62,0,0,1,37.39,33.51c.86,1.59,1.76,3.16,2.65,4.74Z" transform="translate(-606.98 -133.15)"/><path class="cls-10" d="M1197.92,311.52c-.15,3.11.85,7.3-.78,9s-5.92,1.19-9,1.73c-13.11,2.3-25.46,6.67-36.35,14.4-5,3.54-5.28-1.37-7.3-3.26-2.48-2.32-1.23-3.75,1.12-5.31a104.19,104.19,0,0,1,47-16.91,29.9,29.9,0,0,1,5.39.39Z" transform="translate(-606.98 -133.15)"/><path class="cls-11" d="M1309.07,676a29.4,29.4,0,0,1-1.24,4.69Q1296,707,1284,733.24c-.67,1.44-.48,4.29-3.85,3s-2.07-3-1.24-5.09Q1290.47,702.58,1302,674Z" transform="translate(-606.98 -133.15)"/><path class="cls-10" d="M1118.83,614.1c-4.72-.64-5.68-2.58-5.21-7.8a184.86,184.86,0,0,0-.26-31.65c-.52-6.2,4-3.79,6.3-5,3.43-1.79,4.08,1,4.13,3.29.27,11.22.35,22.45.45,33.68,0,1.48-.22,3-.33,4.46C1123.44,614.13,1121.62,614.91,1118.83,614.1Z" transform="translate(-606.98 -133.15)"/><path class="cls-10" d="M895.27,606.86c-.08-12.24-.25-24.49-.15-36.73,0-1.73,1.28-4.91,2-4.92a25.68,25.68,0,0,1,8.16,1.69c.41.13.34,2,.32,3.11-.14,10.58-1,21.21-.21,31.71.37,4.9,0,7.34-4.91,8.16C897.94,610.26,895.6,610.3,895.27,606.86Z" transform="translate(-606.98 -133.15)"/><path class="cls-12" d="M1161.5,774.55a9.61,9.61,0,0,1-1.64-2.16c-2.79-6.93-5.56-13.86-8.11-20.87-.31-.85.73-2.2,1.14-3.32,1.1.51,2.82.74,3.19,1.57,2.2,5,4.24,10.1,6,15.27,1,2.92,2.22,3.24,5,2.11,14.62-5.88,29.32-11.54,44-17.21,1.63-.63,3.53-2.59,4.86.66s-1.27,3.12-2.93,3.78q-24.09,9.42-48.2,18.8C1164,773.54,1163,773.92,1161.5,774.55Z" transform="translate(-606.98 -133.15)"/><path class="cls-12" d="M972.53,181.93c1.06-1.47,2-3.73,3.69-5q12.76-9.56,25.91-18.61a4.11,4.11,0,0,1,3.78.29c2.11,1.62.89,2.9-.88,4.14-7.88,5.54-15.6,11.32-23.57,16.73-2.84,1.93-3.56,3.62-2.15,6.88,3.09,7.15,5.72,14.5,8.63,21.73.78,2,1.09,3.71-1.58,3.85a4.13,4.13,0,0,1-3.31-1.79c-3.3-8-6.35-16-9.44-24.08C973.2,185,973,183.86,972.53,181.93Z" transform="translate(-606.98 -133.15)"/><path class="cls-12" d="M1123.87,827q7.64,8.94,15.28,17.89c-2.13,2.92-3.39,2.69-6.31,0-12.58-11.57-25.59-22.67-38.63-33.72-7.41-6.28-7.57-6.08-.09-12.2l4.26-3.44c.93,1.33,1.87,2.65,2.8,4a20.11,20.11,0,0,1-3,2.58c-3.67,2.09-2.86,3.61.12,5.81,6.23,4.6,12.16,9.62,18.3,14.34C1118.9,824,1121.44,825.38,1123.87,827Z" transform="translate(-606.98 -133.15)"/><path class="cls-9" d="M1200.63,686.68,1183.49,693c-8-6.51-8.24-12.36-.8-20.92l4.54-1.38C1197.94,670.89,1202.3,676.07,1200.63,686.68Z" transform="translate(-606.98 -133.15)"/><path class="cls-7" d="M1101.18,799.47c-.93-1.32-1.87-2.64-2.8-4,0-1.13,0-2.25,0-3.37,0-4.38,1.83-7.65,5.93-9.38a8.44,8.44,0,0,1,10.31,2.31c3.05,3.44,5.86,7.11,8.77,10.68l-14.43,11.36Z" transform="translate(-606.98 -133.15)"/><path class="cls-8" d="M822,894.92l23.73,16.29c1.73,1.51,3.8,2.77,5.09,4.59.94,1.34.84,3.4,1.21,5.14-1.78.24-4.14,1.35-5.25.6q-18-12.1-35.57-24.84c-1.08-.78-.87-3.34-1.26-5.08,1.75-.26,3.72-1.15,5.21-.64C817.57,891.81,819.71,893.56,822,894.92Z" transform="translate(-606.98 -133.15)"/><path class="cls-10" d="M1127.5,245c-2.58,10.37-5.13,20.75-7.74,31.11-.57,2.27-1.84,2.52-4,1.57-6.5-2.8-6.24-2.58-4.14-9.31,2.16-6.92,3.53-14.09,5.51-21.08.36-1.28,2-2.21,3-3.31Z" transform="translate(-606.98 -133.15)"/><path class="cls-13" d="M887.78,745c-.26,3.36-.41,7.2-1,11-.15,1-1.48,1.93-2.27,2.88-.32-1.1-1-2.24-.9-3.3,2.16-19.37-.85-37.68-12.77-53.45-5-6.66-12-11.87-17.94-17.82a16.83,16.83,0,0,1-2.14-3.47c1.37.29,3,.18,4.08.92C876.81,696.93,887,718.26,887.78,745Z" transform="translate(-606.98 -133.15)"/><path class="cls-13" d="M612,677.25c.73-11,4-19.5,11.23-26.11,2.52-2.3,2.91-4.27,1.69-7.31-2.51-6.31-4.77-12.73-6.94-19.16-.35-1,.25-2.42.41-3.64.87.74,2.16,1.31,2.52,2.25,2.74,7.11,5.29,14.3,7.89,21.46,1.26,3.49-.17,6-2.74,8.33-6.71,6.13-10,13.9-10.53,22.93-.1,1.65-1.11,3.24-1.7,4.85Z" transform="translate(-606.98 -133.15)"/><path class="cls-9" d="M852.81,859.14l4.65-10.34,19.41,13-8.88,8.3Z" transform="translate(-606.98 -133.15)"/><path class="cls-5" d="M1340.07,620.73c-3.79-1.32-7.61-2.56-11.35-4-2.38-.91-4.64-2.11-7-3.18l16.86-16.38,1.45.76Z" transform="translate(-606.98 -133.15)"/><path class="cls-8" d="M852.81,859.14,868,870.07c.84.76,2,1.37,2.44,2.32a35.91,35.91,0,0,1,1.48,5.5,36.8,36.8,0,0,1-5.72.33c-1.37-.13-2.67-1-4-1.5L849,866.9c-1.24-1.06-2.81-1.91-3.64-3.23s-1.16-3.34-1.7-5a30.93,30.93,0,0,1,5.58-.92C850.43,857.72,851.62,858.63,852.81,859.14Z" transform="translate(-606.98 -133.15)"/><path class="cls-7" d="M876.87,861.77l-19.41-13-2.28-6.74,5.72-1,21.37,15c.28,1.92.57,3.85.86,5.77Z" transform="translate(-606.98 -133.15)"/><path class="cls-5" d="M691.65,813.93l-4.8,1-7.53-15.64c3.43-3.72,7.5-5,12.09-2.56,4.79,2.54,5.91,6.86,5,11.91Z" transform="translate(-606.98 -133.15)"/><path class="cls-5" d="M613.29,847.68c-4.36-2.52-7.24-6-6-11.3,1.12-4.92,4.56-7.47,9.67-7.59q3.65,7.73,7.3,15.46l-3.56,3Z" transform="translate(-606.98 -133.15)"/><path class="cls-13" d="M706.92,749.29c1.39-18.68,7.08-34.37,17.75-48.14.69-.9,2.21-1.16,3.35-1.71-.17,1.21.07,2.73-.57,3.58a82.82,82.82,0,0,0-16.91,45c-.12,1.71-1.44,3.33-2.21,5C707.72,751.39,707.1,749.76,706.92,749.29Z" transform="translate(-606.98 -133.15)"/><path class="cls-6" d="M1309.07,676l-7.06-2,9.07-24.09,8.94,4.19c-2.91,6.76-5.79,13.55-8.8,20.27C1310.9,675.08,1309.8,675.46,1309.07,676Z" transform="translate(-606.98 -133.15)"/><path class="cls-12" d="M1349.15,615.23c-1.59,7.53-3.08,15.09-4.88,22.58-.22.94-2.06,1.5-3.16,2.24-.38-1.27-1.19-2.58-1.09-3.82.73-9.53,1.69-19.05,2.47-28.58.17-2.06-.86-4.37,2.72-4.52,3.9-.16,2.59,2.61,2.73,4.42.19,2.47,0,5,0,7.45Z" transform="translate(-606.98 -133.15)"/><path class="cls-13" d="M788.72,837.88c-16.34-1-30.16-5.24-42.65-13.44-1-.66-1.34-2.27-2-3.44,1.25.16,2.74-.06,3.72.55a80.17,80.17,0,0,0,39.86,12.66c1.32.06,2.59,1.21,3.88,1.86Z" transform="translate(-606.98 -133.15)"/><path class="cls-9" d="M882.27,856,860.9,841c3.66-3.56,8.08-3.59,12.69-2.7l7.09,4.69C882.76,847.16,884.22,851.38,882.27,856Z" transform="translate(-606.98 -133.15)"/><path class="cls-9" d="M1108.92,807.1l14.43-11.36,5.83,7.13-13.53,12.37Q1112.29,811.18,1108.92,807.1Z" transform="translate(-606.98 -133.15)"/><path class="cls-6" d="M662.21,898.09c-5.52-3.56-2.22-7,.09-10.52l7.08-3.58c5.07-.29,8.51,1.7,9.65,6.9Z" transform="translate(-606.98 -133.15)"/><path class="cls-6" d="M695.78,872c5.19-.78,7.9,2,9.27,6.57L688,886c-4.5-3.81-1-7.51.15-11.24Z" transform="translate(-606.98 -133.15)"/><path class="cls-6" d="M687.1,854c4.8,1.08,6.86,4.34,6.71,10.65L685.19,868a7.28,7.28,0,0,1-5.2-10.9Z" transform="translate(-606.98 -133.15)"/><path class="cls-5" d="M705.17,830.81c-3.36-1.8-5.35-4.42-5.06-8.41l5.34-5.17c7.37,1.32,8.68,3.34,7.23,11.15Z" transform="translate(-606.98 -133.15)"/><path class="cls-6" d="M659.12,880c-5.61-1.07-7.44-4.84-4.92-10.11L661,866c5.06,1.19,7.38,6.2,5.39,11.68Z" transform="translate(-606.98 -133.15)"/><path class="cls-5" d="M618.15,872.34c-6.6-2.28-7.7-5.64-3.94-12l7.61-.8c3,2.4,3.76,5.54,3,9.17Z" transform="translate(-606.98 -133.15)"/><path class="cls-8" d="M880.68,843l-7.09-4.69,4.35-8.13,4.92-.16a5.33,5.33,0,0,0,.55,1.77C887.49,837,886.8,839.9,880.68,843Z" transform="translate(-606.98 -133.15)"/><path class="cls-10" d="M679.32,799.32,686.85,815l-3.71,4.17-9.3-19.94Z" transform="translate(-606.98 -133.15)"/><path class="cls-11" d="M662.21,898.09l16.82-7.2c2.2,3.38,1.19,5.9-2.19,7.62a91.33,91.33,0,0,1-8.45,4C664.57,903.94,662.43,902.32,662.21,898.09Z" transform="translate(-606.98 -133.15)"/><path class="cls-11" d="M688,886l17-7.41c2.31,3.4,1.26,5.89-2.17,7.61a82.36,82.36,0,0,1-8.54,3.94C690.65,891.49,688.18,890.36,688,886Z" transform="translate(-606.98 -133.15)"/><path class="cls-10" d="M624.23,844.25q-3.65-7.74-7.3-15.46,1.67-2.13,3.32-4.27,4.82,10,9.61,20Z" transform="translate(-606.98 -133.15)"/><path class="cls-12" d="M1187.23,670.74l-4.54,1.38c-1.72-7.74.84-13.47,8-17.35,1-.56,2.64-.08,4-.08-.47,1.41-.5,3.52-1.47,4.11C1188.62,661.6,1186.11,665.19,1187.23,670.74Z" transform="translate(-606.98 -133.15)"/><path class="cls-8" d="M634.82,805l15.06-6.84,2,4.54-14.83,7.1Q636,807.41,634.82,805Z" transform="translate(-606.98 -133.15)"/><path class="cls-8" d="M621.82,859.56l-7.61.8q-.47-6.33-.92-12.68l7.38-.46Q621.24,853.39,621.82,859.56Z" transform="translate(-606.98 -133.15)"/><path class="cls-8" d="M655,782q-2.65-6.24-5.32-12.47c3.84-2.27,5.77-.67,7.56,3C659.22,776.65,660.25,779.93,655,782Z" transform="translate(-606.98 -133.15)"/><path class="cls-8" d="M705.45,817.23l-5.34,5.17-8.46-8.47,4.74-5.26Z" transform="translate(-606.98 -133.15)"/><path class="cls-8" d="M685.19,868l8.62-3.33,2.32,5.43-.54,1.48a.35.35,0,0,0,.19.49l-7.63,2.74Q686.68,871.38,685.19,868Z" transform="translate(-606.98 -133.15)"/><path class="cls-8" d="M614,786.76q2.49,6.11,5,12.19c-5.63,2-6.13,1.5-9.18-5.78C607.84,788.6,610.87,787.78,614,786.76Z" transform="translate(-606.98 -133.15)"/><path class="cls-6" d="M627.1,874c4.34.07,6.69,2.52,7.55,6.54.14.65-.39,1.43-.61,2.15-.62-.36-1.67-.6-1.8-1.1-1.08-4-3.2-6.61-7.45-4.39-4.7,2.46-3,6.3-1,9.89-4.64-.86-5.52-3.39-3.69-10.21Z" transform="translate(-606.98 -133.15)"/><path class="cls-8" d="M659.12,880l7.31-2.36q1.49,3.15,3,6.31l-7.08,3.58Z" transform="translate(-606.98 -133.15)"/><path class="cls-6" d="M714.28,833c5.9,1.26,7.53,3.17,7.11,8.83-3.27-2.34-4.3-9.34-10.21-5.32-4,2.73-2,6.32,0,10.57-6.38-2.89-4.86-7.22-4-11.34Z" transform="translate(-606.98 -133.15)"/><path class="cls-13" d="M639.5,864.16h0c.78,1.65,1.57,3.3,2.35,5l-.28.74c-1.82-1.52-4.2-2.71-5.35-4.64-2.42-4.08-4.15-8.55-6.24-12.83-1.05-2.15-.37-2.62,1.71-2l.11-.32c.36,1,.73,2,1.09,3h0c.33.68.66,1.35,1,2l0,0,1,2,0,0,1,2,0,0,1,2v0Z" transform="translate(-606.98 -133.15)"/><path class="cls-11" d="M623.9,767.72l-4.47-4.91,7.26-3.57q.63,2.91,1.28,5.82Z" transform="translate(-606.98 -133.15)"/><path class="cls-8" d="M687.1,854,680,857.07c-.93-1.9-1.85-3.81-2.78-5.73l7.16-3.26Z" transform="translate(-606.98 -133.15)"/><path class="cls-8" d="M661,866l-6.84,3.93-3.13-6.23,6.92-3.25Z" transform="translate(-606.98 -133.15)"/><path class="cls-8" d="M623.9,767.72l4.07-2.66q2,4.47,4,8.94l-4.83,1.77Z" transform="translate(-606.98 -133.15)"/><path class="cls-12" d="M882.86,830l-4.92.16-3.67-1.54c1.24-.64,2.43-1.68,3.72-1.8a20.29,20.29,0,0,1,5.78.58c.49.1.8,1.11,1.2,1.7Z" transform="translate(-606.98 -133.15)"/><path class="cls-8" d="M627.1,874l-7,2.88-1.92-4.55,6.68-3.61Z" transform="translate(-606.98 -133.15)"/><path class="cls-8" d="M714.28,833l-7.14,2.74q-1-2.47-2-4.95l7.51-2.44Q713.48,830.71,714.28,833Z" transform="translate(-606.98 -133.15)"/><path class="cls-13" d="M659.13,789.94c-.7-1.64-1.4-3.29-2.09-4.93.23-.55.46-1.1.7-1.65,1.12,2.43,2.85,4.79,3.17,7.33.21,1.67-1.58,3.6-2.48,5.42L657.11,795l1-1.4Z" transform="translate(-606.98 -133.15)"/><path class="cls-6" d="M695.59,871.55l.54-1.48Z" transform="translate(-606.98 -133.15)"/><path class="cls-10" d="M1177.35,406.87h1.5c7.32.07,9,2.6,5.87,9.21-.35.75-2.07,1.27-3.13,1.22-21.85-1.06-39.13,11.16-44.62,32.07-1.73,6.57-5.87,2.15-8.71,2.18-3.8,0-1.87-3-1.44-4.84A52.22,52.22,0,0,1,1177.35,406.87Z" transform="translate(-606.98 -133.15)"/><path class="cls-10" d="M840.81,402.36c24.66,0,46.18,17.15,51.58,40.6.53,2.27,1.25,4.6-2.2,4.45-2.72-.11-6.37,3.54-8-2.09-6-21-21.8-33.13-42.83-32.16-7,.32-5.45-4.23-6.07-7.53-.86-4.53,3.32-2.17,5.11-3.09A5.19,5.19,0,0,1,840.81,402.36Z" transform="translate(-606.98 -133.15)"/><path class="cls-10" d="M821,308c2.64-.32,5.34-1.17,7.9-.85a102,102,0,0,1,44.36,16.44c2.39,1.59,4.08,3,1.36,5.61-2,1.93-2.26,6.57-7.24,3.09a84,84,0,0,0-41.19-14.86c-4.67-.41-5.57-2.11-4.82-6.1a11.87,11.87,0,0,0-.33-3.37Z" transform="translate(-606.98 -133.15)"/><path class="cls-14" d="M1331.82,842c5,26.47-12.13,48.72-38.91,50.63-21,1.5-41.24-16.35-42.84-37.71-1.7-22.69,14.66-43,36.27-44.92,21-1.91,37.42,8.73,44.73,29a28.9,28.9,0,0,0-4.28,1.51c-1.67.86-3.69,1.73-4.54,3.19-.45.77,1.29,2.8,2,4.26a51,51,0,0,0,5.48-3C1330.69,844.22,1331.16,842.94,1331.82,842Zm-40.29-8.11a17.15,17.15,0,0,0-17.5,17.24,17.41,17.41,0,1,0,17.5-17.24Z" transform="translate(-606.98 -133.15)"/><path class="cls-6" d="M1278,790.24c9.6,1.57,20.58,3.18,31.49,5.23,5.52,1,2.08,5.38,2.1,8.18,0,2.28-.89,4.32-4.42,3.67-10.91-2-21.89-3.65-32.87-5.31-2.89-.44-3.95-2.18-3-4.49C1272.48,794.7,1270.27,789.16,1278,790.24Zm3.87,6c-2-5.93-4.57,1.35-6.82-.78l2.82,3.71c1.39,1.82,2.53,2,3.26-.49,8.15,1.28,16.3,2.6,24.46,3.79a11.45,11.45,0,0,0,3.35-.55c-1-.59-2-1.5-3.13-1.69C1297.87,798.84,1289.88,797.57,1281.9,796.26Z" transform="translate(-606.98 -133.15)"/><path class="cls-11" d="M1331.82,842c-.66,1-1.13,2.27-2,2.92a51,51,0,0,1-5.48,3c-.76-1.46-2.5-3.49-2-4.26.85-1.46,2.87-2.33,4.54-3.19a28.9,28.9,0,0,1,4.28-1.51c3.33-2.15,6.76-4.18,10-6.55a6.42,6.42,0,0,0,2-3.66c.82-3.9,1.4-7.85,2-11.79.41-2.84,2.29-6.51-3.33-6.52a12.14,12.14,0,0,1-.46-5.84,5.74,5.74,0,0,1,3.9-3.22c2-.34,4.25.47,6.37.87,1.9.36,4.25.35,3.56,3.44-.58,2.58.29,6.39-3.91,6.27-2.87-.08-3.53,1.22-3.53,3.4C1347.64,827.36,1342.89,836.52,1331.82,842Z" transform="translate(-606.98 -133.15)"/><path class="cls-10" d="M1341.08,897.64c-1.86,1.27-3.19,2.8-4,2.57-1.19-.35-2-2-3-3,1.05-.84,2.08-2.32,3.14-2.35S1339.31,896.27,1341.08,897.64Z" transform="translate(-606.98 -133.15)"/><path class="cls-7" d="M684.38,678.51c-1.23,15.69-12.75,28.15-27.88,29.39a29.73,29.73,0,0,1-31.27-24.32c-1.05-6,5.25-13.43,12.85-14.57a28.45,28.45,0,0,1,10.37.19c9.18,2.12,16.2-1.41,22.57-7.44,4-3.75,5.27-3.81,7.67,1.12S682.53,673.28,684.38,678.51Z" transform="translate(-606.98 -133.15)"/><path class="cls-11" d="M651.91,782.18c-3.29,2.46-5.26,5.07-7.06,5s-4.69-2.56-5.18-4.48a4.28,4.28,0,0,1,4.86-5.3C646.63,777.6,648.49,779.84,651.91,782.18Z" transform="translate(-606.98 -133.15)"/><path class="cls-11" d="M624.47,796.87c-1.18-2-3.51-4.14-3.23-5.87s2.88-4.42,4.8-4.75a4.13,4.13,0,0,1,4.8,5.21c-.43,2-2.63,3.7-4,5.53Z" transform="translate(-606.98 -133.15)"/><path class="cls-5" d="M1291.53,833.84a17.37,17.37,0,0,1,17.31,17.49,17.41,17.41,0,0,1-34.81-.25A17.15,17.15,0,0,1,1291.53,833.84Zm.09,29.23a12.44,12.44,0,0,0,12.17-12c.06-6.54-5.83-12.22-12.57-12.12-6.5.1-12.12,5.68-12.12,12A12.28,12.28,0,0,0,1291.62,863.07Z" transform="translate(-606.98 -133.15)"/><path class="cls-13" d="M1281.9,796.26c8,1.31,16,2.58,23.94,4,1.11.19,2.09,1.1,3.13,1.69a11.45,11.45,0,0,1-3.35.55c-8.16-1.19-16.31-2.51-24.46-3.79C1281.4,797.89,1281.65,797.07,1281.9,796.26Z" transform="translate(-606.98 -133.15)"/><path class="cls-11" d="M1281.9,796.26c-.25.81-.5,1.63-.74,2.44-.73,2.52-1.87,2.31-3.26.49l-2.82-3.71C1277.33,797.61,1279.88,790.33,1281.9,796.26Z" transform="translate(-606.98 -133.15)"/><path class="cls-6" d="M1291.62,863.07a12.28,12.28,0,0,1-12.52-12c0-6.37,5.62-11.95,12.12-12,6.74-.1,12.63,5.58,12.57,12.12A12.44,12.44,0,0,1,1291.62,863.07Zm4.15-11.92c-2-1.47-3.23-3.08-4.3-3s-2.17,1.83-3.24,2.84c1,1,2,2.77,3.13,2.91S1293.73,852.52,1295.77,851.15Z" transform="translate(-606.98 -133.15)"/><path class="cls-12" d="M1295.77,851.15c-2,1.37-3.33,2.91-4.41,2.77s-2.1-1.87-3.13-2.91c1.07-1,2.08-2.73,3.24-2.84S1293.78,849.68,1295.77,851.15Z" transform="translate(-606.98 -133.15)"/></svg>