<svg id="BACKGROUND_2" data-name="BACKGROUND 2" xmlns="http://www.w3.org/2000/svg" xmlns:xlink="http://www.w3.org/1999/xlink" viewBox="0 0 750 500"><defs><style>.cls-1,.cls-12,.cls-13,.cls-14,.cls-15,.cls-16,.cls-17,.cls-19,.cls-21,.cls-23,.cls-24,.cls-25,.cls-26,.cls-27,.cls-28,.cls-3,.cls-30,.cls-32,.cls-33,.cls-34,.cls-35,.cls-36,.cls-4,.cls-5,.cls-6,.cls-7,.cls-8,.cls-9{fill:none;}.cls-2{clip-path:url(#clip-path);}.cls-12,.cls-14,.cls-16,.cls-19,.cls-23,.cls-24,.cls-25,.cls-3,.cls-34,.cls-4,.cls-6,.cls-7,.cls-9{stroke:#101011;}.cls-12,.cls-13,.cls-15,.cls-17,.cls-24,.cls-25,.cls-26,.cls-3,.cls-33,.cls-34,.cls-35,.cls-4,.cls-5,.cls-6,.cls-7,.cls-8,.cls-9{stroke-linecap:round;stroke-linejoin:round;}.cls-4,.cls-5{stroke-width:1.2px;}.cls-13,.cls-15,.cls-17,.cls-26,.cls-27,.cls-28,.cls-33,.cls-35,.cls-36,.cls-5,.cls-8{stroke:#00ceb5;}.cls-6{stroke-width:1.38px;}.cls-7{stroke-width:1.35px;}.cls-9{stroke-width:1.18px;}.cls-10{fill:#101011;}.cls-11{fill:#00ceb5;}.cls-12,.cls-13{stroke-width:0.5px;}.cls-14,.cls-16,.cls-19,.cls-21,.cls-23,.cls-27,.cls-28,.cls-30,.cls-32,.cls-36{stroke-miterlimit:10;}.cls-15{stroke-width:0.48px;}.cls-16{stroke-width:1.35px;}.cls-17{stroke-width:0.64px;}.cls-18{clip-path:url(#clip-path-2);}.cls-19{stroke-width:1.66px;}.cls-20{clip-path:url(#clip-path-3);}.cls-21,.cls-30,.cls-32{stroke:#f9f7f7;}.cls-21{stroke-width:0.56px;}.cls-22{clip-path:url(#clip-path-4);}.cls-23{stroke-width:0.76px;}.cls-24,.cls-26{stroke-width:2px;}.cls-25{stroke-width:1.03px;}.cls-27{stroke-width:0.89px;}.cls-29{clip-path:url(#clip-path-5);}.cls-30{stroke-width:0.65px;}.cls-31{clip-path:url(#clip-path-6);}.cls-32{stroke-width:0.5px;}.cls-33,.cls-34{stroke-width:0.55px;}.cls-35{stroke-width:0.8px;}.cls-36{stroke-width:0.71px;}.cls-37{fill:#090909;}.cls-38{fill:#fddf46;}.cls-39{fill:#e9599f;}.cls-40{fill:#a5dbed;}.cls-41{fill:#a4dbed;}.cls-42{fill:#a4daec;}.cls-43{fill:#84d0e9;}.cls-44{fill:#0f1011;}.cls-45{fill:#435e7b;}.cls-46{fill:#dff2fc;}.cls-47{fill:#2e3e53;}.cls-48{fill:#c0e5f8;}.cls-49{fill:#a7c2ce;}.cls-50{fill:#80caea;}.cls-51{fill:#92a7b0;}</style><clipPath id="clip-path"><rect class="cls-1" width="750" height="500"/></clipPath><clipPath id="clip-path-2"><rect class="cls-1" x="127.16" y="136.36" width="100.32" height="100.32"/></clipPath><clipPath id="clip-path-3"><rect class="cls-1" x="626.13" y="263.94" width="33.79" height="33.79" transform="translate(386.92 -372.44) rotate(45)"/></clipPath><clipPath id="clip-path-4"><rect class="cls-1" x="307.6" y="370.22" width="45.86" height="45.86" transform="translate(374.81 -118.57) rotate(45)"/></clipPath><clipPath id="clip-path-5"><rect class="cls-1" x="334.97" y="-9.72" width="55.97" height="55.97"/></clipPath><clipPath id="clip-path-6"><rect class="cls-1" x="384.68" y="478.22" width="43.56" height="43.56"/></clipPath></defs><g class="cls-2"><polyline class="cls-3" points="71.65 93.99 87.67 102.81 103.7 93.99 119.73 102.81 135.75 93.99 151.78 102.81 167.81 93.99"/><polyline class="cls-3" points="71.65 101.67 87.67 110.49 103.7 101.67 119.73 110.49 135.75 101.67 151.78 110.49 167.81 101.67"/><polyline class="cls-3" points="71.65 109.35 87.67 118.17 103.7 109.35 119.73 118.17 135.75 109.35 151.78 118.17 167.81 109.35"/><polyline class="cls-3" points="71.65 117.03 87.67 125.85 103.7 117.03 119.73 125.85 135.75 117.03 151.78 125.85 167.81 117.03"/><polyline class="cls-4" points="237.16 301.91 253.38 314.37 269.61 301.91 285.83 314.37 302.06 301.91 318.29 314.37 334.51 301.91"/><polyline class="cls-4" points="237.16 312.76 253.38 325.22 269.61 312.76 285.83 325.22 302.06 312.76 318.29 325.22 334.51 312.76"/><polyline class="cls-5" points="237.16 323.61 253.38 336.07 269.61 323.61 285.83 336.07 302.06 323.61 318.29 336.07 334.51 323.61"/><polyline class="cls-5" points="237.16 334.46 253.38 346.92 269.61 334.46 285.83 346.92 302.06 334.46 318.29 346.92 334.51 334.46"/><path class="cls-6" d="M496.36,298.45a10.82,10.82,0,0,0,14.62,0h0a10.84,10.84,0,0,1,14.62,0h0a10.82,10.82,0,0,0,14.62,0h0a10.84,10.84,0,0,1,14.62,0h0a10.83,10.83,0,0,0,14.61,0"/><path class="cls-7" d="M279.32,131.06a10.58,10.58,0,0,0,10.09,10.09h0a10.55,10.55,0,0,1,10.08,10.08h0a10.57,10.57,0,0,0,10.09,10.09h0a10.57,10.57,0,0,1,10.09,10.08h0a10.55,10.55,0,0,0,10.08,10.08"/><path class="cls-8" d="M442-18.73a7.84,7.84,0,0,0,7.49,7.49h0A7.85,7.85,0,0,1,457-3.75h0a7.85,7.85,0,0,0,7.49,7.5h0A7.84,7.84,0,0,1,472,11.24h0a7.84,7.84,0,0,0,7.49,7.49"/><path class="cls-8" d="M640.51,481.27a7.84,7.84,0,0,0,7.49,7.49h0a7.84,7.84,0,0,1,7.49,7.49h0a7.85,7.85,0,0,0,7.49,7.5h0a7.84,7.84,0,0,1,7.5,7.49h0a7.84,7.84,0,0,0,7.49,7.49"/><path class="cls-8" d="M237.16,473.23a7.86,7.86,0,0,0,10.6,0h0a7.83,7.83,0,0,1,10.59,0h0a7.86,7.86,0,0,0,10.6,0h0a7.83,7.83,0,0,1,10.59,0h0a7.85,7.85,0,0,0,10.59,0"/><path class="cls-8" d="M-26.49,27A7.84,7.84,0,0,0-15.9,27h0A7.86,7.86,0,0,1-5.3,27h0A7.86,7.86,0,0,0,5.3,27h0a7.85,7.85,0,0,1,10.59,0h0a7.85,7.85,0,0,0,10.59,0"/><path class="cls-8" d="M694.72,61.8c5.21,4.34,11.53,4.34,16.74,0h0c5.21-4.34,11.53-4.34,16.74,0h0c5.21,4.34,11.53,4.34,16.74,0h0c5.21-4.34,11.53-4.34,16.74,0h0c5.21,4.34,11.52,4.34,16.73,0"/><polyline class="cls-3" points="722.17 322.51 713.35 338.54 722.17 354.56 713.35 370.59 722.17 386.62 713.35 402.65 722.17 418.68"/><polyline class="cls-3" points="714.49 322.51 705.67 338.54 714.49 354.56 705.67 370.59 714.49 386.62 705.67 402.65 714.49 418.68"/><polyline class="cls-3" points="706.81 322.51 697.99 338.54 706.81 354.56 697.99 370.59 706.81 386.62 697.99 402.65 706.81 418.68"/><polyline class="cls-3" points="699.13 322.51 690.31 338.54 699.13 354.56 690.31 370.59 699.13 386.62 690.31 402.65 699.13 418.68"/><path class="cls-9" d="M505,116.41a2.95,2.95,0,1,1-2.95-3A2.95,2.95,0,0,1,505,116.41Z"/><circle class="cls-9" cx="520.86" cy="116.41" r="2.95"/><circle class="cls-9" cx="539.71" cy="116.41" r="2.95"/><circle class="cls-9" cx="558.57" cy="116.41" r="2.95"/><circle class="cls-9" cx="577.43" cy="116.41" r="2.95"/><circle class="cls-9" cx="596.29" cy="116.41" r="2.95"/><circle class="cls-9" cx="615.14" cy="116.41" r="2.95"/><path class="cls-9" d="M637,116.41a3,3,0,1,1-3-3A2.95,2.95,0,0,1,637,116.41Z"/><path class="cls-9" d="M505,98.61a2.95,2.95,0,1,1-2.95-3A2.94,2.94,0,0,1,505,98.61Z"/><circle class="cls-9" cx="520.86" cy="98.61" r="2.95"/><circle class="cls-9" cx="539.71" cy="98.61" r="2.95"/><circle class="cls-9" cx="558.57" cy="98.61" r="2.95"/><circle class="cls-9" cx="577.43" cy="98.61" r="2.95"/><circle class="cls-9" cx="596.29" cy="98.61" r="2.95"/><circle class="cls-9" cx="615.14" cy="98.61" r="2.95"/><path class="cls-9" d="M637,98.61a3,3,0,1,1-3-3A2.94,2.94,0,0,1,637,98.61Z"/><path class="cls-9" d="M505,80.81a2.95,2.95,0,1,1-2.95-3A2.95,2.95,0,0,1,505,80.81Z"/><circle class="cls-9" cx="520.86" cy="80.81" r="2.95"/><circle class="cls-9" cx="539.71" cy="80.81" r="2.95"/><circle class="cls-9" cx="558.57" cy="80.81" r="2.95"/><circle class="cls-9" cx="577.43" cy="80.81" r="2.95"/><circle class="cls-9" cx="596.29" cy="80.81" r="2.95"/><circle class="cls-9" cx="615.14" cy="80.81" r="2.95"/><path class="cls-9" d="M637,80.81a3,3,0,1,1-3-3A2.95,2.95,0,0,1,637,80.81Z"/><path class="cls-9" d="M505,63A3,3,0,1,1,502,60.07,2.95,2.95,0,0,1,505,63Z"/><path class="cls-9" d="M523.8,63a2.95,2.95,0,1,1-2.94-2.94A2.95,2.95,0,0,1,523.8,63Z"/><path class="cls-9" d="M542.66,63a2.95,2.95,0,1,1-2.95-2.94A2.95,2.95,0,0,1,542.66,63Z"/><path class="cls-9" d="M561.52,63a2.95,2.95,0,1,1-2.95-2.94A2.95,2.95,0,0,1,561.52,63Z"/><path class="cls-9" d="M580.37,63a2.95,2.95,0,1,1-2.94-2.94A2.94,2.94,0,0,1,580.37,63Z"/><path class="cls-9" d="M599.23,63a2.95,2.95,0,1,1-2.94-2.94A2.95,2.95,0,0,1,599.23,63Z"/><path class="cls-9" d="M618.09,63a2.95,2.95,0,1,1-3-2.94A2.95,2.95,0,0,1,618.09,63Z"/><path class="cls-9" d="M637,63a3,3,0,1,1-3-2.94A2.95,2.95,0,0,1,637,63Z"/><path class="cls-9" d="M505,45.22A2.95,2.95,0,1,1,502,42.27,2.95,2.95,0,0,1,505,45.22Z"/><path class="cls-9" d="M523.8,45.22a2.95,2.95,0,1,1-2.94-2.95A2.94,2.94,0,0,1,523.8,45.22Z"/><path class="cls-9" d="M542.66,45.22a2.95,2.95,0,1,1-2.95-2.95A2.95,2.95,0,0,1,542.66,45.22Z"/><path class="cls-9" d="M561.52,45.22a2.95,2.95,0,1,1-2.95-2.95A2.95,2.95,0,0,1,561.52,45.22Z"/><path class="cls-9" d="M580.37,45.22a2.95,2.95,0,1,1-2.94-2.95A2.94,2.94,0,0,1,580.37,45.22Z"/><path class="cls-9" d="M599.23,45.22a2.95,2.95,0,1,1-2.94-2.95A2.94,2.94,0,0,1,599.23,45.22Z"/><path class="cls-9" d="M618.09,45.22a2.95,2.95,0,1,1-3-2.95A2.95,2.95,0,0,1,618.09,45.22Z"/><path class="cls-9" d="M637,45.22a3,3,0,1,1-3-2.95A2.95,2.95,0,0,1,637,45.22Z"/><path class="cls-9" d="M505,27.42a2.95,2.95,0,1,1-2.95-3A2.94,2.94,0,0,1,505,27.42Z"/><path class="cls-9" d="M523.8,27.42a2.95,2.95,0,1,1-2.94-3A2.94,2.94,0,0,1,523.8,27.42Z"/><path class="cls-9" d="M542.66,27.42a2.95,2.95,0,1,1-2.95-3A2.94,2.94,0,0,1,542.66,27.42Z"/><path class="cls-9" d="M561.52,27.42a2.95,2.95,0,1,1-2.95-3A2.94,2.94,0,0,1,561.52,27.42Z"/><path class="cls-9" d="M580.37,27.42a2.95,2.95,0,1,1-2.94-3A2.93,2.93,0,0,1,580.37,27.42Z"/><path class="cls-9" d="M599.23,27.42a2.95,2.95,0,1,1-2.94-3A2.94,2.94,0,0,1,599.23,27.42Z"/><path class="cls-9" d="M618.09,27.42a2.95,2.95,0,1,1-3-3A2.94,2.94,0,0,1,618.09,27.42Z"/><path class="cls-9" d="M637,27.42a3,3,0,1,1-3-3A2.94,2.94,0,0,1,637,27.42Z"/><path class="cls-9" d="M505,9.62A2.95,2.95,0,1,1,502,6.67,2.95,2.95,0,0,1,505,9.62Z"/><circle class="cls-9" cx="520.86" cy="9.62" r="2.95"/><circle class="cls-9" cx="539.71" cy="9.62" r="2.95"/><circle class="cls-9" cx="558.57" cy="9.62" r="2.95"/><circle class="cls-9" cx="577.43" cy="9.62" r="2.95"/><circle class="cls-9" cx="596.29" cy="9.62" r="2.95"/><circle class="cls-9" cx="615.14" cy="9.62" r="2.95"/><path class="cls-9" d="M637,9.62a3,3,0,1,1-3-2.95A2.95,2.95,0,0,1,637,9.62Z"/><path class="cls-10" d="M615,288.69a.92.92,0,0,1-1.3-1.31.92.92,0,0,1,1.3,0A.93.93,0,0,1,615,288.69Z"/><path class="cls-10" d="M619.17,292.85a.92.92,0,1,1,0-1.3A.92.92,0,0,1,619.17,292.85Z"/><path class="cls-10" d="M623.34,297a.92.92,0,0,1-1.3-1.31.92.92,0,0,1,1.3,0A.93.93,0,0,1,623.34,297Z"/><path class="cls-10" d="M627.5,301.18a.92.92,0,1,1,0-1.3A.92.92,0,0,1,627.5,301.18Z"/><path class="cls-10" d="M631.67,305.35a.92.92,0,1,1-1.3-1.31.92.92,0,0,1,1.3,0A.93.93,0,0,1,631.67,305.35Z"/><path class="cls-10" d="M635.83,309.51a.92.92,0,1,1,0-1.3A.92.92,0,0,1,635.83,309.51Z"/><path class="cls-10" d="M640,313.68a.92.92,0,0,1-1.3-1.31.92.92,0,0,1,1.3,0A.93.93,0,0,1,640,313.68Z"/><path class="cls-10" d="M644.16,317.84a.92.92,0,1,1,0-1.3A.92.92,0,0,1,644.16,317.84Z"/><path class="cls-10" d="M618.94,284.75a.92.92,0,1,1,0-1.3A.92.92,0,0,1,618.94,284.75Z"/><path class="cls-10" d="M623.11,288.92a.93.93,0,0,1-1.31,0,.92.92,0,0,1,0-1.3.92.92,0,0,1,1.31,1.3Z"/><path class="cls-10" d="M627.27,293.08a.92.92,0,1,1,0-1.3A.92.92,0,0,1,627.27,293.08Z"/><path class="cls-10" d="M631.44,297.25a.93.93,0,0,1-1.31,0,.92.92,0,0,1,0-1.3.92.92,0,1,1,1.31,1.3Z"/><path class="cls-10" d="M635.6,301.41a.92.92,0,1,1,0-1.3A.92.92,0,0,1,635.6,301.41Z"/><path class="cls-10" d="M639.77,305.58a.93.93,0,0,1-1.31,0,.92.92,0,0,1,0-1.3.92.92,0,1,1,1.31,1.3Z"/><path class="cls-10" d="M643.93,309.74a.92.92,0,1,1,0-1.3A.92.92,0,0,1,643.93,309.74Z"/><path class="cls-10" d="M648.1,313.91a.93.93,0,0,1-1.31,0,.92.92,0,0,1,0-1.3.92.92,0,0,1,1.31,1.3Z"/><path class="cls-10" d="M622.87,280.82a.92.92,0,1,1,0-1.3A.92.92,0,0,1,622.87,280.82Z"/><circle class="cls-10" cx="626.39" cy="284.34" r="0.92"/><circle class="cls-10" cx="630.55" cy="288.5" r="0.92"/><circle class="cls-10" cx="634.72" cy="292.67" r="0.92"/><circle class="cls-10" cx="638.88" cy="296.83" r="0.92"/><circle class="cls-10" cx="643.05" cy="301" r="0.92"/><circle class="cls-10" cx="647.21" cy="305.16" r="0.92"/><circle class="cls-10" cx="651.38" cy="309.33" r="0.92"/><path class="cls-10" d="M626.8,276.89a.92.92,0,1,1,0-1.3A.92.92,0,0,1,626.8,276.89Z"/><path class="cls-10" d="M631,281.06a.92.92,0,1,1,0-1.3A.92.92,0,0,1,631,281.06Z"/><path class="cls-10" d="M635.13,285.22a.92.92,0,1,1,0-1.3A.92.92,0,0,1,635.13,285.22Z"/><path class="cls-10" d="M639.3,289.39a.92.92,0,1,1,0-1.3A.92.92,0,0,1,639.3,289.39Z"/><path class="cls-10" d="M643.46,293.55a.92.92,0,1,1,0-1.3A.92.92,0,0,1,643.46,293.55Z"/><path class="cls-10" d="M647.63,297.72a.92.92,0,1,1,0-1.3A.92.92,0,0,1,647.63,297.72Z"/><path class="cls-10" d="M651.79,301.88a.92.92,0,1,1,0-1.3A.92.92,0,0,1,651.79,301.88Z"/><path class="cls-10" d="M656,306.05a.92.92,0,1,1,0-1.3A.92.92,0,0,1,656,306.05Z"/><path class="cls-10" d="M630.73,273a.92.92,0,1,1,0-1.3A.92.92,0,0,1,630.73,273Z"/><path class="cls-10" d="M634.9,277.13a.92.92,0,0,1-1.3,0,.92.92,0,1,1,1.3,0Z"/><path class="cls-10" d="M639.06,281.29a.92.92,0,1,1,0-1.3A.92.92,0,0,1,639.06,281.29Z"/><path class="cls-10" d="M643.23,285.46a.92.92,0,0,1-1.3,0,.92.92,0,1,1,1.3,0Z"/><path class="cls-10" d="M647.39,289.62a.92.92,0,1,1,0-1.3A.92.92,0,0,1,647.39,289.62Z"/><path class="cls-10" d="M651.56,293.79a.92.92,0,0,1-1.3,0,.92.92,0,1,1,1.3,0Z"/><path class="cls-10" d="M655.72,298a.92.92,0,1,1,0-1.3A.92.92,0,0,1,655.72,298Z"/><path class="cls-10" d="M659.89,302.12a.92.92,0,0,1-1.3,0,.92.92,0,1,1,1.3,0Z"/><circle class="cls-10" cx="634.01" cy="268.38" r="0.92"/><circle class="cls-10" cx="638.18" cy="272.54" r="0.92"/><circle class="cls-10" cx="642.34" cy="276.71" r="0.92"/><circle class="cls-10" cx="646.51" cy="280.87" r="0.92"/><circle class="cls-10" cx="650.67" cy="285.04" r="0.92"/><circle class="cls-10" cx="654.84" cy="289.2" r="0.92"/><circle class="cls-10" cx="659" cy="293.37" r="0.92"/><circle class="cls-10" cx="663.17" cy="297.53" r="0.92"/><path class="cls-10" d="M638.6,265.1a.93.93,0,0,1-1.31,0,.92.92,0,0,1,0-1.3.92.92,0,0,1,1.31,1.3Z"/><path class="cls-10" d="M642.76,269.26a.92.92,0,1,1,0-1.3A.92.92,0,0,1,642.76,269.26Z"/><path class="cls-10" d="M646.93,273.43a.93.93,0,0,1-1.31,0,.92.92,0,0,1,0-1.3.92.92,0,1,1,1.31,1.3Z"/><path class="cls-10" d="M651.09,277.59a.92.92,0,1,1,0-1.3A.92.92,0,0,1,651.09,277.59Z"/><path class="cls-10" d="M655.26,281.76a.93.93,0,0,1-1.31,0,.92.92,0,0,1,0-1.3.92.92,0,0,1,1.31,1.3Z"/><path class="cls-10" d="M659.42,285.92a.92.92,0,1,1,0-1.3A.92.92,0,0,1,659.42,285.92Z"/><path class="cls-10" d="M663.59,290.09a.93.93,0,0,1-1.31,0,.92.92,0,0,1,0-1.3.92.92,0,0,1,1.31,1.3Z"/><path class="cls-10" d="M667.75,294.25a.92.92,0,1,1,0-1.3A.92.92,0,0,1,667.75,294.25Z"/><path class="cls-10" d="M642.53,261.17a.92.92,0,1,1,0-1.3A.92.92,0,0,1,642.53,261.17Z"/><path class="cls-10" d="M646.69,265.33a.92.92,0,1,1,0-1.3A.92.92,0,0,1,646.69,265.33Z"/><path class="cls-10" d="M650.86,269.5a.92.92,0,1,1,0-1.3A.92.92,0,0,1,650.86,269.5Z"/><path class="cls-10" d="M655,273.66a.92.92,0,1,1,0-1.3A.92.92,0,0,1,655,273.66Z"/><path class="cls-10" d="M659.19,277.83a.92.92,0,1,1,0-1.3A.92.92,0,0,1,659.19,277.83Z"/><path class="cls-10" d="M663.35,282a.92.92,0,1,1,0-1.3A.92.92,0,0,1,663.35,282Z"/><path class="cls-10" d="M667.52,286.16a.92.92,0,1,1,0-1.3A.92.92,0,0,1,667.52,286.16Z"/><path class="cls-10" d="M671.68,290.32a.92.92,0,1,1,0-1.3A.92.92,0,0,1,671.68,290.32Z"/><path class="cls-10" d="M486.43,433.05a2.42,2.42,0,1,1-2.42-2.42A2.42,2.42,0,0,1,486.43,433.05Z"/><path class="cls-10" d="M501.93,433.05a2.42,2.42,0,1,1-2.42-2.42A2.42,2.42,0,0,1,501.93,433.05Z"/><path class="cls-10" d="M517.42,433.05a2.42,2.42,0,1,1-2.42-2.42A2.42,2.42,0,0,1,517.42,433.05Z"/><path class="cls-10" d="M532.91,433.05a2.42,2.42,0,1,1-2.42-2.42A2.42,2.42,0,0,1,532.91,433.05Z"/><path class="cls-10" d="M470.94,418.43a2.42,2.42,0,1,1-2.42-2.42A2.42,2.42,0,0,1,470.94,418.43Z"/><path class="cls-10" d="M486.43,418.43A2.42,2.42,0,1,1,484,416,2.42,2.42,0,0,1,486.43,418.43Z"/><path class="cls-10" d="M501.93,418.43a2.42,2.42,0,1,1-2.42-2.42A2.43,2.43,0,0,1,501.93,418.43Z"/><path class="cls-10" d="M517.42,418.43A2.42,2.42,0,1,1,515,416,2.42,2.42,0,0,1,517.42,418.43Z"/><path class="cls-10" d="M532.91,418.43a2.42,2.42,0,1,1-2.42-2.42A2.42,2.42,0,0,1,532.91,418.43Z"/><path class="cls-10" d="M548.41,418.43A2.42,2.42,0,1,1,546,416,2.43,2.43,0,0,1,548.41,418.43Z"/><path class="cls-10" d="M470.94,403.8a2.42,2.42,0,1,1-2.42-2.42A2.42,2.42,0,0,1,470.94,403.8Z"/><path class="cls-10" d="M486.43,403.8a2.42,2.42,0,1,1-2.42-2.42A2.42,2.42,0,0,1,486.43,403.8Z"/><path class="cls-10" d="M501.93,403.8a2.42,2.42,0,1,1-2.42-2.42A2.43,2.43,0,0,1,501.93,403.8Z"/><path class="cls-10" d="M517.42,403.8a2.42,2.42,0,1,1-2.42-2.42A2.42,2.42,0,0,1,517.42,403.8Z"/><path class="cls-10" d="M532.91,403.8a2.42,2.42,0,1,1-2.42-2.42A2.42,2.42,0,0,1,532.91,403.8Z"/><path class="cls-10" d="M548.41,403.8a2.42,2.42,0,1,1-2.42-2.42A2.43,2.43,0,0,1,548.41,403.8Z"/><path class="cls-10" d="M455.45,389.18a2.42,2.42,0,1,1-2.42-2.42A2.42,2.42,0,0,1,455.45,389.18Z"/><path class="cls-10" d="M470.94,389.18a2.42,2.42,0,1,1-2.42-2.42A2.42,2.42,0,0,1,470.94,389.18Z"/><path class="cls-10" d="M486.43,389.18a2.42,2.42,0,1,1-2.42-2.42A2.42,2.42,0,0,1,486.43,389.18Z"/><path class="cls-10" d="M501.93,389.18a2.42,2.42,0,1,1-2.42-2.42A2.42,2.42,0,0,1,501.93,389.18Z"/><path class="cls-10" d="M517.42,389.18a2.42,2.42,0,1,1-2.42-2.42A2.42,2.42,0,0,1,517.42,389.18Z"/><path class="cls-10" d="M532.91,389.18a2.42,2.42,0,1,1-2.42-2.42A2.42,2.42,0,0,1,532.91,389.18Z"/><path class="cls-10" d="M548.41,389.18a2.42,2.42,0,1,1-2.42-2.42A2.42,2.42,0,0,1,548.41,389.18Z"/><circle class="cls-10" cx="561.48" cy="389.18" r="2.42"/><path class="cls-10" d="M455.45,374.56a2.42,2.42,0,1,1-2.42-2.42A2.42,2.42,0,0,1,455.45,374.56Z"/><path class="cls-10" d="M470.94,374.56a2.42,2.42,0,1,1-2.42-2.42A2.42,2.42,0,0,1,470.94,374.56Z"/><path class="cls-10" d="M486.43,374.56a2.42,2.42,0,1,1-2.42-2.42A2.42,2.42,0,0,1,486.43,374.56Z"/><path class="cls-10" d="M501.93,374.56a2.42,2.42,0,1,1-2.42-2.42A2.42,2.42,0,0,1,501.93,374.56Z"/><path class="cls-10" d="M517.42,374.56a2.42,2.42,0,1,1-2.42-2.42A2.42,2.42,0,0,1,517.42,374.56Z"/><path class="cls-10" d="M532.91,374.56a2.42,2.42,0,1,1-2.42-2.42A2.42,2.42,0,0,1,532.91,374.56Z"/><path class="cls-10" d="M548.41,374.56a2.42,2.42,0,1,1-2.42-2.42A2.42,2.42,0,0,1,548.41,374.56Z"/><path class="cls-10" d="M563.9,374.56a2.42,2.42,0,1,1-2.42-2.42A2.42,2.42,0,0,1,563.9,374.56Z"/><path class="cls-10" d="M470.94,359.94a2.42,2.42,0,1,1-2.42-2.42A2.42,2.42,0,0,1,470.94,359.94Z"/><path class="cls-10" d="M486.43,359.94a2.42,2.42,0,1,1-2.42-2.42A2.42,2.42,0,0,1,486.43,359.94Z"/><path class="cls-10" d="M501.93,359.94a2.42,2.42,0,1,1-2.42-2.42A2.43,2.43,0,0,1,501.93,359.94Z"/><path class="cls-10" d="M517.42,359.94a2.42,2.42,0,1,1-2.42-2.42A2.42,2.42,0,0,1,517.42,359.94Z"/><path class="cls-10" d="M532.91,359.94a2.42,2.42,0,1,1-2.42-2.42A2.42,2.42,0,0,1,532.91,359.94Z"/><path class="cls-10" d="M548.41,359.94a2.42,2.42,0,1,1-2.42-2.42A2.43,2.43,0,0,1,548.41,359.94Z"/><path class="cls-10" d="M470.94,345.32a2.42,2.42,0,1,1-2.42-2.43A2.42,2.42,0,0,1,470.94,345.32Z"/><path class="cls-10" d="M486.43,345.32a2.42,2.42,0,1,1-2.42-2.43A2.42,2.42,0,0,1,486.43,345.32Z"/><path class="cls-10" d="M501.93,345.32a2.42,2.42,0,1,1-2.42-2.43A2.43,2.43,0,0,1,501.93,345.32Z"/><path class="cls-10" d="M517.42,345.32a2.42,2.42,0,1,1-2.42-2.43A2.42,2.42,0,0,1,517.42,345.32Z"/><path class="cls-10" d="M532.91,345.32a2.42,2.42,0,1,1-2.42-2.43A2.42,2.42,0,0,1,532.91,345.32Z"/><path class="cls-10" d="M548.41,345.32a2.42,2.42,0,1,1-2.42-2.43A2.43,2.43,0,0,1,548.41,345.32Z"/><path class="cls-10" d="M486.43,330.69a2.42,2.42,0,1,1-2.42-2.42A2.42,2.42,0,0,1,486.43,330.69Z"/><path class="cls-10" d="M501.93,330.69a2.42,2.42,0,1,1-2.42-2.42A2.42,2.42,0,0,1,501.93,330.69Z"/><path class="cls-10" d="M517.42,330.69a2.42,2.42,0,1,1-2.42-2.42A2.42,2.42,0,0,1,517.42,330.69Z"/><path class="cls-10" d="M532.91,330.69a2.42,2.42,0,1,1-2.42-2.42A2.42,2.42,0,0,1,532.91,330.69Z"/><path class="cls-11" d="M9.46,355.91a1.81,1.81,0,1,1-1.81-1.81A1.81,1.81,0,0,1,9.46,355.91Z"/><path class="cls-11" d="M21.05,355.91a1.81,1.81,0,1,1-1.81-1.81A1.81,1.81,0,0,1,21.05,355.91Z"/><path class="cls-11" d="M32.64,355.91a1.81,1.81,0,1,1-1.81-1.81A1.81,1.81,0,0,1,32.64,355.91Z"/><path class="cls-11" d="M9.46,345a1.81,1.81,0,1,1-1.81-1.81A1.81,1.81,0,0,1,9.46,345Z"/><path class="cls-11" d="M21.05,345a1.81,1.81,0,1,1-1.81-1.81A1.81,1.81,0,0,1,21.05,345Z"/><path class="cls-11" d="M32.64,345a1.81,1.81,0,1,1-1.81-1.81A1.81,1.81,0,0,1,32.64,345Z"/><path class="cls-11" d="M44.24,345a1.82,1.82,0,1,1-1.82-1.81A1.82,1.82,0,0,1,44.24,345Z"/><path class="cls-11" d="M9.46,334a1.81,1.81,0,1,1-1.81-1.81A1.81,1.81,0,0,1,9.46,334Z"/><path class="cls-11" d="M21.05,334a1.81,1.81,0,1,1-1.81-1.81A1.81,1.81,0,0,1,21.05,334Z"/><path class="cls-11" d="M32.64,334a1.81,1.81,0,1,1-1.81-1.81A1.81,1.81,0,0,1,32.64,334Z"/><path class="cls-11" d="M44.24,334a1.82,1.82,0,1,1-1.82-1.81A1.82,1.82,0,0,1,44.24,334Z"/><path class="cls-11" d="M9.46,323.09a1.81,1.81,0,1,1-1.81-1.81A1.81,1.81,0,0,1,9.46,323.09Z"/><path class="cls-11" d="M21.05,323.09a1.81,1.81,0,1,1-1.81-1.81A1.81,1.81,0,0,1,21.05,323.09Z"/><path class="cls-11" d="M32.64,323.09a1.81,1.81,0,1,1-1.81-1.81A1.81,1.81,0,0,1,32.64,323.09Z"/><path class="cls-11" d="M44.24,323.09a1.82,1.82,0,1,1-1.82-1.81A1.82,1.82,0,0,1,44.24,323.09Z"/><path class="cls-11" d="M55.83,323.09A1.82,1.82,0,1,1,54,321.28,1.81,1.81,0,0,1,55.83,323.09Z"/><path class="cls-11" d="M9.46,312.15a1.81,1.81,0,1,1-1.81-1.81A1.81,1.81,0,0,1,9.46,312.15Z"/><path class="cls-11" d="M21.05,312.15a1.81,1.81,0,1,1-1.81-1.81A1.81,1.81,0,0,1,21.05,312.15Z"/><path class="cls-11" d="M32.64,312.15a1.81,1.81,0,1,1-1.81-1.81A1.81,1.81,0,0,1,32.64,312.15Z"/><path class="cls-11" d="M44.24,312.15a1.82,1.82,0,1,1-1.82-1.81A1.82,1.82,0,0,1,44.24,312.15Z"/><path class="cls-11" d="M55.83,312.15A1.82,1.82,0,1,1,54,310.34,1.81,1.81,0,0,1,55.83,312.15Z"/><path class="cls-11" d="M9.46,301.21a1.81,1.81,0,1,1-1.81-1.81A1.81,1.81,0,0,1,9.46,301.21Z"/><path class="cls-11" d="M21.05,301.21a1.81,1.81,0,1,1-1.81-1.81A1.81,1.81,0,0,1,21.05,301.21Z"/><path class="cls-11" d="M32.64,301.21a1.81,1.81,0,1,1-1.81-1.81A1.81,1.81,0,0,1,32.64,301.21Z"/><path class="cls-11" d="M44.24,301.21a1.82,1.82,0,1,1-1.82-1.81A1.82,1.82,0,0,1,44.24,301.21Z"/><path class="cls-11" d="M9.46,290.27a1.81,1.81,0,1,1-1.81-1.81A1.81,1.81,0,0,1,9.46,290.27Z"/><path class="cls-11" d="M21.05,290.27a1.81,1.81,0,1,1-1.81-1.81A1.81,1.81,0,0,1,21.05,290.27Z"/><path class="cls-11" d="M32.64,290.27a1.81,1.81,0,1,1-1.81-1.81A1.81,1.81,0,0,1,32.64,290.27Z"/><path class="cls-11" d="M44.24,290.27a1.82,1.82,0,1,1-1.82-1.81A1.82,1.82,0,0,1,44.24,290.27Z"/><path class="cls-11" d="M9.46,279.33a1.81,1.81,0,1,1-1.81-1.81A1.81,1.81,0,0,1,9.46,279.33Z"/><path class="cls-11" d="M21.05,279.33a1.81,1.81,0,1,1-1.81-1.81A1.81,1.81,0,0,1,21.05,279.33Z"/><path class="cls-11" d="M32.64,279.33a1.81,1.81,0,1,1-1.81-1.81A1.81,1.81,0,0,1,32.64,279.33Z"/><circle class="cls-12" cx="36.48" cy="185.7" r="1.4"/><path class="cls-12" d="M36.48,196a1.4,1.4,0,1,1,1.4-1.4A1.4,1.4,0,0,1,36.48,196Z"/><circle class="cls-12" cx="36.48" cy="203.58" r="1.4"/><circle class="cls-12" cx="36.48" cy="212.53" r="1.4"/><circle class="cls-12" cx="36.48" cy="221.47" r="1.4"/><circle class="cls-12" cx="36.48" cy="230.42" r="1.4"/><path class="cls-12" d="M36.48,240.76a1.4,1.4,0,1,1,1.4-1.4A1.4,1.4,0,0,1,36.48,240.76Z"/><circle class="cls-12" cx="36.48" cy="248.3" r="1.4"/><circle class="cls-12" cx="44.92" cy="185.7" r="1.4"/><path class="cls-12" d="M44.92,196a1.4,1.4,0,1,1,1.4-1.4A1.4,1.4,0,0,1,44.92,196Z"/><circle class="cls-12" cx="44.92" cy="203.58" r="1.4"/><circle class="cls-12" cx="44.92" cy="212.53" r="1.4"/><circle class="cls-12" cx="44.92" cy="221.47" r="1.4"/><circle class="cls-12" cx="44.92" cy="230.42" r="1.4"/><path class="cls-12" d="M44.92,240.76a1.4,1.4,0,1,1,1.4-1.4A1.4,1.4,0,0,1,44.92,240.76Z"/><circle class="cls-12" cx="53.37" cy="185.7" r="1.4"/><path class="cls-12" d="M53.37,196a1.4,1.4,0,1,1,1.39-1.4A1.4,1.4,0,0,1,53.37,196Z"/><circle class="cls-12" cx="53.37" cy="203.58" r="1.4"/><circle class="cls-12" cx="53.37" cy="212.53" r="1.4"/><circle class="cls-12" cx="53.37" cy="221.47" r="1.4"/><circle class="cls-12" cx="53.37" cy="230.42" r="1.4"/><circle class="cls-12" cx="61.81" cy="185.7" r="1.4"/><path class="cls-12" d="M61.81,196a1.4,1.4,0,1,1,1.4-1.4A1.4,1.4,0,0,1,61.81,196Z"/><circle class="cls-12" cx="61.81" cy="203.58" r="1.4"/><circle class="cls-12" cx="61.81" cy="212.53" r="1.4"/><circle class="cls-12" cx="61.81" cy="221.47" r="1.4"/><circle class="cls-12" cx="70.25" cy="185.7" r="1.4"/><path class="cls-12" d="M70.25,196a1.4,1.4,0,1,1,1.4-1.4A1.4,1.4,0,0,1,70.25,196Z"/><circle class="cls-12" cx="70.25" cy="203.58" r="1.4"/><circle class="cls-12" cx="70.25" cy="212.53" r="1.4"/><path class="cls-12" d="M78.69,187.09a1.4,1.4,0,1,1,1.4-1.39A1.4,1.4,0,0,1,78.69,187.09Z"/><path class="cls-12" d="M78.69,196a1.4,1.4,0,1,1,1.4-1.4A1.4,1.4,0,0,1,78.69,196Z"/><path class="cls-12" d="M78.69,205a1.4,1.4,0,1,1,1.4-1.4A1.4,1.4,0,0,1,78.69,205Z"/><path class="cls-12" d="M87.13,187.09a1.4,1.4,0,1,1,1.4-1.39A1.39,1.39,0,0,1,87.13,187.09Z"/><path class="cls-12" d="M87.13,196a1.4,1.4,0,1,1,1.4-1.4A1.4,1.4,0,0,1,87.13,196Z"/><path class="cls-12" d="M95.57,187.09A1.4,1.4,0,1,1,97,185.7,1.39,1.39,0,0,1,95.57,187.09Z"/><circle class="cls-12" cx="543.01" cy="206.38" r="1.4"/><path class="cls-12" d="M543,216.72a1.4,1.4,0,1,1,1.4-1.4A1.4,1.4,0,0,1,543,216.72Z"/><circle class="cls-13" cx="543.01" cy="224.27" r="1.4"/><path class="cls-12" d="M543,234.61a1.4,1.4,0,1,1,1.4-1.4A1.4,1.4,0,0,1,543,234.61Z"/><circle class="cls-12" cx="543.01" cy="242.16" r="1.4"/><path class="cls-12" d="M543,252.5a1.4,1.4,0,1,1,1.4-1.4A1.4,1.4,0,0,1,543,252.5Z"/><circle class="cls-12" cx="543.01" cy="260.04" r="1.4"/><path class="cls-12" d="M543,270.39a1.4,1.4,0,1,1,1.4-1.4A1.4,1.4,0,0,1,543,270.39Z"/><circle class="cls-12" cx="551.46" cy="206.38" r="1.4"/><path class="cls-12" d="M551.46,216.72a1.4,1.4,0,1,1,1.39-1.4A1.4,1.4,0,0,1,551.46,216.72Z"/><circle class="cls-13" cx="551.46" cy="224.27" r="1.4"/><path class="cls-12" d="M551.46,234.61a1.4,1.4,0,1,1,1.39-1.4A1.4,1.4,0,0,1,551.46,234.61Z"/><circle class="cls-12" cx="551.46" cy="242.16" r="1.4"/><path class="cls-12" d="M551.46,252.5a1.4,1.4,0,1,1,1.39-1.4A1.4,1.4,0,0,1,551.46,252.5Z"/><circle class="cls-12" cx="551.46" cy="260.04" r="1.4"/><path class="cls-13" d="M559.9,207.78a1.4,1.4,0,1,1,1.4-1.4A1.4,1.4,0,0,1,559.9,207.78Z"/><path class="cls-13" d="M559.9,216.72a1.4,1.4,0,1,1,1.4-1.4A1.4,1.4,0,0,1,559.9,216.72Z"/><path class="cls-13" d="M559.9,225.66a1.4,1.4,0,1,1,1.4-1.39A1.4,1.4,0,0,1,559.9,225.66Z"/><path class="cls-13" d="M559.9,234.61a1.4,1.4,0,1,1,1.4-1.4A1.4,1.4,0,0,1,559.9,234.61Z"/><path class="cls-13" d="M559.9,243.55a1.4,1.4,0,1,1,1.4-1.39A1.4,1.4,0,0,1,559.9,243.55Z"/><path class="cls-13" d="M559.9,252.5a1.4,1.4,0,1,1,1.4-1.4A1.4,1.4,0,0,1,559.9,252.5Z"/><circle class="cls-12" cx="568.34" cy="206.38" r="1.4"/><path class="cls-12" d="M568.34,216.72a1.4,1.4,0,1,1,1.4-1.4A1.4,1.4,0,0,1,568.34,216.72Z"/><circle class="cls-13" cx="568.34" cy="224.27" r="1.4"/><path class="cls-12" d="M568.34,234.61a1.4,1.4,0,1,1,1.4-1.4A1.4,1.4,0,0,1,568.34,234.61Z"/><circle class="cls-12" cx="568.34" cy="242.16" r="1.4"/><circle class="cls-12" cx="576.78" cy="206.38" r="1.4"/><path class="cls-12" d="M576.78,216.72a1.4,1.4,0,1,1,1.4-1.4A1.4,1.4,0,0,1,576.78,216.72Z"/><circle class="cls-13" cx="576.78" cy="224.27" r="1.4"/><path class="cls-12" d="M576.78,234.61a1.4,1.4,0,1,1,1.4-1.4A1.4,1.4,0,0,1,576.78,234.61Z"/><circle class="cls-12" cx="585.22" cy="206.38" r="1.4"/><path class="cls-12" d="M585.22,216.72a1.4,1.4,0,1,1,1.4-1.4A1.4,1.4,0,0,1,585.22,216.72Z"/><circle class="cls-13" cx="585.22" cy="224.27" r="1.4"/><circle class="cls-12" cx="593.66" cy="206.38" r="1.4"/><path class="cls-12" d="M593.66,216.72a1.4,1.4,0,1,1,1.4-1.4A1.4,1.4,0,0,1,593.66,216.72Z"/><path class="cls-12" d="M602.11,207.78a1.4,1.4,0,1,1,1.39-1.4A1.4,1.4,0,0,1,602.11,207.78Z"/><line class="cls-14" x1="156.92" y1="385.49" x2="201.93" y2="430.5"/><line class="cls-14" x1="195.59" y1="436.84" x2="150.58" y2="391.83"/><path class="cls-14" d="M156.92,391.83a4.48,4.48,0,1,1,0-6.34A4.48,4.48,0,0,1,156.92,391.83Z"/><path class="cls-14" d="M201.93,430.5a4.48,4.48,0,0,1-6.34,6.34"/><polygon class="cls-11" points="647.72 232.49 656.23 217.75 664.73 232.49 647.72 232.49"/><polygon class="cls-11" points="647.72 211.19 656.23 196.46 664.73 211.19 647.72 211.19"/><polygon class="cls-11" points="647.72 189.9 656.23 175.16 664.73 189.9 647.72 189.9"/><polygon class="cls-11" points="647.72 168.61 656.23 153.87 664.73 168.61 647.72 168.61"/><polygon class="cls-11" points="647.72 147.31 656.23 132.58 664.73 147.31 647.72 147.31"/><polygon class="cls-11" points="60.41 53.52 70.25 59.2 60.41 64.88 60.41 53.52"/><polygon class="cls-11" points="74.63 53.52 84.47 59.2 74.63 64.88 74.63 53.52"/><polygon class="cls-11" points="88.85 53.52 98.69 59.2 88.85 64.88 88.85 53.52"/><polygon class="cls-11" points="103.07 53.52 112.91 59.2 103.07 64.88 103.07 53.52"/><polygon class="cls-11" points="117.29 53.52 127.13 59.2 117.29 64.88 117.29 53.52"/><polygon class="cls-11" points="510.98 158.16 501.14 163.84 501.14 160.23 504.73 158.16 501.14 156.09 501.14 152.48 510.98 158.16"/><polygon class="cls-11" points="525.61 158.16 515.77 163.84 515.77 160.23 519.36 158.16 515.77 156.09 515.77 152.48 525.61 158.16"/><polygon class="cls-11" points="540.23 158.16 530.39 163.84 530.39 160.23 533.98 158.16 530.39 156.09 530.39 152.48 540.23 158.16"/><polygon class="cls-11" points="554.86 158.16 545.02 163.84 545.02 160.23 548.61 158.16 545.02 156.09 545.02 152.48 554.86 158.16"/><line class="cls-15" x1="549.22" y1="443.07" x2="554.87" y2="448.73"/><line class="cls-15" x1="555.05" y1="439.7" x2="576.66" y2="461.3"/><line class="cls-15" x1="560.89" y1="436.33" x2="597.78" y2="473.23"/><line class="cls-15" x1="566.72" y1="432.96" x2="597.78" y2="464.02"/><line class="cls-15" x1="572.56" y1="429.59" x2="597.78" y2="454.82"/><line class="cls-15" x1="578.39" y1="426.22" x2="597.78" y2="445.61"/><line class="cls-15" x1="584.23" y1="422.85" x2="597.78" y2="436.4"/><line class="cls-15" x1="590.07" y1="419.48" x2="597.78" y2="427.2"/><line class="cls-15" x1="595.91" y1="416.12" x2="597.78" y2="417.99"/><line class="cls-16" x1="207.58" y1="18.72" x2="268.23" y2="79.36"/><line class="cls-16" x1="259.69" y1="87.91" x2="199.04" y2="27.26"/><path class="cls-16" d="M207.58,27.26a6,6,0,1,1,0-8.54A6,6,0,0,1,207.58,27.26Z"/><path class="cls-16" d="M268.23,79.36a6,6,0,1,1-8.54,8.55"/><line class="cls-17" x1="191.36" y1="85.75" x2="198.99" y2="93.38"/><line class="cls-17" x1="199.22" y1="81.21" x2="228.34" y2="110.32"/><line class="cls-17" x1="207.09" y1="76.67" x2="256.81" y2="126.38"/><line class="cls-17" x1="214.95" y1="72.13" x2="256.81" y2="113.98"/><line class="cls-17" x1="222.82" y1="67.59" x2="256.81" y2="101.58"/><line class="cls-17" x1="230.68" y1="63.05" x2="256.81" y2="89.17"/><line class="cls-17" x1="238.55" y1="58.51" x2="256.81" y2="76.77"/><line class="cls-17" x1="246.41" y1="53.97" x2="256.81" y2="64.36"/><line class="cls-17" x1="254.28" y1="49.43" x2="256.81" y2="51.96"/><line class="cls-3" x1="699.13" y1="251.16" x2="756.24" y2="308.28"/><line class="cls-3" x1="705.56" y1="221.67" x2="720.92" y2="237.03"/><line class="cls-3" x1="194.25" y1="273.43" x2="209.61" y2="288.79"/><line class="cls-3" x1="26.16" y1="119.87" x2="51.64" y2="145.34"/><line class="cls-3" x1="406.46" y1="82.24" x2="416.85" y2="92.62"/><line class="cls-3" x1="150.4" y1="44.15" x2="160.79" y2="54.54"/><line class="cls-3" x1="665.73" y1="441.55" x2="684.54" y2="460.36"/><path class="cls-10" d="M149.26,243.15a2,2,0,1,1-2-2A2,2,0,0,1,149.26,243.15Z"/><path class="cls-10" d="M162.1,243.15a2,2,0,1,1-2-2A2,2,0,0,1,162.1,243.15Z"/><path class="cls-10" d="M175,243.15a2,2,0,1,1-2-2A2,2,0,0,1,175,243.15Z"/><path class="cls-10" d="M187.79,243.15a2,2,0,1,1-2-2A2,2,0,0,1,187.79,243.15Z"/><path class="cls-10" d="M200.64,243.15a2,2,0,1,1-2-2A2,2,0,0,1,200.64,243.15Z"/><path class="cls-10" d="M213.49,243.15a2,2,0,1,1-2-2A2,2,0,0,1,213.49,243.15Z"/><path class="cls-10" d="M226.33,243.15a2,2,0,1,1-2-2A2,2,0,0,1,226.33,243.15Z"/><path class="cls-10" d="M239.18,243.15a2,2,0,1,1-2-2A2,2,0,0,1,239.18,243.15Z"/><path class="cls-10" d="M149.26,231a2,2,0,1,1-2-2A2,2,0,0,1,149.26,231Z"/><path class="cls-10" d="M162.1,231a2,2,0,1,1-2-2A2,2,0,0,1,162.1,231Z"/><path class="cls-10" d="M175,231a2,2,0,1,1-2-2A2,2,0,0,1,175,231Z"/><path class="cls-10" d="M187.79,231a2,2,0,1,1-2-2A2,2,0,0,1,187.79,231Z"/><path class="cls-10" d="M200.64,231a2,2,0,1,1-2-2A2,2,0,0,1,200.64,231Z"/><path class="cls-10" d="M213.49,231a2,2,0,1,1-2-2A2,2,0,0,1,213.49,231Z"/><path class="cls-10" d="M226.33,231a2,2,0,1,1-2-2A2,2,0,0,1,226.33,231Z"/><path class="cls-10" d="M239.18,231a2,2,0,1,1-2-2A2,2,0,0,1,239.18,231Z"/><path class="cls-10" d="M149.26,218.9a2,2,0,1,1-2-2A2,2,0,0,1,149.26,218.9Z"/><path class="cls-10" d="M162.1,218.9a2,2,0,1,1-2-2A2,2,0,0,1,162.1,218.9Z"/><path class="cls-10" d="M175,218.9a2,2,0,1,1-2-2A2,2,0,0,1,175,218.9Z"/><path class="cls-10" d="M187.79,218.9a2,2,0,1,1-2-2A2,2,0,0,1,187.79,218.9Z"/><path class="cls-10" d="M200.64,218.9a2,2,0,1,1-2-2A2,2,0,0,1,200.64,218.9Z"/><path class="cls-10" d="M213.49,218.9a2,2,0,1,1-2-2A2,2,0,0,1,213.49,218.9Z"/><path class="cls-10" d="M226.33,218.9a2,2,0,1,1-2-2A2,2,0,0,1,226.33,218.9Z"/><path class="cls-10" d="M239.18,218.9a2,2,0,1,1-2-2A2,2,0,0,1,239.18,218.9Z"/><path class="cls-10" d="M149.26,206.78a2,2,0,1,1-2-2A2,2,0,0,1,149.26,206.78Z"/><path class="cls-10" d="M162.1,206.78a2,2,0,1,1-2-2A2,2,0,0,1,162.1,206.78Z"/><path class="cls-10" d="M175,206.78a2,2,0,1,1-2-2A2,2,0,0,1,175,206.78Z"/><path class="cls-10" d="M187.79,206.78a2,2,0,1,1-2-2A2,2,0,0,1,187.79,206.78Z"/><path class="cls-10" d="M200.64,206.78a2,2,0,1,1-2-2A2,2,0,0,1,200.64,206.78Z"/><path class="cls-10" d="M213.49,206.78a2,2,0,1,1-2-2A2,2,0,0,1,213.49,206.78Z"/><path class="cls-10" d="M226.33,206.78a2,2,0,1,1-2-2A2,2,0,0,1,226.33,206.78Z"/><path class="cls-10" d="M239.18,206.78a2,2,0,1,1-2-2A2,2,0,0,1,239.18,206.78Z"/><circle class="cls-10" cx="147.25" cy="194.66" r="2.01"/><path class="cls-10" d="M162.1,194.66a2,2,0,1,1-2-2A2,2,0,0,1,162.1,194.66Z"/><circle class="cls-10" cx="172.94" cy="194.66" r="2.01"/><circle class="cls-10" cx="185.79" cy="194.66" r="2.01"/><circle class="cls-10" cx="198.63" cy="194.66" r="2.01"/><circle class="cls-10" cx="211.48" cy="194.66" r="2.01"/><path class="cls-10" d="M226.33,194.66a2,2,0,1,1-2-2A2,2,0,0,1,226.33,194.66Z"/><circle class="cls-10" cx="237.17" cy="194.66" r="2.01"/><circle class="cls-10" cx="147.25" cy="182.53" r="2.01"/><path class="cls-10" d="M162.1,182.53a2,2,0,1,1-2-2A2,2,0,0,1,162.1,182.53Z"/><circle class="cls-10" cx="172.94" cy="182.53" r="2.01"/><circle class="cls-10" cx="185.79" cy="182.53" r="2.01"/><circle class="cls-10" cx="198.63" cy="182.53" r="2.01"/><circle class="cls-10" cx="211.48" cy="182.53" r="2.01"/><path class="cls-10" d="M226.33,182.53a2,2,0,1,1-2-2A2,2,0,0,1,226.33,182.53Z"/><circle class="cls-10" cx="237.17" cy="182.53" r="2.01"/><circle class="cls-10" cx="147.25" cy="170.41" r="2.01"/><path class="cls-10" d="M162.1,170.41a2,2,0,1,1-2-2A2,2,0,0,1,162.1,170.41Z"/><circle class="cls-10" cx="172.94" cy="170.41" r="2.01"/><circle class="cls-10" cx="185.79" cy="170.41" r="2.01"/><circle class="cls-10" cx="198.63" cy="170.41" r="2.01"/><circle class="cls-10" cx="211.48" cy="170.41" r="2.01"/><path class="cls-10" d="M226.33,170.41a2,2,0,1,1-2-2A2,2,0,0,1,226.33,170.41Z"/><circle class="cls-10" cx="237.17" cy="170.41" r="2.01"/><circle class="cls-10" cx="147.25" cy="158.28" r="2.01"/><path class="cls-10" d="M162.1,158.28a2,2,0,1,1-2-2A2,2,0,0,1,162.1,158.28Z"/><circle class="cls-10" cx="172.94" cy="158.28" r="2.01"/><circle class="cls-10" cx="185.79" cy="158.28" r="2.01"/><circle class="cls-10" cx="198.63" cy="158.28" r="2.01"/><circle class="cls-10" cx="211.48" cy="158.28" r="2.01"/><path class="cls-10" d="M226.33,158.28a2,2,0,1,1-2-2A2,2,0,0,1,226.33,158.28Z"/><circle class="cls-10" cx="237.17" cy="158.28" r="2.01"/><rect class="cls-11" x="127.16" y="136.36" width="100.32" height="100.32"/><g class="cls-18"><circle class="cls-19" cx="177.32" cy="186.52" r="65.42"/><circle class="cls-19" cx="177.32" cy="186.52" r="52.11"/><circle class="cls-19" cx="177.32" cy="186.52" r="38.79"/><circle class="cls-19" cx="177.32" cy="186.52" r="25.48" transform="translate(-79.66 200.39) rotate(-49.54)"/><circle class="cls-19" cx="177.32" cy="186.52" r="12.16" transform="translate(-79.96 180.01) rotate(-45)"/></g><rect class="cls-11" x="626.13" y="263.94" width="33.79" height="33.79" transform="translate(386.92 -372.44) rotate(45)"/><g class="cls-20"><circle class="cls-21" cx="643.03" cy="280.83" r="22.04"/><circle class="cls-21" cx="643.03" cy="280.83" r="17.55"/><circle class="cls-21" cx="643.03" cy="280.83" r="13.07"/><path class="cls-21" d="M649.1,286.9a8.58,8.58,0,1,1,0-12.14A8.59,8.59,0,0,1,649.1,286.9Z"/><circle class="cls-21" cx="643.03" cy="280.83" r="4.1"/></g><g class="cls-22"><circle class="cls-23" cx="330.53" cy="393.15" r="29.91"/><circle class="cls-23" cx="330.53" cy="393.15" r="23.82"/><circle class="cls-23" cx="330.53" cy="393.15" r="17.73"/><circle class="cls-23" cx="330.53" cy="393.15" r="11.65"/><circle class="cls-23" cx="330.53" cy="393.15" r="5.56"/></g><rect class="cls-11" x="444.97" y="47.93" width="4.56" height="21.24"/><rect class="cls-11" x="444.97" y="47.93" width="4.56" height="21.24" transform="translate(505.8 -388.7) rotate(90)"/><rect class="cls-10" x="133.37" y="249.7" width="2.84" height="13.24"/><rect class="cls-10" x="133.37" y="249.7" width="2.84" height="13.24" transform="translate(391.11 121.53) rotate(90)"/><rect class="cls-10" x="616.14" y="360.45" width="4.35" height="20.28"/><rect class="cls-10" x="616.14" y="360.45" width="4.35" height="20.28" transform="translate(988.91 -247.73) rotate(90)"/><rect class="cls-10" x="280.5" y="173.71" width="3.79" height="17.64" transform="translate(211.78 -146.22) rotate(45)"/><rect class="cls-10" x="280.5" y="173.71" width="3.79" height="17.64" transform="translate(611.15 111.92) rotate(135)"/><rect class="cls-10" x="43.53" y="455.73" width="5.59" height="26.02"/><rect class="cls-10" x="43.53" y="455.73" width="5.59" height="26.02" transform="translate(515.06 422.42) rotate(90)"/><circle class="cls-24" cx="454" cy="125.85" r="6.75"/><path class="cls-25" d="M366.45,454.78a3.5,3.5,0,1,1-3.49-3.49A3.49,3.49,0,0,1,366.45,454.78Z"/><path class="cls-25" d="M69.16,24.48a3.49,3.49,0,1,1,4.94,0A3.5,3.5,0,0,1,69.16,24.48Z"/><path class="cls-25" d="M127.51,455.83a3.5,3.5,0,1,1-3.5-3.49A3.5,3.5,0,0,1,127.51,455.83Z"/><path class="cls-26" d="M308,54.2a3.5,3.5,0,1,1-3.49-3.49A3.5,3.5,0,0,1,308,54.2Z"/><path class="cls-26" d="M428.25,401.38a3.5,3.5,0,1,1-3.5-3.49A3.5,3.5,0,0,1,428.25,401.38Z"/><circle class="cls-11" cx="250.45" cy="397" r="4.72"/><path class="cls-11" d="M717.76,167.53a5.42,5.42,0,1,1-5.42-5.42A5.41,5.41,0,0,1,717.76,167.53Z"/><circle class="cls-11" cx="406.46" cy="355.91" r="3.15"/><path class="cls-10" d="M62.32,408.12a.92.92,0,1,1-.92-.92A.92.92,0,0,1,62.32,408.12Z"/><path class="cls-10" d="M68.21,408.12a.92.92,0,1,1-.92-.92A.92.92,0,0,1,68.21,408.12Z"/><path class="cls-10" d="M74.1,408.12a.92.92,0,1,1-.92-.92A.92.92,0,0,1,74.1,408.12Z"/><path class="cls-10" d="M80,408.12a.92.92,0,1,1-.92-.92A.92.92,0,0,1,80,408.12Z"/><path class="cls-10" d="M85.88,408.12a.92.92,0,1,1-.92-.92A.92.92,0,0,1,85.88,408.12Z"/><path class="cls-10" d="M91.77,408.12a.92.92,0,1,1-.92-.92A.92.92,0,0,1,91.77,408.12Z"/><path class="cls-10" d="M97.66,408.12a.92.92,0,1,1-.92-.92A.92.92,0,0,1,97.66,408.12Z"/><path class="cls-10" d="M103.55,408.12a.92.92,0,1,1-.92-.92A.92.92,0,0,1,103.55,408.12Z"/><path class="cls-10" d="M62.32,402.56a.92.92,0,1,1-.92-.92A.92.92,0,0,1,62.32,402.56Z"/><path class="cls-10" d="M68.21,402.56a.92.92,0,1,1-.92-.92A.92.92,0,0,1,68.21,402.56Z"/><path class="cls-10" d="M74.1,402.56a.92.92,0,1,1-.92-.92A.92.92,0,0,1,74.1,402.56Z"/><path class="cls-10" d="M80,402.56a.92.92,0,1,1-.92-.92A.92.92,0,0,1,80,402.56Z"/><path class="cls-10" d="M85.88,402.56a.92.92,0,1,1-.92-.92A.92.92,0,0,1,85.88,402.56Z"/><path class="cls-10" d="M91.77,402.56a.92.92,0,1,1-.92-.92A.92.92,0,0,1,91.77,402.56Z"/><path class="cls-10" d="M97.66,402.56a.92.92,0,1,1-.92-.92A.92.92,0,0,1,97.66,402.56Z"/><path class="cls-10" d="M103.55,402.56a.92.92,0,1,1-.92-.92A.92.92,0,0,1,103.55,402.56Z"/><path class="cls-10" d="M62.32,397a.92.92,0,1,1-.92-.92A.92.92,0,0,1,62.32,397Z"/><path class="cls-10" d="M68.21,397a.92.92,0,1,1-.92-.92A.92.92,0,0,1,68.21,397Z"/><path class="cls-10" d="M74.1,397a.92.92,0,1,1-.92-.92A.92.92,0,0,1,74.1,397Z"/><path class="cls-10" d="M80,397a.92.92,0,1,1-.92-.92A.92.92,0,0,1,80,397Z"/><path class="cls-10" d="M85.88,397a.92.92,0,1,1-.92-.92A.92.92,0,0,1,85.88,397Z"/><path class="cls-10" d="M91.77,397a.92.92,0,1,1-.92-.92A.92.92,0,0,1,91.77,397Z"/><path class="cls-10" d="M97.66,397a.92.92,0,1,1-.92-.92A.92.92,0,0,1,97.66,397Z"/><path class="cls-10" d="M103.55,397a.92.92,0,1,1-.92-.92A.92.92,0,0,1,103.55,397Z"/><path class="cls-10" d="M62.32,391.44a.92.92,0,1,1-.92-.92A.92.92,0,0,1,62.32,391.44Z"/><path class="cls-10" d="M68.21,391.44a.92.92,0,1,1-.92-.92A.92.92,0,0,1,68.21,391.44Z"/><path class="cls-10" d="M74.1,391.44a.92.92,0,1,1-.92-.92A.92.92,0,0,1,74.1,391.44Z"/><path class="cls-10" d="M80,391.44a.92.92,0,1,1-.92-.92A.92.92,0,0,1,80,391.44Z"/><path class="cls-10" d="M85.88,391.44a.92.92,0,1,1-.92-.92A.92.92,0,0,1,85.88,391.44Z"/><path class="cls-10" d="M91.77,391.44a.92.92,0,1,1-.92-.92A.92.92,0,0,1,91.77,391.44Z"/><path class="cls-10" d="M97.66,391.44a.92.92,0,1,1-.92-.92A.92.92,0,0,1,97.66,391.44Z"/><path class="cls-10" d="M103.55,391.44a.92.92,0,1,1-.92-.92A.92.92,0,0,1,103.55,391.44Z"/><path class="cls-10" d="M62.32,385.88a.92.92,0,1,1-.92-.92A.92.92,0,0,1,62.32,385.88Z"/><path class="cls-10" d="M68.21,385.88a.92.92,0,1,1-.92-.92A.92.92,0,0,1,68.21,385.88Z"/><path class="cls-10" d="M74.1,385.88a.92.92,0,1,1-.92-.92A.92.92,0,0,1,74.1,385.88Z"/><path class="cls-10" d="M80,385.88a.92.92,0,1,1-.92-.92A.92.92,0,0,1,80,385.88Z"/><path class="cls-10" d="M85.88,385.88A.92.92,0,1,1,85,385,.92.92,0,0,1,85.88,385.88Z"/><path class="cls-10" d="M91.77,385.88a.92.92,0,1,1-.92-.92A.92.92,0,0,1,91.77,385.88Z"/><path class="cls-10" d="M97.66,385.88a.92.92,0,1,1-.92-.92A.92.92,0,0,1,97.66,385.88Z"/><path class="cls-10" d="M103.55,385.88a.92.92,0,1,1-.92-.92A.92.92,0,0,1,103.55,385.88Z"/><path class="cls-10" d="M62.32,380.32a.92.92,0,1,1-.92-.92A.92.92,0,0,1,62.32,380.32Z"/><path class="cls-10" d="M68.21,380.32a.92.92,0,1,1-.92-.92A.92.92,0,0,1,68.21,380.32Z"/><path class="cls-10" d="M74.1,380.32a.92.92,0,1,1-.92-.92A.92.92,0,0,1,74.1,380.32Z"/><path class="cls-10" d="M80,380.32a.92.92,0,1,1-.92-.92A.92.92,0,0,1,80,380.32Z"/><path class="cls-10" d="M85.88,380.32a.92.92,0,1,1-.92-.92A.92.92,0,0,1,85.88,380.32Z"/><path class="cls-10" d="M91.77,380.32a.92.92,0,1,1-.92-.92A.92.92,0,0,1,91.77,380.32Z"/><path class="cls-10" d="M97.66,380.32a.92.92,0,1,1-.92-.92A.92.92,0,0,1,97.66,380.32Z"/><path class="cls-10" d="M103.55,380.32a.92.92,0,1,1-.92-.92A.92.92,0,0,1,103.55,380.32Z"/><path class="cls-10" d="M62.32,374.76a.92.92,0,1,1-.92-.92A.92.92,0,0,1,62.32,374.76Z"/><path class="cls-10" d="M68.21,374.76a.92.92,0,1,1-.92-.92A.92.92,0,0,1,68.21,374.76Z"/><path class="cls-10" d="M74.1,374.76a.92.92,0,1,1-.92-.92A.92.92,0,0,1,74.1,374.76Z"/><path class="cls-10" d="M80,374.76a.92.92,0,1,1-.92-.92A.92.92,0,0,1,80,374.76Z"/><path class="cls-10" d="M85.88,374.76a.92.92,0,1,1-.92-.92A.92.92,0,0,1,85.88,374.76Z"/><path class="cls-10" d="M91.77,374.76a.92.92,0,1,1-.92-.92A.92.92,0,0,1,91.77,374.76Z"/><path class="cls-10" d="M97.66,374.76a.92.92,0,1,1-.92-.92A.92.92,0,0,1,97.66,374.76Z"/><path class="cls-10" d="M103.55,374.76a.92.92,0,1,1-.92-.92A.92.92,0,0,1,103.55,374.76Z"/><path class="cls-10" d="M62.32,369.2a.92.92,0,1,1-.92-.92A.92.92,0,0,1,62.32,369.2Z"/><path class="cls-10" d="M68.21,369.2a.92.92,0,1,1-.92-.92A.92.92,0,0,1,68.21,369.2Z"/><path class="cls-10" d="M74.1,369.2a.92.92,0,1,1-.92-.92A.92.92,0,0,1,74.1,369.2Z"/><path class="cls-10" d="M80,369.2a.92.92,0,1,1-.92-.92A.92.92,0,0,1,80,369.2Z"/><path class="cls-10" d="M85.88,369.2a.92.92,0,1,1-.92-.92A.92.92,0,0,1,85.88,369.2Z"/><path class="cls-10" d="M91.77,369.2a.92.92,0,1,1-.92-.92A.92.92,0,0,1,91.77,369.2Z"/><path class="cls-10" d="M97.66,369.2a.92.92,0,1,1-.92-.92A.92.92,0,0,1,97.66,369.2Z"/><path class="cls-10" d="M103.55,369.2a.92.92,0,1,1-.92-.92A.92.92,0,0,1,103.55,369.2Z"/><rect class="cls-27" x="81.11" y="387.7" width="40.9" height="40.9" rx="1.63"/><path class="cls-10" d="M349.37,138.28a.92.92,0,1,1-.92.92A.92.92,0,0,1,349.37,138.28Z"/><path class="cls-10" d="M349.37,132.39a.92.92,0,1,1-.92.92A.92.92,0,0,1,349.37,132.39Z"/><path class="cls-10" d="M349.37,126.49a.93.93,0,1,1-.92.93A.93.93,0,0,1,349.37,126.49Z"/><path class="cls-10" d="M349.37,120.6a.93.93,0,1,1-.92.92A.92.92,0,0,1,349.37,120.6Z"/><path class="cls-10" d="M349.37,114.71a.93.93,0,1,1-.92.92A.92.92,0,0,1,349.37,114.71Z"/><path class="cls-10" d="M349.37,108.82a.92.92,0,1,1-.92.92A.92.92,0,0,1,349.37,108.82Z"/><path class="cls-10" d="M349.37,102.93a.92.92,0,1,1-.92.92A.92.92,0,0,1,349.37,102.93Z"/><path class="cls-10" d="M349.37,97a.92.92,0,1,1-.92.92A.92.92,0,0,1,349.37,97Z"/><path class="cls-10" d="M343.81,138.28a.92.92,0,1,1-.92.92A.92.92,0,0,1,343.81,138.28Z"/><path class="cls-10" d="M343.81,132.39a.92.92,0,1,1-.92.92A.92.92,0,0,1,343.81,132.39Z"/><path class="cls-10" d="M343.81,126.49a.93.93,0,1,1-.92.93A.93.93,0,0,1,343.81,126.49Z"/><path class="cls-10" d="M343.81,120.6a.93.93,0,1,1-.92.92A.92.92,0,0,1,343.81,120.6Z"/><path class="cls-10" d="M343.81,114.71a.93.93,0,1,1-.92.92A.92.92,0,0,1,343.81,114.71Z"/><path class="cls-10" d="M343.81,108.82a.92.92,0,1,1-.92.92A.92.92,0,0,1,343.81,108.82Z"/><path class="cls-10" d="M343.81,102.93a.92.92,0,1,1-.92.92A.92.92,0,0,1,343.81,102.93Z"/><path class="cls-10" d="M343.81,97a.92.92,0,1,1-.92.92A.92.92,0,0,1,343.81,97Z"/><path class="cls-10" d="M338.25,138.28a.92.92,0,1,1-.92.92A.92.92,0,0,1,338.25,138.28Z"/><path class="cls-10" d="M338.25,132.39a.92.92,0,1,1-.92.92A.92.92,0,0,1,338.25,132.39Z"/><path class="cls-10" d="M338.25,126.49a.93.93,0,1,1-.92.93A.93.93,0,0,1,338.25,126.49Z"/><path class="cls-10" d="M338.25,120.6a.93.93,0,1,1-.92.92A.92.92,0,0,1,338.25,120.6Z"/><path class="cls-10" d="M338.25,114.71a.93.93,0,1,1-.92.92A.92.92,0,0,1,338.25,114.71Z"/><path class="cls-10" d="M338.25,108.82a.92.92,0,1,1-.92.92A.92.92,0,0,1,338.25,108.82Z"/><path class="cls-10" d="M338.25,102.93a.92.92,0,1,1-.92.92A.92.92,0,0,1,338.25,102.93Z"/><path class="cls-10" d="M338.25,97a.92.92,0,1,1-.92.92A.92.92,0,0,1,338.25,97Z"/><path class="cls-10" d="M332.69,138.28a.92.92,0,1,1-.92.92A.92.92,0,0,1,332.69,138.28Z"/><path class="cls-10" d="M332.69,132.39a.92.92,0,1,1-.92.92A.92.92,0,0,1,332.69,132.39Z"/><path class="cls-10" d="M332.69,126.49a.93.93,0,1,1-.92.93A.93.93,0,0,1,332.69,126.49Z"/><path class="cls-10" d="M332.69,120.6a.93.93,0,1,1-.92.92A.92.92,0,0,1,332.69,120.6Z"/><path class="cls-10" d="M332.69,114.71a.93.93,0,1,1-.92.92A.92.92,0,0,1,332.69,114.71Z"/><path class="cls-10" d="M332.69,108.82a.92.92,0,1,1-.92.92A.92.92,0,0,1,332.69,108.82Z"/><path class="cls-10" d="M332.69,102.93a.92.92,0,1,1-.92.92A.92.92,0,0,1,332.69,102.93Z"/><path class="cls-10" d="M332.69,97a.92.92,0,1,1-.92.92A.92.92,0,0,1,332.69,97Z"/><path class="cls-10" d="M327.13,138.28a.92.92,0,1,1-.92.92A.92.92,0,0,1,327.13,138.28Z"/><path class="cls-10" d="M327.13,132.39a.92.92,0,1,1-.92.92A.92.92,0,0,1,327.13,132.39Z"/><path class="cls-10" d="M327.13,126.49a.93.93,0,1,1-.92.93A.93.93,0,0,1,327.13,126.49Z"/><path class="cls-10" d="M327.13,120.6a.93.93,0,1,1-.92.92A.92.92,0,0,1,327.13,120.6Z"/><path class="cls-10" d="M327.13,114.71a.93.93,0,1,1-.92.92A.92.92,0,0,1,327.13,114.71Z"/><path class="cls-10" d="M327.13,108.82a.92.92,0,1,1-.92.92A.92.92,0,0,1,327.13,108.82Z"/><path class="cls-10" d="M327.13,102.93a.92.92,0,1,1-.92.92A.92.92,0,0,1,327.13,102.93Z"/><path class="cls-10" d="M327.13,97a.92.92,0,1,1-.92.92A.92.92,0,0,1,327.13,97Z"/><path class="cls-10" d="M321.57,138.28a.92.92,0,1,1-.92.92A.92.92,0,0,1,321.57,138.28Z"/><path class="cls-10" d="M321.57,132.39a.92.92,0,1,1-.92.92A.92.92,0,0,1,321.57,132.39Z"/><path class="cls-10" d="M321.57,126.49a.93.93,0,1,1-.92.93A.93.93,0,0,1,321.57,126.49Z"/><path class="cls-10" d="M321.57,120.6a.93.93,0,1,1-.92.92A.92.92,0,0,1,321.57,120.6Z"/><path class="cls-10" d="M321.57,114.71a.93.93,0,1,1-.92.92A.92.92,0,0,1,321.57,114.71Z"/><path class="cls-10" d="M321.57,108.82a.92.92,0,1,1-.92.92A.92.92,0,0,1,321.57,108.82Z"/><path class="cls-10" d="M321.57,102.93a.92.92,0,1,1-.92.92A.92.92,0,0,1,321.57,102.93Z"/><path class="cls-10" d="M321.57,97a.92.92,0,1,1-.92.92A.92.92,0,0,1,321.57,97Z"/><path class="cls-10" d="M316,138.28a.92.92,0,1,1-.92.92A.92.92,0,0,1,316,138.28Z"/><path class="cls-10" d="M316,132.39a.92.92,0,1,1-.92.92A.92.92,0,0,1,316,132.39Z"/><path class="cls-10" d="M316,126.49a.93.93,0,1,1-.92.93A.93.93,0,0,1,316,126.49Z"/><path class="cls-10" d="M316,120.6a.93.93,0,1,1-.92.92A.92.92,0,0,1,316,120.6Z"/><path class="cls-10" d="M316,114.71a.93.93,0,1,1-.92.92A.92.92,0,0,1,316,114.71Z"/><path class="cls-10" d="M316,108.82a.92.92,0,1,1-.92.92A.92.92,0,0,1,316,108.82Z"/><path class="cls-10" d="M316,102.93a.92.92,0,1,1-.92.92A.92.92,0,0,1,316,102.93Z"/><path class="cls-10" d="M316,97a.92.92,0,1,1-.92.92A.92.92,0,0,1,316,97Z"/><path class="cls-10" d="M310.45,138.28a.92.92,0,1,1-.92.92A.92.92,0,0,1,310.45,138.28Z"/><path class="cls-10" d="M310.45,132.39a.92.92,0,1,1-.92.92A.92.92,0,0,1,310.45,132.39Z"/><path class="cls-10" d="M310.45,126.49a.93.93,0,1,1-.92.93A.93.93,0,0,1,310.45,126.49Z"/><path class="cls-10" d="M310.45,120.6a.93.93,0,1,1-.92.92A.92.92,0,0,1,310.45,120.6Z"/><path class="cls-10" d="M310.45,114.71a.93.93,0,1,1-.92.92A.92.92,0,0,1,310.45,114.71Z"/><path class="cls-10" d="M310.45,108.82a.92.92,0,1,1-.92.92A.92.92,0,0,1,310.45,108.82Z"/><path class="cls-10" d="M310.45,102.93a.92.92,0,1,1-.92.92A.92.92,0,0,1,310.45,102.93Z"/><path class="cls-10" d="M310.45,97a.92.92,0,1,1-.92.92A.92.92,0,0,1,310.45,97Z"/><rect class="cls-27" x="328.95" y="78.59" width="40.9" height="40.9" rx="1.63" transform="translate(250.36 448.43) rotate(-90)"/><rect class="cls-28" x="121.3" y="-14.91" width="29.82" height="29.82" rx="1.19"/><rect class="cls-10" x="334.97" y="-9.72" width="55.97" height="55.97"/><g class="cls-29"><path class="cls-30" d="M273,35.69s37-92.13,139.4-75"/><path class="cls-30" d="M277.39,40.08s37-92.14,139.41-75"/><path class="cls-30" d="M281.78,44.46s37-92.13,139.4-75"/><path class="cls-30" d="M286.16,48.85s37-92.14,139.41-75"/><path class="cls-30" d="M290.55,53.23s37-92.14,139.4-75"/><path class="cls-30" d="M294.93,57.61s37-92.13,139.41-75"/><path class="cls-30" d="M299.32,62s37-92.14,139.4-75"/><path class="cls-30" d="M303.7,66.38s37-92.13,139.4-75"/><path class="cls-30" d="M308.08,70.77s37-92.14,139.41-75"/><path class="cls-30" d="M312.47,75.15s37-92.13,139.4-75"/><path class="cls-30" d="M316.85,79.53s37-92.13,139.41-75"/><path class="cls-30" d="M321.24,83.92s37-92.14,139.4-75"/><path class="cls-30" d="M325.62,88.3s37-92.13,139.41-75"/><path class="cls-30" d="M330,92.69s37-92.14,139.4-75"/><path class="cls-30" d="M334.39,97.07s37-92.13,139.4-75"/><path class="cls-30" d="M338.77,101.46s37-92.14,139.41-75"/><path class="cls-30" d="M343.16,105.84s37-92.13,139.4-75"/><path class="cls-30" d="M347.54,110.23s37-92.14,139.41-75"/><path class="cls-30" d="M351.93,114.61s37-92.14,139.4-75"/><path class="cls-30" d="M356.31,119s37-92.13,139.41-75"/><path class="cls-30" d="M360.7,123.38s37-92.14,139.4-75"/></g><rect class="cls-11" x="384.68" y="478.22" width="43.56" height="43.56"/><g class="cls-31"><path class="cls-32" d="M336.45,513.57S365.23,441.85,445,455.16"/><path class="cls-32" d="M339.86,517s28.78-71.72,108.51-58.41"/><path class="cls-32" d="M343.28,520.39s28.77-71.72,108.51-58.4"/><path class="cls-32" d="M346.69,523.8s28.78-71.71,108.51-58.4"/><path class="cls-32" d="M350.1,527.22s28.78-71.72,108.51-58.41"/><path class="cls-32" d="M353.51,530.63S382.29,458.91,462,472.22"/><path class="cls-32" d="M356.93,534s28.78-71.71,108.51-58.4"/><path class="cls-32" d="M360.34,537.45s28.78-71.71,108.51-58.4"/><path class="cls-32" d="M363.75,540.87s28.78-71.72,108.51-58.41"/><path class="cls-32" d="M367.16,544.28s28.78-71.72,108.52-58.4"/><path class="cls-32" d="M370.58,547.69s28.78-71.71,108.51-58.4"/><path class="cls-32" d="M374,551.1s28.78-71.71,108.51-58.4"/><path class="cls-32" d="M377.4,554.52s28.78-71.72,108.51-58.41"/><path class="cls-32" d="M380.82,557.93s28.77-71.72,108.51-58.4"/></g><rect class="cls-33" x="94.02" y="295.75" width="39.33" height="39.33" transform="translate(-189.74 172.78) rotate(-45)"/><rect class="cls-33" x="100.68" y="302.4" width="26.03" height="26.03" transform="translate(-189.74 172.78) rotate(-45)"/><rect class="cls-34" x="107.33" y="309.06" width="12.72" height="12.72" transform="translate(-189.74 172.78) rotate(-45)"/><rect class="cls-33" x="678.33" y="-1.4" width="39.33" height="39.33" transform="translate(191.52 498.91) rotate(-45)"/><rect class="cls-33" x="684.98" y="5.25" width="26.03" height="26.03" transform="translate(191.52 498.9) rotate(-45)"/><rect class="cls-33" x="691.63" y="11.9" width="12.72" height="12.72" transform="translate(191.52 498.91) rotate(-45)"/><rect class="cls-35" x="126.78" y="471.19" width="57.61" height="57.61" transform="translate(-307.98 256.47) rotate(-45)"/><rect class="cls-35" x="136.53" y="480.94" width="38.12" height="38.12" transform="translate(-307.98 256.47) rotate(-45)"/><rect class="cls-35" x="146.28" y="490.68" width="18.63" height="18.63" transform="translate(-307.98 256.47) rotate(-45)"/><rect class="cls-28" x="490.03" y="184.99" width="29.82" height="29.82" rx="1.19" transform="translate(289.25 -298.5) rotate(45)"/><rect class="cls-10" x="498.61" y="193.57" width="12.68" height="12.68" rx="0.51" transform="translate(289.25 -298.5) rotate(45)"/><rect class="cls-36" x="188.6" y="340.35" width="21.07" height="21.07" rx="0.84" transform="translate(306.44 -38.04) rotate(45)"/><rect class="cls-10" x="194.66" y="346.41" width="8.96" height="8.96" rx="0.36" transform="translate(306.44 -38.04) rotate(45)"/><rect class="cls-28" x="28.26" y="81.7" width="8.94" height="8.94" rx="0.36" transform="translate(70.51 2.1) rotate(45)"/><rect class="cls-14" x="685.84" y="97.2" width="8.94" height="8.94" rx="0.36" transform="translate(274.08 -458.34) rotate(45)"/><rect class="cls-14" x="489.35" y="473.75" width="8.94" height="8.94" rx="0.36" transform="translate(482.79 -209.12) rotate(45)"/><rect class="cls-14" x="265.35" y="17.55" width="8.94" height="8.94" rx="0.36" transform="translate(94.6 -184.34) rotate(45)"/></g><path class="cls-37" d="M72.49,421.33c-.18-1,0-1.26.9-1.69L76.9,418l-7.55-3.48L57.4,409.06c-.54-.25-.95-.56-.93-1.22s.42-.91.93-1.15q13.93-6.37,27.85-12.79c.84-.39,1.44.08,2.13.28,2.49,1.16,5,2.32,7.46,3.46a.72.72,0,0,0,.54,0c1.09-.49,2.17-1,3.25-1.52l3-1.29c-2.16-1-4.18-1.93-6.2-2.84a.67.67,0,0,0-.48,0c-.83.4-1.65.83-2.47,1.24a1.19,1.19,0,1,1-.91-2.15,26.66,26.66,0,0,0,2.57-1.27,2.09,2.09,0,0,1,2.12,0q11.83,5.47,23.68,10.9,6.45,3,12.9,5.94c.53.24.93.46.94,1.18a1.25,1.25,0,0,1-.93,1.27L113.42,418l.79.39,18.57,8.54c.52.24.94.45.95,1.18a1.25,1.25,0,0,1-.91,1.28q-9.22,4.22-18.44,8.46l-.94.47,8.4,3.88,10.92,5c.55.25,1,.49,1,1.24s-.41,1-1,1.25Q121.3,455,109.83,460.24a1.28,1.28,0,0,1-1.82-.4c-.14-1.06,0-1.28.9-1.71l13.68-6.27c2.42-1.11,4.84-2.24,7.32-3.39-.19-.1-.29-.17-.4-.22-6.17-2.84-12.34-5.69-18.53-8.5a1.16,1.16,0,0,0-.87.07q-7,3.18-13.94,6.41a2.19,2.19,0,0,1-2,0q-6.89-3.23-13.81-6.34a1.66,1.66,0,0,0-1.18-.05c-4.87,2.2-9.71,4.44-14.56,6.67l-4.23,2c11.54,5.3,23,10.56,34.41,15.8a1.27,1.27,0,0,0,.9,0c1.74-.77,3.46-1.59,5.2-2.38,1-.44,1.19-.38,1.85.43.1,1.05,0,1.24-1,1.68l-5.64,2.6a3.5,3.5,0,0,0-.49.29h-.9c-2.13-1-4.24-2-6.38-3q-15.47-7.12-30.94-14.22a1.27,1.27,0,0,1-.92-1.15c0-.71.46-1,1-1.25l19.36-8.88a5,5,0,0,0-.54-.32l-18.51-8.51a5.46,5.46,0,0,1-.87-.44,1.17,1.17,0,0,1,.37-2l8.05-3.71,1.44-.65c.86-.37,1.15-.29,1.7.5a1.2,1.2,0,0,1-.8,1.62c-.83.36-1.65.73-2.47,1.11l-4.84,2.24c.38.2.64.34.9.46q16.66,7.65,33.32,15.31a1.19,1.19,0,0,0,1.1,0q16.86-7.77,33.73-15.51a3.21,3.21,0,0,0,.41-.27c-.08-.07-.11-.12-.15-.14q-9.34-4.29-18.68-8.57a1.19,1.19,0,0,0-.88.08q-7,3.2-14,6.44a2,2,0,0,1-1.86,0q-7-3.25-14-6.44a1.43,1.43,0,0,0-1,0c-1.61.69-3.2,1.43-4.79,2.15C73.38,422.13,73.2,422.1,72.49,421.33Zm26-1.77c-1.11-.51-2.19-1.32-3.34-1.42-.89-.09-1.86.72-2.8,1.13l-1,.44L88.72,421l3.7,1.62c.8.39,1.6.79,2.41,1.15a1,1,0,0,0,.71,0c2-.89,3.92-1.8,6-2.77Zm12.66-5.74c.8.39,1.59.82,2.41,1.16a1.38,1.38,0,0,0,1,0c1.63-.7,3.22-1.46,4.83-2.21l1.51-.71L118,410.8c-1.1-.52-2.2-1.05-3.32-1.55a.64.64,0,0,0-.47,0c-2.15,1-4.29,2-6.57,3Zm-3-13.31,3-1.3c-2.29-1.06-4.46-2.06-6.64-3a.65.65,0,0,0-.49,0c-.79.36-1.57.75-2.35,1.13L97.82,399c2.23,1,4.32,2,6.41,2.94a1,1,0,0,0,.75.05C106.05,401.53,107.1,401,108.16,400.51Zm-6.67,17.84,2.56,1.22a.58.58,0,0,0,.41,0l6.87-3.14-3-1.33c-.81-.39-1.64-.74-2.43-1.18a1.78,1.78,0,0,0-1.93,0c-.86.5-1.81.84-2.72,1.26l-3.39,1.58ZM117.83,405l3-1.35-6.7-3.07a.83.83,0,0,0-.62,0c-.8.35-1.58.74-2.36,1.11l-3.79,1.68c2.33,1.07,4.5,2.07,6.68,3.05a.94.94,0,0,0,.7,0C115.8,406,116.81,405.51,117.83,405Zm2.84,4.41c2.64,1.51,2.64,1.51,5.3.28l1-.46,3-1.4c-2-.94-4-1.84-6-2.72a1,1,0,0,0-.69-.08c-.84.36-1.66.78-2.49,1.18l-3.74,1.64Zm-32.46,2.79a3.06,3.06,0,0,0,.3.2c2.09,1,4.18,1.94,6.28,2.87a1.11,1.11,0,0,0,.82,0c1.85-.83,3.69-1.68,5.53-2.53l1-.51c-2.23-1-4.36-2-6.51-3a1.36,1.36,0,0,0-1,0C92.56,410.22,90.43,411.21,88.21,412.23Zm4.27-4.48c-2.25-1.05-4.33-2-6.42-3a1,1,0,0,0-.69,0c-2.23,1-4.45,2-6.78,3.11l4.22,1.94a7,7,0,0,0,2.53,1.06,7,7,0,0,0,2.61-1C89.42,409.19,90.88,408.5,92.48,407.75Zm5.45,0c2.3,1.06,4.43,2.06,6.57,3a1.27,1.27,0,0,0,.9,0c1.42-.62,2.82-1.29,4.23-1.94l2.06-.94c-2.29-1.05-4.47-2.06-6.65-3a.92.92,0,0,0-.63,0C102.29,405.75,100.19,406.72,97.93,407.76Zm-9.51-4.41c1.91.89,3.72,1.67,5.47,2.57a2.58,2.58,0,0,0,2.63,0c1.72-.9,3.52-1.66,5.42-2.54-2.3-1.06-4.45-2.05-6.61-3a1,1,0,0,0-.7.12C92.6,401.42,90.58,402.36,88.42,403.35Zm-5.44,0c-2.06-.95-4-1.85-5.88-2.7a1.41,1.41,0,0,0-.95,0c-2.06.91-4.1,1.85-6.15,2.79a3,3,0,0,0-.45.29c1.66.76,3.26,1.42,4.77,2.23a2.93,2.93,0,0,0,3.06,0C79.16,405,81,404.24,83,403.34Zm9.34,13.46c-.06-.08-.08-.13-.12-.15-2.18-1-4.35-2-6.53-3a.67.67,0,0,0-.48,0l-6.07,2.78a1.36,1.36,0,0,0,.11.14l6.54,3a.69.69,0,0,0,.47,0Zm-22.87-4.73c1.84.84,3.6,1.58,5.28,2.46a2.89,2.89,0,0,0,3,0c1.55-.84,3.2-1.51,4.9-2.3-2.25-1-4.37-2-6.51-3a.81.81,0,0,0-.61,0C73.55,410.18,71.56,411.1,69.45,412.07Zm22.92-13c-1.7-.79-3.31-1.46-4.85-2.27a2.85,2.85,0,0,0-3,0c-1.64.89-3.37,1.59-5.19,2.43,2.12,1,4.1,1.92,6.1,2.81a1.07,1.07,0,0,0,.77-.11C88.22,401,90.22,400,92.37,399Zm-19.23,8.84c-2.08-.95-4-1.85-6-2.71a1,1,0,0,0-.76-.07c-2,.89-4,1.81-6.09,2.78l6.21,2.86a.56.56,0,0,0,.42,0Z"/><path class="cls-38" d="M102.7,462.28c-.66-.81-.89-.87-1.85-.43-1.74.79-3.46,1.61-5.2,2.38a1.27,1.27,0,0,1-.9,0c-11.44-5.24-22.87-10.5-34.41-15.8l4.23-2c4.85-2.23,9.69-4.47,14.56-6.67a1.66,1.66,0,0,1,1.18.05q6.91,3.12,13.81,6.34a2.19,2.19,0,0,0,2,0q6.94-3.24,13.94-6.41a1.16,1.16,0,0,1,.87-.07c6.19,2.81,12.36,5.66,18.53,8.5.11.05.21.12.4.22-2.48,1.15-4.9,2.28-7.32,3.39l-13.68,6.27c-.93.43-1,.65-.9,1.71Z"/><path class="cls-39" d="M72.49,421.33c.71.77.89.8,1.89.35,1.59-.72,3.18-1.46,4.79-2.15a1.43,1.43,0,0,1,1,0q7,3.2,14,6.44a2,2,0,0,0,1.86,0q7-3.24,14-6.44a1.19,1.19,0,0,1,.88-.08q9.34,4.26,18.68,8.57s.07.07.15.14a3.21,3.21,0,0,1-.41.27q-16.86,7.76-33.73,15.51a1.19,1.19,0,0,1-1.1,0q-16.65-7.68-33.32-15.31c-.26-.12-.52-.26-.9-.46l4.84-2.24c.82-.38,1.64-.75,2.47-1.11a1.2,1.2,0,0,0,.8-1.62Z"/><path class="cls-40" d="M98.63,396.11c-1.08.51-2.16,1-3.25,1.52a.72.72,0,0,1-.54,0c-2.49-1.14-5-2.3-7.46-3.46l3.27-1.54a1.26,1.26,0,0,0,1.78.61Z"/><path class="cls-41" d="M88.21,412.23c2.22-1,4.35-2,6.5-3a1.36,1.36,0,0,1,1,0c2.15,1,4.28,2,6.51,3l-1,.51c-1.84.85-3.68,1.7-5.53,2.53a1.11,1.11,0,0,1-.82,0c-2.1-.93-4.19-1.9-6.28-2.87A3.06,3.06,0,0,1,88.21,412.23Z"/><path class="cls-41" d="M92.48,407.75c-1.6.75-3.06,1.44-4.53,2.11a7,7,0,0,1-2.61,1,7,7,0,0,1-2.53-1.06l-4.22-1.94c2.33-1.08,4.55-2.1,6.78-3.11a1,1,0,0,1,.69,0C88.15,405.73,90.23,406.7,92.48,407.75Z"/><path class="cls-41" d="M97.93,407.76c2.26-1,4.36-2,6.48-3a.92.92,0,0,1,.63,0c2.18,1,4.36,2,6.65,3l-2.06.94c-1.41.65-2.81,1.32-4.23,1.94a1.27,1.27,0,0,1-.9,0C102.36,409.82,100.23,408.82,97.93,407.76Z"/><path class="cls-41" d="M88.42,403.35c2.16-1,4.18-1.93,6.21-2.84a1,1,0,0,1,.7-.12c2.16,1,4.31,2,6.61,3-1.9.88-3.7,1.64-5.42,2.54a2.58,2.58,0,0,1-2.63,0C92.14,405,90.33,404.24,88.42,403.35Z"/><path class="cls-41" d="M83,403.34c-2,.9-3.82,1.68-5.6,2.62a2.93,2.93,0,0,1-3.06,0c-1.51-.81-3.11-1.47-4.77-2.23a3,3,0,0,1,.45-.29c2-.94,4.09-1.88,6.15-2.79a1.41,1.41,0,0,1,.95,0C79,401.49,80.92,402.39,83,403.34Z"/><path class="cls-41" d="M92.32,416.8l-6.08,2.77a.69.69,0,0,1-.47,0l-6.54-3a1.36,1.36,0,0,1-.11-.14l6.07-2.78a.67.67,0,0,1,.48,0c2.18,1,4.35,2,6.53,3C92.24,416.67,92.26,416.72,92.32,416.8Z"/><path class="cls-42" d="M69.45,412.07c2.11-1,4.1-1.89,6.11-2.79a.81.81,0,0,1,.61,0c2.14,1,4.26,2,6.51,3-1.7.79-3.35,1.46-4.9,2.3a2.89,2.89,0,0,1-3,0C73.05,413.65,71.29,412.91,69.45,412.07Z"/><path class="cls-41" d="M92.37,399c-2.15,1-4.15,1.92-6.15,2.82a1.07,1.07,0,0,1-.77.11c-2-.89-4-1.82-6.1-2.81,1.82-.84,3.55-1.54,5.19-2.43a2.85,2.85,0,0,1,3,0C89.06,397.57,90.67,398.24,92.37,399Z"/><path class="cls-42" d="M73.14,407.87,67,410.7a.56.56,0,0,1-.42,0l-6.21-2.86c2.1-1,4.09-1.89,6.09-2.78a1,1,0,0,1,.76.07C69.13,406,71.06,406.92,73.14,407.87Z"/><path class="cls-43" d="M120.83,406.24c.83-.4,1.65-.82,2.49-1.18a1,1,0,0,1,.69.08c2,.88,3.91,1.78,6,2.72l-3,1.4-1,.46c-2.66,1.23-2.66,1.23-5.3-.28l3.62-1.44-.05-.22Z"/><path class="cls-41" d="M117.83,405c-1,.48-2,1-3.06,1.42a.94.94,0,0,1-.7,0c-2.18-1-4.35-2-6.68-3.05l3.79-1.68c1.6.76,3.21,1.5,4.8,2.28C116.61,404.31,117.21,404.68,117.83,405Z"/><path class="cls-42" d="M101.49,418.35l-3.63-1.59,3.39-1.58c.91-.42,1.86-.76,2.72-1.26a1.78,1.78,0,0,1,1.93,0c.79.44,1.62.79,2.43,1.18-.87.44-1.71.91-2.59,1.32C104.33,417.1,102.91,417.71,101.49,418.35Z"/><path class="cls-41" d="M108.16,400.51c-1.06.5-2.11,1-3.18,1.49a1,1,0,0,1-.75-.05c-2.09-.94-4.18-1.91-6.41-2.94l3.83-1.68,2.82,1.37Z"/><path class="cls-41" d="M111.14,413.82l-3.53-1.56c2.28-1,4.42-2,6.57-3a.64.64,0,0,1,.47,0c1.12.5,2.22,1,3.32,1.55-1.17.55-2.33,1.14-3.52,1.66S112.24,413.37,111.14,413.82Z"/><path class="cls-41" d="M92.42,422.58,88.72,421l2.67-1.25,1-.44c.94-.41,1.91-1.22,2.8-1.13,1.15.1,2.23.91,3.34,1.42a4.8,4.8,0,0,1-.86.64C95.89,421,94.15,421.79,92.42,422.58Z"/><path class="cls-43" d="M101.49,418.35c1.42-.64,2.84-1.25,4.25-1.91.88-.41,1.72-.88,2.59-1.32l3,1.33-6.87,3.14a.58.58,0,0,1-.41,0Z"/><path class="cls-43" d="M117.83,405c-.62-.35-1.22-.72-1.85-1-1.59-.78-3.2-1.52-4.8-2.28.78-.37,1.56-.76,2.36-1.11a.83.83,0,0,1,.62,0l6.7,3.07Z"/><path class="cls-43" d="M108.16,400.51l-3.69-1.81-2.82-1.37c.78-.38,1.56-.77,2.35-1.13a.65.65,0,0,1,.49,0c2.18,1,4.35,2,6.64,3Z"/><path class="cls-43" d="M111.14,413.82c1.1-.45,2.22-.87,3.31-1.36s2.35-1.11,3.52-1.66l2.88,1.25-1.51.71c-1.61.75-3.2,1.51-4.83,2.21a1.38,1.38,0,0,1-1,0C112.73,414.64,111.94,414.21,111.14,413.82Z"/><path class="cls-43" d="M92.42,422.58c1.73-.79,3.47-1.57,5.2-2.38a4.8,4.8,0,0,0,.86-.64l3.08,1.37c-2.1,1-4,1.88-6,2.77a1,1,0,0,1-.71,0C94,423.37,93.22,423,92.42,422.58Z"/><path class="cls-43" d="M98.63,396.11l-6.2-2.86c.82-.41,1.64-.84,2.47-1.24a.67.67,0,0,1,.48,0c2,.91,4,1.84,6.2,2.84Z"/><path class="cls-41" d="M120.83,406.24l3.41,1.54.05.22-3.62,1.44-3.58-1.56Z"/><path class="cls-44" d="M338.16,206.32v54.34c-.13,0-.15.13-.19.24a6.57,6.57,0,0,1-6.85,4.9h-24c-1.49,0-1.49,0-1.44,1.49a6.29,6.29,0,0,0,6.18,6.14c4,0,7.94,0,11.9.05a6.52,6.52,0,0,1,6.63,6.4,1.32,1.32,0,0,1-1.22,1.41,4.9,4.9,0,0,1-.94,0H259.76c-1.95,0-2.48-.65-2.07-2.55a6.52,6.52,0,0,1,6.6-5.3c3.88,0,7.76-.12,11.64,0a6.46,6.46,0,0,0,6.38-6.42c0-1.25,0-1.25-1.18-1.25-8.08,0-16.16,0-24.24,0a6.82,6.82,0,0,1-7.1-7c.1-17,0-33.93.05-50.89a7.87,7.87,0,0,1,.09-1.54,6.52,6.52,0,0,1,6.75-5.33H314.9c5.52,0,11,0,16.56,0a6.58,6.58,0,0,1,6.48,4.7C338,205.92,337.86,206.21,338.16,206.32Zm-41.91,67.23h9.55a9.26,9.26,0,0,1-2.74-7c0-.72-.24-.82-.87-.82-5.45,0-10.9,0-16.35,0a1.32,1.32,0,0,0-.76.08c-.23.24-.11.54-.12.82a11.28,11.28,0,0,1-.59,3.54,11,11,0,0,1-2,3.18,1.38,1.38,0,0,0,.89.13H291c1.2,0,1.45.18,1.79,1.29-.35,1.12-.64,1.31-2,1.31h-26a6.92,6.92,0,0,0-1.37.06,3.37,3.37,0,0,0-2.84,2.4c.28.3.65.14,1,.14h61.55c1.29,0,2.58,0,3.88,0,.67,0,.66-.24.38-.7a3.61,3.61,0,0,0-2.82-1.89c-1.26-.09-2.53-.09-3.79-.09l-24.48,0c-.64-.16-.83-.68-1-1.24A1.49,1.49,0,0,1,296.25,273.55ZM252.48,255.5c0,1.37-.1,2.75,0,4.11a3.72,3.72,0,0,0,3.42,3.47,3.25,3.25,0,0,0,1.28.11h72.1c.95,0,1.9,0,2.84-.08a3.78,3.78,0,0,0,3.49-3.8c0-1,0-2,0-2.93,0-.77-.15-1-1-1q-40.67,0-81.34,0C253,255.4,252.73,255.29,252.48,255.5Zm79.14-2.76c1,0,2.07-.05,3.1,0,.7,0,.87-.22.87-.89,0-3.61,0-7.23,0-10.85v-33.1a3.91,3.91,0,0,0-3-4.1,8,8,0,0,0-2.4-.05c-.28,0-.57,0-.86,0H256.47a4.33,4.33,0,0,0-1.19.11,4,4,0,0,0-2.85,4.13v43.64c0,1.16,0,1.16,1.14,1.16h78.05Z"/><path class="cls-45" d="M331.62,252.74H253.57c-1.14,0-1.14,0-1.14-1.16V208a4,4,0,0,1,2.85-4.13,4.33,4.33,0,0,1,1.19-.11h72.87c.29,0,.58,0,.86,0,1.44,1.62,1.44,3.57,1.44,5.58Q331.6,231,331.62,252.74Z"/><path class="cls-46" d="M255.87,263.08a3.72,3.72,0,0,1-3.42-3.47c-.07-1.36,0-2.74,0-4.11l1.12,0h76.73c.23,0,.46,0,.69,0,.42,0,.62.12.62.58,0,1.29,0,2.59,0,3.88a2.9,2.9,0,0,1-3.16,3.06H257.24Z"/><path class="cls-47" d="M331.62,252.74q0-21.7,0-43.4c0-2,0-4-1.44-5.58a8,8,0,0,1,2.4.05,3.91,3.91,0,0,1,3,4.1V241c0,3.62,0,7.24,0,10.85,0,.67-.17.93-.87.89C333.69,252.69,332.66,252.74,331.62,252.74Z"/><path class="cls-46" d="M295.24,274.81c.16.56.35,1.08,1,1.24.32.29.72.16,1.07.16,8,0,16,0,24,0a2.12,2.12,0,0,1,2.13,1.36c.49,1,.49,1-.62,1H260.55a3.37,3.37,0,0,1,2.84-2.4,6.92,6.92,0,0,1,1.37-.06h26c1.33,0,1.62-.19,2-1.31Z"/><path class="cls-48" d="M295.24,274.81h-2.49c-.34-1.11-.59-1.29-1.79-1.29h-7.68a1.38,1.38,0,0,1-.89-.13,11,11,0,0,0,2-3.18,11.28,11.28,0,0,0,.59-3.54c0-.28-.11-.58.12-.82h1.38c4,0,7.93,0,11.9,0,.63,0,.89.16.83.82a5.72,5.72,0,0,0,.06,1.37,7.93,7.93,0,0,0,3.25,5.38c-1.55,0-2.88,0-4.22,0a5,5,0,0,0-2,.13A1.49,1.49,0,0,0,295.24,274.81Z"/><path class="cls-49" d="M255.87,263.08l1.37,0h71.22a2.9,2.9,0,0,0,3.16-3.06c.05-1.29,0-2.59,0-3.88,0-.46-.2-.62-.62-.58-.23,0-.46,0-.69,0H253.6l-1.12,0c.25-.21.55-.1.82-.1q40.68,0,81.34,0c.81,0,1,.23,1,1-.06,1,0,1.95,0,2.93a3.78,3.78,0,0,1-3.49,3.8c-.94.09-1.89.08-2.84.08h-72.1A3.25,3.25,0,0,1,255.87,263.08Z"/><path class="cls-50" d="M296.25,273.55a5,5,0,0,1,2-.13c1.34,0,2.67,0,4.22,0a7.93,7.93,0,0,1-3.25-5.38,5.72,5.72,0,0,1-.06-1.37c.06-.66-.2-.82-.83-.82-4,0-7.93,0-11.9,0h-1.38a1.32,1.32,0,0,1,.76-.08c5.45,0,10.9,0,16.35,0,.63,0,.9.1.87.82a9.26,9.26,0,0,0,2.74,7Z"/><path class="cls-51" d="M260.55,278.59h62.22c1.11,0,1.11,0,.62-1a2.12,2.12,0,0,0-2.13-1.36c-8,.05-16,0-24,0-.35,0-.75.13-1.07-.16l24.48,0c1.26,0,2.53,0,3.79.09a3.61,3.61,0,0,1,2.82,1.89c.28.46.29.71-.38.7-1.3,0-2.59,0-3.88,0H261.51C261.2,278.73,260.83,278.89,260.55,278.59Z"/></svg>