<?xml version="1.0" encoding="utf-8"?>
<!-- Generator: Adobe Illustrator 24.0.2, SVG Export Plug-In . SVG Version: 6.00 Build 0)  -->
<svg version="1.1" id="Layer_1" xmlns="http://www.w3.org/2000/svg" xmlns:xlink="http://www.w3.org/1999/xlink" x="0px" y="0px"
	 viewBox="0 0 142 142" style="enable-background:new 0 0 142 142;" xml:space="preserve">
<style type="text/css">
	.st0{fill:#FFFFFF;}
	.st1{fill:#08099C;}
	.st2{fill:#51C7D9;}
	.st3{fill:#C7124D;}
</style>
<circle class="st0" cx="70.6" cy="71" r="53"/>
<path class="st1" d="M127.7,87.7c0.1-0.4,0.2-0.8,0.3-1.2c0.5-1.8,0.9-3.7,1.2-5.6l-5.4-1.3c0.3-1.7,0.5-3.3,0.6-5l5.5,0.1
	c0.2-2.3,0.2-4.6,0-6.9l-5.5-0.1c-0.1-1.6-0.3-3.2-0.5-4.7l5.4-1.1c-0.4-2.3-0.8-4.5-1.4-6.7l-5.4,1.1c-0.4-1.4-0.9-2.9-1.4-4.3
	l5-2.2c-0.8-2.2-1.8-4.2-2.9-6.3l-5,2.2c-0.8-1.4-1.6-2.8-2.4-4.1l4.4-3.3c-1.3-1.9-2.6-3.8-4.1-5.5l-4.4,3.3
	c-1-1.2-2.1-2.4-3.3-3.5l3.6-4.2c-1.6-1.6-3.4-3.1-5.2-4.5l-3.6,4.2c-1.3-1-2.7-1.9-4.1-2.8l2.6-4.9c-1.9-1.2-4-2.3-6.1-3.2L93,22.1
	c-1.5-0.7-3-1.3-4.6-1.8l1.4-5.3c-1.1-0.4-2.2-0.7-3.3-1c-1.1-0.3-2.2-0.6-3.3-0.8l-1.4,5.3c-1.6-0.3-3.3-0.6-4.9-0.8l0.2-5.5
	c-2.3-0.3-4.6-0.3-6.9-0.3L70,17.4c-1.9,0-3.8,0.2-5.7,0.4l-1.1-5.4c-2.3,0.3-4.6,0.7-6.8,1.3l1.1,5.4c-1.9,0.5-3.7,1.1-5.6,1.8
	l-2.3-5c-2.2,0.8-4.2,1.8-6.3,2.9l2.3,5c-1.7,0.9-3.3,1.8-4.8,2.9l-3.4-4.3c-1.9,1.3-3.7,2.7-5.4,4.2l3.4,4.3
	c-1.2,1.1-2.3,2.2-3.4,3.3l-4.3-3.5c-1.6,1.7-3,3.4-4.4,5.3l4.3,3.4c-0.9,1.3-1.8,2.6-2.6,3.9L20,41c-1.2,2-2.2,4-3.1,6.1l5,2.4
	c-0.6,1.4-1.2,2.9-1.7,4.3l-5.3-1.3c-0.3,0.9-0.6,1.9-0.8,2.8c-0.3,1.3-0.7,2.6-0.9,3.8l5.3,1.3c-0.3,1.7-0.6,3.4-0.8,5.1l-5.5-0.1
	c-0.2,2.3-0.3,4.6-0.2,6.9l5.5,0.1c0,1.7,0.2,3.3,0.4,4.9l-5.4,1.1c0.3,2.3,0.7,4.6,1.3,6.8l5.4-1.1c0.4,1.6,0.9,3.1,1.4,4.6l-5,2.2
	c0.8,2.2,1.7,4.3,2.7,6.3l5-2.2c0.8,1.5,1.6,3,2.5,4.4l-4.4,3.3c1.2,1.9,2.6,3.8,4,5.6l4.4-3.3c1.1,1.3,2.3,2.6,3.5,3.8l-3.6,4.2
	c1.6,1.6,3.4,3.1,5.2,4.5l3.6-4.2c1.4,1.1,2.9,2.1,4.5,3.1l-2.6,4.9c1.9,1.2,4,2.3,6.1,3.2l2.6-4.9c1.5,0.7,3.1,1.3,4.7,1.8
	l-1.4,5.3c1.1,0.4,2.2,0.7,3.3,1c1.1,0.3,2.2,0.6,3.3,0.8l1.4-5.3c1.9,0.4,3.7,0.7,5.6,0.9l-0.2,5.5c2.3,0.2,4.6,0.3,6.9,0.2
	l0.2-5.5c2-0.1,4-0.3,6-0.6l1.1,5.4c2.3-0.3,4.5-0.8,6.7-1.4l-1.1-5.4c2-0.6,3.9-1.2,5.8-2l2.3,5c2.1-0.9,4.2-1.9,6.2-3l-2.4-5
	c1.7-1,3.3-2,4.9-3.2l3.4,4.3c1.9-1.4,3.6-2.8,5.3-4.4l-3.4-4.3c1.2-1.1,2.4-2.3,3.4-3.5l4.3,3.4c1.5-1.7,2.9-3.5,4.2-5.4l-4.3-3.4
	c0.9-1.3,1.7-2.7,2.5-4.1l4.9,2.4c1.1-2,2.1-4.1,2.9-6.2l-5-2.4c0.6-1.4,1.1-2.9,1.5-4.4L127.7,87.7z M121.4,86.1
	c-0.4,1.4-0.9,2.8-1.4,4.2c-0.9,2.2-1.8,4.3-2.9,6.2c-0.8,1.4-1.6,2.6-2.4,3.9c-1.3,1.9-2.7,3.7-4.2,5.4c-1.1,1.2-2.1,2.3-3.3,3.4
	c-1.7,1.6-3.5,3.1-5.3,4.4c-1.5,1.1-3.1,2.1-4.7,3c-2,1.1-4.1,2.1-6.2,3c-1.8,0.8-3.7,1.4-5.6,1.9c-2.2,0.6-4.4,1.1-6.7,1.4
	c-1.9,0.3-3.8,0.4-5.8,0.5c-2.3,0.1-4.6,0-6.9-0.3c-1.8-0.2-3.6-0.4-5.4-0.8c-1.1-0.2-2.1-0.5-3.2-0.8c-1.2-0.3-2.3-0.7-3.5-1.1
	c-1.5-0.5-3-1.1-4.4-1.8c-2.1-1-4.2-2.1-6.1-3.3c-1.5-0.9-2.9-1.9-4.2-2.9c-1.8-1.4-3.6-2.9-5.2-4.6c-1.2-1.2-2.3-2.4-3.3-3.6
	c-1.5-1.8-2.8-3.6-4-5.6c-0.9-1.4-1.6-2.8-2.4-4.2c-1-2.1-1.9-4.2-2.7-6.3c-0.5-1.4-0.9-2.8-1.3-4.3c-0.6-2.2-1-4.5-1.3-6.8
	c-0.2-1.6-0.3-3.1-0.3-4.7c-0.1-2.3,0-4.6,0.3-6.9c0.2-1.6,0.4-3.2,0.7-4.8c0.2-1.2,0.5-2.4,0.8-3.6c0.3-1,0.6-2.1,0.9-3.1
	c0.5-1.4,1-2.8,1.6-4.1c0.9-2.1,2-4.2,3.2-6.1c0.8-1.3,1.6-2.5,2.5-3.7c1.3-1.9,2.8-3.7,4.4-5.3c1-1.1,2.1-2.1,3.2-3.1
	c1.7-1.5,3.5-2.9,5.4-4.2c1.5-1,3-1.9,4.5-2.8c2-1.1,4.1-2,6.3-2.9c1.7-0.7,3.5-1.2,5.3-1.7c2.2-0.6,4.5-1,6.8-1.3
	c1.8-0.2,3.6-0.4,5.3-0.4c2.3-0.1,4.6,0,6.9,0.3c1.5,0.2,3.1,0.4,4.6,0.7c1.2,0.2,2.4,0.5,3.5,0.8c1.1,0.3,2.1,0.6,3.1,1
	c1.5,0.5,3,1.1,4.4,1.7c2.1,0.9,4.2,2,6.1,3.2c1.4,0.8,2.7,1.7,3.9,2.7c1.9,1.4,3.6,2.9,5.2,4.5c1.1,1.1,2.1,2.2,3.1,3.3
	c1.5,1.8,2.9,3.6,4.1,5.5c0.8,1.3,1.6,2.6,2.3,3.9c1.1,2,2.1,4.1,2.9,6.3c0.5,1.3,0.9,2.7,1.4,4c0.6,2.2,1.1,4.4,1.5,6.7
	c0.2,1.5,0.4,3,0.5,4.5c0.1,2.3,0.1,4.6,0,6.9c-0.1,1.6-0.3,3.2-0.6,4.8c-0.3,1.8-0.7,3.7-1.2,5.5C121.6,85.3,121.5,85.7,121.4,86.1
	z"/>
<g>
	<path d="M26,88.1c-0.3-0.6-0.6-1.3-0.8-2.1c-0.4-1.4-0.4-2.6,0-3.4c0.4-0.9,1.2-1.6,2.4-1.9c1.3-0.4,2.4-0.3,3.3,0.2
		c0.9,0.5,1.7,1.6,2.2,3.1c0.2,0.7,0.4,1.3,0.5,1.8L26,88.1z M32.5,85c0-0.3-0.1-0.6-0.3-1c-0.7-2.1-2.2-2.9-4.3-2.3
		c-1.8,0.6-2.7,1.9-2,4.1c0.2,0.5,0.3,0.9,0.5,1.1L32.5,85z"/>
	<path d="M23.3,78.3l3.4-0.4L26.3,74l-3.4,0.4l-0.1-1.1l8-0.9l0.1,1.1l-3.8,0.4l0.4,3.9l3.8-0.4l0.1,1l-8,0.9L23.3,78.3z"/>
	<path d="M28.4,69.5l2.5,1l-0.1,1.1l-7.9-3.3L23,67l8.3-2.2l-0.1,1.1l-2.6,0.7L28.4,69.5z M27.7,66.8l-2.4,0.6
		c-0.5,0.1-1,0.2-1.5,0.3v0c0.5,0.2,1,0.3,1.4,0.5l2.3,0.9L27.7,66.8z"/>
	<path d="M23.6,62.1l0.2-1l3.8,0.9l0,0c-0.3-0.3-0.5-0.6-0.7-0.8L24.6,58l0.3-1.3l2.7,3.7l5.3-2l-0.3,1.2L28,61.3l0.7,0.9l3,0.7
		l-0.2,1L23.6,62.1z"/>
	<path d="M31.2,55.7l2,1.8l-0.4,1l-6.4-5.7l0.5-1.2l8.5,0.6l-0.4,1L32.3,53L31.2,55.7z M31.5,52.9L29,52.7c-0.6,0-1-0.1-1.5-0.2l0,0
		c0.4,0.3,0.8,0.6,1.2,0.9l1.8,1.7L31.5,52.9z"/>
	<path d="M30.7,44.7c0.2-0.5,0.6-1,1.1-1.7c0.6-0.8,1.2-1.3,1.9-1.4c0.6-0.1,1.2,0,1.8,0.4c0.6,0.4,0.9,0.9,1,1.5
		c0.2,0.8-0.1,1.7-0.7,2.5c-0.2,0.3-0.4,0.5-0.6,0.6l2.6,1.9l-0.6,0.8L30.7,44.7z M34.5,46.2c0.2-0.2,0.4-0.4,0.6-0.7
		c0.7-1,0.7-2-0.2-2.7c-0.9-0.6-1.7-0.3-2.4,0.6c-0.3,0.4-0.4,0.7-0.5,0.8L34.5,46.2z"/>
	<path d="M42.8,36.7c1.9,2,1.8,4.2,0.3,5.7c-1.5,1.5-3.8,1.3-5.5-0.4c-1.8-1.8-1.8-4.2-0.3-5.7C38.9,34.8,41.1,35,42.8,36.7z
		 M38.4,41.2c1.2,1.2,3,1.7,4.1,0.6c1.2-1.2,0.8-2.9-0.5-4.2c-1.1-1.2-2.9-1.8-4.1-0.6C36.7,38.2,37.2,39.9,38.4,41.2z"/>
	<path d="M42,32.5l0.9-0.6l4.1,5.9l2.8-2l0.5,0.7l-3.7,2.6L42,32.5z"/>
	<path d="M51.8,35.8l-1.6-3l-4.4-2.9l1.1-0.5l2.1,1.4c0.6,0.4,1,0.7,1.5,1.1l0,0c0-0.6-0.1-1.2-0.1-1.9l0-2.5l1.1-0.5l-0.2,5.4
		l1.6,3.1L51.8,35.8z"/>
	<path d="M55.2,26.4l-2.3,0.8l-0.3-0.8l5.7-1.9l0.3,0.8l-2.3,0.8l2.3,6.8l-1,0.3L55.2,26.4z"/>
	<path d="M64.9,27.5l-3.1,0.6l0.6,2.9l3.4-0.7l0.2,0.9L61.5,32L60,24l4.3-0.8l0.2,0.9l-3.3,0.6l0.5,2.5l3.1-0.6L64.9,27.5z"/>
	<path d="M72.7,30.6c-0.4,0.2-1.1,0.4-2.1,0.5c-2.3,0.1-4.1-1.3-4.1-4c-0.1-2.5,1.6-4.3,4.1-4.4c1,0,1.7,0.2,1.9,0.3l-0.2,0.9
		c-0.4-0.2-1-0.3-1.6-0.3c-1.9,0.1-3.1,1.3-3,3.5c0.1,2,1.3,3.2,3.2,3.1c0.6,0,1.3-0.2,1.7-0.4L72.7,30.6z"/>
	<path d="M75.8,23l-0.5,3.3l3.9,0.5l0.5-3.3l1,0.2l-1.1,8l-1-0.2l0.5-3.8l-3.9-0.5L74.7,31l-1-0.2l1.1-8L75.8,23z"/>
	<path d="M81,32.1l2.6-7.7l1.1,0.4l1.1,4.7c0.3,1.1,0.4,2.1,0.5,3h0c0.3-1.1,0.6-2,1-3.2l1.1-3.2l0.9,0.3L86.8,34l-1-0.3L84.7,29
		c-0.2-1-0.5-2.1-0.6-3h0c-0.3,1-0.6,1.9-1,3.2L82,32.4L81,32.1z"/>
	<path d="M92.7,28l-3.6,7.3l-0.9-0.5l3.6-7.3L92.7,28z"/>
	<path d="M95.5,38.7c-0.4-0.1-1.2-0.3-2-0.8c-1.9-1.2-2.6-3.4-1.2-5.6c1.4-2.1,3.7-2.6,5.8-1.3c0.9,0.6,1.3,1.1,1.4,1.3l-0.7,0.6
		c-0.2-0.4-0.6-0.8-1.2-1.2c-1.6-1-3.3-0.7-4.5,1.1c-1.1,1.7-0.8,3.3,0.9,4.4c0.5,0.3,1.1,0.6,1.6,0.6L95.5,38.7z"/>
	<path d="M104.2,36.1L98.7,42L98,41.3l5.5-5.9L104.2,36.1z"/>
	<path d="M99.9,43l6.2-5.2l0.7,0.9l-1.5,4.6c-0.3,1.1-0.7,2-1.1,2.8l0,0c0.8-0.8,1.5-1.4,2.5-2.2l2.6-2.2l0.6,0.8l-6.2,5.2l-0.7-0.8
		l1.5-4.6c0.3-1,0.7-2,1.1-2.9l0,0c-0.8,0.7-1.5,1.3-2.5,2.2l-2.7,2.2L99.9,43z"/>
	<path d="M105.6,48.2c0,0.6,0.1,1.3,0.5,1.9c0.5,0.9,1.3,1.2,2,0.8c0.6-0.4,0.8-1,0.6-2.1c-0.3-1.4-0.1-2.4,0.9-3
		c1.1-0.6,2.4-0.2,3.2,1.2c0.4,0.7,0.6,1.3,0.6,1.7l-0.9,0.2c0-0.3-0.1-0.9-0.4-1.5c-0.6-0.9-1.3-1-1.8-0.7c-0.6,0.4-0.7,1-0.5,2.2
		c0.2,1.4,0,2.4-1,3c-1.1,0.6-2.5,0.4-3.4-1.3c-0.4-0.7-0.6-1.5-0.6-2L105.6,48.2z"/>
	<path d="M114.6,52.6l-0.9-2.3l0.8-0.3l2.3,5.5l-0.8,0.3l-0.9-2.3l-6.7,2.7l-0.4-1L114.6,52.6z"/>
	<path d="M117.4,57.9l-7.7,2.3l-0.3-1l7.8-2.3L117.4,57.9z"/>
	<path d="M117.5,62.1l-0.4-2.4l0.9-0.2l1.1,5.9l-0.9,0.2l-0.4-2.4l-7.1,1.3l-0.2-1L117.5,62.1z"/>
	<path d="M119.2,68.3l-4.8,0.1c-1.8,0-2.6,0.8-2.6,1.9c0,1.2,0.8,2,2.6,1.9l4.8-0.1l0,1.1l-4.7,0.1c-2.5,0-3.5-1.3-3.6-3
		c0-1.7,0.9-2.9,3.4-3l4.8-0.1L119.2,68.3z"/>
	<path d="M117.9,77.4l0.4-2.4l0.9,0.1l-0.9,5.9l-0.9-0.1l0.4-2.4l-7.1-1.1l0.2-1L117.9,77.4z"/>
	<path d="M112.5,85.5l0.9-3l-2.8-0.8l-1,3.4l-0.8-0.3l1.3-4.4l7.8,2.3l-1.2,4.2l-0.8-0.3l0.9-3.2l-2.4-0.7l-0.9,3L112.5,85.5z"/>
</g>
<g>
	<path d="M43.1,99.8c0.4,0.2,1,0.6,1.6,1.1c0.8,0.7,1.2,1.3,1.3,1.9c0.1,0.5,0,1-0.4,1.5c-0.5,0.6-1.3,0.8-2.2,0.4l0,0
		c0.5,0.6,0.7,1.7-0.1,2.6c-0.4,0.5-1,0.8-1.6,0.8c-0.8,0-1.6-0.4-2.6-1.3c-0.5-0.5-0.9-0.9-1.2-1.1L43.1,99.8z M39.2,106
		c0.1,0.2,0.3,0.4,0.6,0.6c0.8,0.7,1.8,1.1,2.6,0.2c0.7-0.8,0.3-1.8-0.6-2.6l-0.7-0.6L39.2,106z M41.8,103l0.7,0.6
		c0.8,0.7,1.7,0.7,2.2,0.1c0.6-0.7,0.3-1.5-0.5-2.2c-0.4-0.3-0.6-0.5-0.8-0.6L41.8,103z"/>
	<path d="M46,109l-2.1,1.7l-0.9-0.6l6.6-5.5l1.1,0.7l-1.9,8.3l-0.9-0.6l0.6-2.6L46,109z M48.7,109.7l0.5-2.4c0.1-0.5,0.3-1,0.4-1.5
		l0,0c-0.3,0.4-0.7,0.7-1.1,1l-1.9,1.6L48.7,109.7z"/>
	<path d="M50.7,114.7l2.9-7.5l1.1,0.4l0.9,4.8c0.2,1.1,0.3,2.1,0.4,3h0c0.3-1,0.6-2,1.1-3.1l1.2-3.1l0.9,0.4l-2.9,7.5l-1-0.4
		l-0.9-4.8c-0.2-1-0.4-2.1-0.4-3.1h0c-0.3,1-0.6,1.9-1.1,3.1l-1.3,3.2L50.7,114.7z"/>
	<path d="M65.2,118.4c-0.5,0.1-1.4,0.2-2.5,0c-1.2-0.2-2.1-0.7-2.8-1.6c-0.6-0.8-0.8-1.9-0.6-3.2c0.5-2.4,2.4-3.8,5.1-3.3
		c0.9,0.2,1.6,0.5,1.9,0.7l-0.4,0.8c-0.4-0.3-0.9-0.5-1.7-0.7c-1.9-0.4-3.4,0.6-3.8,2.6c-0.4,2,0.6,3.4,2.5,3.8
		c0.7,0.1,1.2,0.1,1.4,0.1l0.4-2.4l-1.6-0.3l0.2-0.8l2.6,0.5L65.2,118.4z"/>
	<path d="M67.7,110.9l1,0l-0.3,7.2l3.5,0.1l0,0.9l-4.5-0.2L67.7,110.9z"/>
	<path d="M74.9,116.3l-0.5,2.6l-1.1,0.1l1.8-8.4l1.3-0.1l3.7,7.7l-1.1,0.1l-1.2-2.4L74.9,116.3z M77.5,115.2l-1.1-2.2
		c-0.2-0.5-0.4-1-0.6-1.4h0c-0.1,0.5-0.1,1-0.2,1.5l-0.5,2.4L77.5,115.2z"/>
	<path d="M79.8,110.2c0.6-0.3,1.3-0.6,2.1-0.8c1.4-0.4,2.6-0.4,3.4,0c0.9,0.4,1.6,1.2,1.9,2.4c0.4,1.3,0.3,2.4-0.2,3.3
		c-0.5,0.9-1.6,1.7-3.1,2.2c-0.7,0.2-1.3,0.4-1.8,0.5L79.8,110.2z M82.9,116.7c0.3,0,0.6-0.1,1-0.3c2.1-0.6,2.9-2.2,2.3-4.3
		c-0.5-1.8-1.9-2.7-4-2c-0.5,0.2-0.9,0.3-1.1,0.5L82.9,116.7z"/>
	<path d="M92.5,109.7l-2.8,1.4l1.3,2.6l3.1-1.6l0.4,0.8l-4.1,2l-3.6-7.3l3.9-1.9l0.4,0.8l-3,1.5l1.1,2.3l2.8-1.4L92.5,109.7z"/>
	<path d="M95.4,110.9c0.6,0,1.3-0.2,1.8-0.6c0.9-0.6,1.1-1.4,0.6-2.1c-0.4-0.6-1-0.7-2.2-0.5c-1.4,0.4-2.4,0.3-3.1-0.7
		c-0.7-1-0.4-2.4,0.9-3.3c0.7-0.5,1.3-0.6,1.7-0.7l0.2,0.9c-0.3,0-0.9,0.1-1.5,0.6c-0.9,0.6-0.9,1.4-0.6,1.9c0.4,0.6,1,0.7,2.2,0.4
		c1.4-0.3,2.4-0.2,3,0.8c0.7,1,0.5,2.4-1,3.5c-0.6,0.4-1.5,0.7-2,0.7L95.4,110.9z"/>
	<path d="M97,101.4l2.3,2.5l2.9-2.7l-2.3-2.5l0.8-0.7l5.6,5.9l-0.8,0.7l-2.6-2.8l-2.9,2.7l2.6,2.8l-0.8,0.7l-5.6-5.9L97,101.4z"/>
</g>
<g>
	<path d="M29.8,92.9L29.8,92.9l-1,0.5l-0.2-0.6l1.3-0.7h0.7V98h-0.8L29.8,92.9L29.8,92.9z"/>
	<path d="M33.1,97.4c0.2,0,0.4,0,0.6,0c0.4-0.1,0.9-0.3,1.2-0.6c0.4-0.4,0.7-0.9,0.8-1.5h0c-0.3,0.4-0.8,0.6-1.4,0.6
		c-1,0-1.7-0.8-1.7-1.8c0-1.1,0.8-2.1,2-2.1s1.9,1,1.9,2.4c0,1.3-0.4,2.1-1,2.7c-0.4,0.4-1.1,0.7-1.7,0.8c-0.3,0-0.5,0.1-0.7,0
		C33.1,98.1,33.1,97.4,33.1,97.4z M33.4,94.1c0,0.7,0.4,1.2,1.1,1.2c0.5,0,0.9-0.3,1.1-0.6c0-0.1,0.1-0.2,0.1-0.3
		c0-1-0.4-1.7-1.2-1.7C33.9,92.7,33.4,93.3,33.4,94.1z"/>
</g>
<g>
	<path d="M108.7,92.9h-2.1l-0.2,1.4c0.1,0,0.2,0,0.4,0c0.4,0,0.8,0.1,1.2,0.3c0.4,0.2,0.8,0.7,0.8,1.4c0,1.1-0.8,1.8-2,1.8
		c-0.6,0-1.1-0.2-1.3-0.3l0.2-0.6c0.2,0.1,0.7,0.3,1.1,0.3c0.7,0,1.3-0.4,1.3-1.2c0-0.7-0.5-1.2-1.5-1.2c-0.3,0-0.5,0-0.7,0.1
		l0.4-2.6h2.6L108.7,92.9L108.7,92.9z"/>
	<path d="M113,92.9h-2.1l-0.2,1.4c0.1,0,0.2,0,0.4,0c0.4,0,0.8,0.1,1.2,0.3c0.4,0.2,0.8,0.7,0.8,1.4c0,1.1-0.8,1.8-2,1.8
		c-0.6,0-1.1-0.2-1.3-0.3l0.2-0.6c0.2,0.1,0.7,0.3,1.1,0.3c0.7,0,1.3-0.4,1.3-1.2c0-0.7-0.5-1.2-1.5-1.2c-0.3,0-0.5,0-0.7,0.1
		l0.4-2.6h2.6L113,92.9L113,92.9z"/>
</g>
<circle class="st0" cx="71.2" cy="71" r="37.7"/>
<g>
	<path class="st2" d="M104.8,87.3c-6.2,12.4-19.1,20.9-33.8,20.9c-14.8,0-27.6-8.5-33.8-20.9L104.8,87.3z"/>
	<path class="st0" d="M70.6,106.4L70.6,106.4c-1.5,0-2.8-1.2-2.8-2.8V90h5.7v13.5C73.5,105.1,72.2,106.4,70.6,106.4z"/>
	<path class="st0" d="M96.6,91.3H76.1c-0.4,0-0.7-0.3-0.7-0.7l0,0c0-0.4,0.3-0.7,0.7-0.7h20.6c0.4,0,0.7,0.3,0.7,0.7l0,0
		C97.3,91,97,91.3,96.6,91.3z"/>
	<path class="st0" d="M91.8,97.1H75.9c-0.3,0-0.5-0.2-0.5-0.5v-0.3c0-0.3,0.2-0.5,0.5-0.5h15.9c0.3,0,0.5,0.2,0.5,0.5v0.3
		C92.4,96.9,92.1,97.1,91.8,97.1z"/>
	<path class="st0" d="M86.7,102.6H76.1c-0.4,0-0.7-0.3-0.7-0.7l0,0c0-0.4,0.3-0.7,0.7-0.7h10.6c0.4,0,0.7,0.3,0.7,0.7l0,0
		C87.3,102.3,87,102.6,86.7,102.6z"/>
	<path class="st0" d="M44.6,91.2h20.6c0.4,0,0.7-0.3,0.7-0.7l0,0c0-0.4-0.3-0.7-0.7-0.7H44.6c-0.4,0-0.7,0.3-0.7,0.7l0,0
		C43.9,90.9,44.2,91.2,44.6,91.2z"/>
	<path class="st0" d="M49.4,97h15.9c0.3,0,0.5-0.2,0.5-0.5v-0.3c0-0.3-0.2-0.5-0.5-0.5H49.4c-0.3,0-0.5,0.2-0.5,0.5v0.3
		C48.9,96.7,49.1,97,49.4,97z"/>
	<path class="st0" d="M54.6,102.5h10.6c0.4,0,0.7-0.3,0.7-0.7l0,0c0-0.4-0.3-0.7-0.7-0.7H54.6c-0.4,0-0.7,0.3-0.7,0.7l0,0
		C53.9,102.2,54.2,102.5,54.6,102.5z"/>
</g>
<rect x="76.3" y="63" class="st3" width="6.6" height="11.3"/>
<rect x="88.3" y="67.3" class="st3" width="8.8" height="7.1"/>
<rect x="100.6" y="71" class="st3" width="6.6" height="3.3"/>
<polygon class="st3" points="70,61.1 70,74.3 59.4,74.3 59.4,55.2 "/>
<g>
	<polygon points="49.8,47.3 76.3,63 76.3,63.4 49.8,47.7 	"/>
	<g>
		<polygon points="49.1,74.3 49.1,39.7 49.7,38.7 49.9,74.3 		"/>
		<polygon points="33.4,67.6 49.1,62.4 49.1,63 33.2,68.1 33.2,67.6 		"/>
		<polygon points="34.2,60 49.1,53.5 49.1,53.8 34.1,60.5 		"/>
		<polygon points="37.8,51.6 49.1,47.3 49.1,47.7 37.3,52 		"/>
		<rect x="38.2" y="68.5" width="5.5" height="3.6"/>
		<rect x="37.9" y="59.8" width="5.5" height="3.2"/>
		<path d="M43.4,55h-5.4v-0.6c0-1.4,1.1-2.5,2.5-2.5h2.9L43.4,55L43.4,55z"/>
		<path d="M56.6,48.2v26.1h-0.3V48c0-0.7-0.3-1.2-0.6-1.2h-0.2c-0.3,0-0.6,0.6-0.6,1.2v26.3h-0.2V48.1c0-1,0.4-1.8,0.8-1.8h0.1
			C56.2,46.2,56.6,47.1,56.6,48.2z"/>
		<polygon points="49.8,53.5 54.8,56.5 54.8,56.8 49.8,53.8 		"/>
		<polygon points="49.8,62.4 54.8,63.9 54.8,64.4 49.8,63 		"/>
		<rect x="51.3" y="67.3" width="2.1" height="3.8"/>
		<rect x="51.5" y="58.5" width="1.7" height="2.3"/>
		<rect x="51.3" y="51.3" width="1.8" height="1.8"/>
	</g>
</g>
<g>
	<g>
		<path d="M101.7,49.9l-6,0.9l-0.1-0.2l-1.2-2.2L85,50l-3.1-1.4V45c0,0-1.1-1.7-3.7-1.5c-2.6,0.2-2.8,1.7-2.8,1.7s0,6.7,0,7.1
			c0,0.4-0.4,0.5-0.4,0.5l-0.1,0.1c-0.7,0.4-1.7,0.6-2.7,0.6c-0.8,0-1.5-0.1-2.1-0.4c-1-0.3-0.8-0.9-0.8-1.4v-3.8
			c0-0.7,0.3-1.3-0.4-1.9c-0.6-0.5-1.7-0.9-2.9-0.9c-3.5,0.2-2.8,2.6-2.8,3.9v3.4L58.4,53v-0.3l4.1-0.5v-5.3c0-1.1,1.7-2.1,3.7-2.1
			c0.8,0,1.6,0.2,2.3,0.4c0.2,0.1,0.3,0.1,0.4,0.2c0.7,0.4,1.1,0.9,1.1,1.5V51c0,0.3,0,0.7,0,1c0,0.3-0.2,0.7,0.3,1
			c0.4,0.3,1.2,0.3,1.8,0.3c1.1,0,2-0.2,2.7-0.6c0,0,0.1-0.1,0.1-0.1v-7.2c0-0.5,0.4-1,1-1.4c0.7-0.4,1.6-0.7,2.7-0.7
			c1.1,0,2,0.2,2.7,0.6c0.7,0.4,1.1,0.9,1.1,1.5v3l2.7,1.2l6.2-1l0.1,0l0.1,0l2.8-0.5l0.4-0.1l0.1,0l1.3,2.4l5.5-0.9L101.7,49.9z"/>
		<path d="M92.3,44c-2.7,1.5-0.8,4.8-0.8,4.8l3.3-0.6L92.3,44z M92.2,44.4l2.1,3.8l-2.8,0.5C91.6,48.6,90,45.7,92.2,44.4z"/>
	</g>
	<path d="M65.7,44.8v-8.4c0,0-1.4-0.6-1.8-3.1l4.9-0.5c0,0-0.3,2.6-2.3,3.6v8.4H65.7z"/>
	<path d="M77.8,43.3v-7.3c0,0-1.4-0.2-1.5-2.8l4.2,0.8c0,0-0.5,1.8-1.7,2.1l-0.1,7.2L77.8,43.3z"/>
</g>
<g>
	<path class="st0" d="M108.5,74.2c0,0.2,0,0.3,0,0.5c0,0.5-0.1,0.9-0.1,1.4c0,0.2,0,0.3-0.1,0.5c-0.2,1.3-0.4,2.7-0.7,3.9
		c-0.1,0.3-0.2,0.7-0.3,1.1c-0.1,0.3-0.2,0.6-0.3,0.8c-0.1,0.2-0.2,0.5-0.3,0.7c-0.6,1.6-1.2,3.1-2,4.6c-0.1,0.1-0.1,0.3-0.2,0.4
		h-67c-0.1-0.1-0.2-0.3-0.2-0.4c-0.3-0.5-0.6-1.1-0.8-1.7c-0.3-0.5-0.5-1.1-0.7-1.7c-0.4-1.1-0.8-2.3-1.2-3.5
		c-0.1-0.2-0.1-0.4-0.2-0.6c-0.3-1.2-0.5-2.5-0.7-3.8c0-0.2,0-0.3-0.1-0.5c0-0.5-0.1-0.9-0.1-1.4c0-0.2,0-0.3,0-0.5L108.5,74.2
		L108.5,74.2z"/>
	<g>
		<path d="M108.4,76.1H33.7c0,0.2,0,0.3,0.1,0.5h4.5l-3.8,3.8c0,0.2,0.1,0.4,0.2,0.6l4.1-4v10.3l-2.9-2.8c0.2,0.6,0.5,1.1,0.7,1.7
			l1.7,1.7h-0.8c0.1,0.1,0.1,0.3,0.2,0.4h67c0.1-0.1,0.1-0.3,0.2-0.4h-3.7l5.2-5.1l0.5,0.5c0.1-0.2,0.2-0.5,0.3-0.7l-0.3-0.3
			l0.6-0.6c0.1-0.3,0.2-0.7,0.3-1.1l-1.2,1.2l-5.2-5.2h7.2C108.3,76.5,108.4,76.3,108.4,76.1z M99.3,76.6l-5.2,5.2l-5.2-5.2H99.3z
			 M86.9,76.6l-5.2,5.2l-5.2-5.2H86.9z M74.9,76.6l-5.2,5.2l-5.2-5.2H74.9z M62.8,76.6l-5.2,5.2l-5.2-5.2H62.8z M50.6,76.6l-5.2,5.2
			l-5.2-5.2H50.6z M39.6,77l5.3,5.2l-5.3,5.2V77z M40.1,87.8l5.2-5.1l5.2,5.1H40.1z M51,87.3l-5.2-5.2L51,77V87.3z M51.8,77l5.3,5.2
			l-5.3,5.2V77z M52.3,87.8l5.2-5.1l5.2,5.1H52.3z M63.2,87.3L58,82.1l5.2-5.2V87.3z M63.9,77l5.3,5.2l-5.3,5.2V77z M64.3,87.8
			l5.2-5.1l5.2,5.1H64.3z M75.3,87.3L70,82.1l5.2-5.2V87.3z M75.9,77l5.3,5.2l-5.3,5.2V77z M76.4,87.8l5.2-5.1l5.2,5.1H76.4z
			 M87.3,87.3l-5.2-5.2l5.2-5.2V87.3z M88.3,77l5.3,5.2l-5.3,5.2V77z M88.8,87.8l5.2-5.1l5.2,5.1H88.8z M99.7,87.3l-5.2-5.2l5.2-5.2
			V87.3z M105.9,82.3l-5.3,5.2V77L105.9,82.3z M33.6,74.2c0,0.2,0,0.3,0,0.5h74.9c0-0.2,0-0.3,0-0.5H33.6z"/>
	</g>
</g>
<path class="st3" d="M87.5,37.1c0,0,0.2,9.6,12.5,9.9l-2-3.2l-9.1-6.7H87.5z"/>
<path d="M71.2,32c-21.4,0-38.8,17.4-38.8,38.8c0,21.4,17.4,38.8,38.8,38.8c21.4,0,38.8-17.4,38.8-38.8C110,49.4,92.6,32,71.2,32z
	 M71.2,108.1c-20.6,0-37.3-16.7-37.3-37.3c0-20.6,16.7-37.3,37.3-37.3c20.6,0,37.3,16.7,37.3,37.3C108.5,91.4,91.8,108.1,71.2,108.1
	z"/>
</svg>
