<svg id="Layer_1" data-name="Layer 1" xmlns="http://www.w3.org/2000/svg" viewBox="0 0 1920 1080"><defs><style>.cls-1{fill:none;stroke:#dfe4ea;stroke-miterlimit:10;}</style></defs><polyline class="cls-1" points="-736.39 479.07 -617.06 322.52 -354.9 236.3 -216.25 55.7 42.42 -35.18 174.08 -212.28 443.23 -302 571.39 -474.44 837.05 -565.32 946.4 -722.03 1225.04 -828.64"/><polyline class="cls-1" points="-721.94 493.52 -602.6 336.98 -340.44 250.76 -201.79 70.16 56.87 -20.72 188.53 -197.82 457.68 -287.54 585.85 -459.98 851.5 -550.87 960.86 -707.58 1239.5 -814.19"/><polyline class="cls-1" points="-707.48 507.98 -588.15 351.43 -325.99 265.21 -187.34 84.61 71.33 -6.27 202.99 -183.37 472.14 -273.09 600.3 -445.53 865.96 -536.41 975.31 -693.12 1253.95 -799.73"/><polyline class="cls-1" points="-693.03 522.43 -573.69 365.89 -311.54 279.67 -172.88 99.07 85.78 8.19 217.44 -168.91 486.59 -258.63 614.76 -431.07 880.41 -521.96 989.77 -678.67 1268.41 -785.28"/><polyline class="cls-1" points="-678.57 536.89 -559.24 380.34 -297.08 294.12 -158.43 113.52 100.23 22.64 231.9 -154.46 501.05 -244.18 629.21 -416.62 894.87 -507.5 1004.22 -664.21 1282.86 -770.82"/><polyline class="cls-1" points="-664.12 551.34 -544.78 394.8 -282.63 308.58 -143.97 127.98 114.69 37.1 246.35 -140.01 515.5 -229.72 643.67 -402.16 909.32 -493.05 1018.68 -649.76 1297.32 -756.37"/><polyline class="cls-1" points="-649.66 565.8 -530.33 409.25 -268.17 323.03 -129.52 142.43 129.15 51.55 260.81 -125.55 529.96 -215.27 658.12 -387.71 923.78 -478.59 1033.13 -635.3 1311.77 -741.91"/><polyline class="cls-1" points="-635.21 580.25 -515.87 423.71 -253.72 337.49 -115.06 156.89 143.6 66.01 275.26 -111.1 544.41 -200.81 672.58 -373.25 938.23 -464.14 1047.59 -620.85 1326.22 -727.46"/><polyline class="cls-1" points="-620.75 594.71 -501.42 438.16 -239.26 351.94 -100.61 171.34 158.05 80.46 289.72 -96.64 558.87 -186.36 687.03 -358.8 952.68 -449.68 1062.04 -606.39 1340.68 -713"/><polyline class="cls-1" points="-606.3 609.16 -486.96 452.62 -224.81 366.39 -86.15 185.8 172.51 94.92 304.17 -82.19 573.32 -171.9 701.49 -344.35 967.14 -435.23 1076.5 -591.94 1355.13 -698.55"/><polyline class="cls-1" points="-591.85 623.62 -472.51 467.07 -210.35 380.85 -71.7 200.25 186.96 109.37 318.63 -67.73 587.77 -157.45 715.94 -329.89 981.6 -420.77 1090.95 -577.48 1369.59 -684.1"/><polyline class="cls-1" points="-577.39 638.07 -458.06 481.53 -195.9 395.31 -57.24 214.71 201.42 123.83 333.08 -53.28 602.23 -142.99 730.4 -315.44 996.05 -406.32 1105.41 -563.03 1384.04 -669.64"/><polyline class="cls-1" points="-562.94 652.53 -443.6 495.98 -181.44 409.76 -42.79 229.16 215.87 138.28 347.54 -38.82 616.68 -128.54 744.85 -300.98 1010.5 -391.86 1119.86 -548.58 1398.5 -655.19"/><polyline class="cls-1" points="-548.48 666.98 -429.15 510.44 -166.99 424.21 -28.34 243.62 230.33 152.74 361.99 -24.37 631.14 -114.08 759.3 -286.53 1024.96 -377.41 1134.32 -534.12 1412.95 -640.73"/><polyline class="cls-1" points="-534.03 681.44 -414.69 524.89 -152.53 438.67 -13.88 258.07 244.78 167.19 376.44 -9.91 645.59 -99.63 773.76 -272.07 1039.41 -362.95 1148.77 -519.66 1427.41 -626.28"/><polyline class="cls-1" points="-519.57 695.89 -400.24 539.35 -138.08 453.12 0.57 272.53 259.24 181.64 390.9 4.54 660.05 -85.17 788.22 -257.62 1053.87 -348.5 1163.22 -505.21 1441.86 -611.82"/><polyline class="cls-1" points="-505.12 710.35 -385.78 553.8 -123.62 467.58 15.03 286.98 273.69 196.1 405.35 19 674.5 -70.72 802.67 -243.16 1068.32 -334.04 1177.68 -490.76 1456.32 -597.37"/><polyline class="cls-1" points="-490.66 724.8 -371.33 568.25 -109.17 482.03 29.48 301.44 288.15 210.55 419.81 33.45 688.96 -56.27 817.12 -228.71 1082.78 -319.59 1192.13 -476.3 1470.77 -582.91"/><polyline class="cls-1" points="-476.21 739.25 -356.87 582.71 -94.71 496.49 43.94 315.89 302.6 225.01 434.26 47.91 703.41 -41.81 831.58 -214.25 1097.23 -305.13 1206.59 -461.85 1485.23 -568.46"/><polyline class="cls-1" points="-461.75 753.71 -342.42 597.16 -80.26 510.94 58.39 330.35 317.06 239.46 448.72 62.36 717.87 -27.36 846.03 -199.8 1111.69 -290.68 1221.04 -447.39 1499.68 -554"/><polyline class="cls-1" points="-447.3 768.16 -327.96 611.62 -65.8 525.4 72.85 344.8 331.51 253.92 463.17 76.82 732.32 -12.9 860.49 -185.34 1126.14 -276.22 1235.5 -432.94 1514.14 -539.55"/><polyline class="cls-1" points="-432.84 782.62 -313.51 626.07 -51.35 539.85 87.3 359.25 345.97 268.37 477.63 91.27 746.78 1.55 874.94 -170.89 1140.6 -261.77 1249.95 -418.48 1528.59 -525.09"/><polyline class="cls-1" points="-418.39 797.07 -299.05 640.53 -36.9 554.31 101.76 373.71 360.42 282.83 492.08 105.72 761.23 16.01 889.4 -156.43 1155.05 -247.31 1264.41 -404.03 1543.05 -510.64"/><polyline class="cls-1" points="-403.93 811.53 -284.6 654.98 -22.44 568.76 116.21 388.16 374.88 297.28 506.54 120.18 775.69 30.46 903.85 -141.98 1169.51 -232.86 1278.86 -389.57 1557.5 -496.18"/><polyline class="cls-1" points="-389.48 825.98 -270.14 669.44 -7.99 583.22 130.67 402.62 389.33 311.74 520.99 134.63 790.14 44.92 918.31 -127.52 1183.96 -218.41 1293.32 -375.12 1571.96 -481.73"/><polyline class="cls-1" points="-375.02 840.44 -255.69 683.89 6.47 597.67 145.12 417.07 403.79 326.19 535.45 149.09 804.6 59.37 932.76 -113.07 1198.42 -203.95 1307.77 -360.66 1586.41 -467.27"/><polyline class="cls-1" points="-360.57 854.89 -241.23 698.35 20.92 612.13 159.58 431.53 418.24 340.65 549.9 163.54 819.05 73.83 947.22 -98.61 1212.87 -189.5 1322.23 -346.21 1600.87 -452.82"/><polyline class="cls-1" points="-346.11 869.35 -226.78 712.8 35.38 626.58 174.03 445.98 432.69 355.1 564.36 178 833.51 88.28 961.67 -84.16 1227.33 -175.04 1336.68 -331.75 1615.32 -438.36"/><polyline class="cls-1" points="-331.66 883.8 -212.32 727.26 49.83 641.04 188.49 460.44 447.15 369.56 578.81 192.45 847.96 102.74 976.13 -69.7 1241.78 -160.59 1351.14 -317.3 1629.78 -423.91"/><polyline class="cls-1" points="-317.2 898.26 -197.87 741.71 64.29 655.49 202.94 474.89 461.6 384.01 593.27 206.91 862.41 117.19 990.58 -55.25 1256.23 -146.13 1365.59 -302.84 1644.23 -409.45"/><polyline class="cls-1" points="-302.75 912.71 -183.41 756.17 78.74 669.95 217.4 489.35 476.06 398.47 607.72 221.36 876.87 131.65 1005.04 -40.8 1270.69 -131.68 1380.05 -288.39 1658.68 -395"/><polyline class="cls-1" points="-288.3 927.17 -168.96 770.62 93.2 684.4 231.85 503.8 490.51 412.92 622.18 235.82 891.33 146.1 1019.49 -26.34 1285.14 -117.22 1394.5 -273.93 1673.14 -380.55"/><polyline class="cls-1" points="-273.84 941.62 -154.5 785.08 107.65 698.86 246.31 518.26 504.97 427.38 636.63 250.27 905.78 160.56 1033.95 -11.89 1299.6 -102.77 1408.96 -259.48 1687.59 -366.09"/><polyline class="cls-1" points="-259.39 956.08 -140.05 799.53 122.11 713.31 260.76 532.71 519.42 441.83 651.09 264.73 920.23 175.01 1048.4 2.57 1314.05 -88.31 1423.41 -245.03 1702.05 -351.64"/><polyline class="cls-1" points="-244.93 970.53 -125.6 813.99 136.56 727.76 275.21 547.17 533.88 456.29 665.54 279.18 934.69 189.47 1062.86 17.02 1328.51 -73.86 1437.87 -230.57 1716.5 -337.18"/><polyline class="cls-1" points="-230.48 984.99 -111.14 828.44 151.02 742.22 289.67 561.62 548.33 470.74 680 293.64 949.14 203.92 1077.31 31.48 1342.96 -59.4 1452.32 -216.12 1730.96 -322.73"/><polyline class="cls-1" points="-216.02 999.44 -96.69 842.89 165.47 756.67 304.13 576.08 562.79 485.19 694.45 308.09 963.6 218.38 1091.77 45.93 1357.42 -44.95 1466.78 -201.66 1745.41 -308.27"/><polyline class="cls-1" points="-201.57 1013.89 -82.23 857.35 179.93 771.13 318.58 590.53 577.24 499.65 708.9 322.55 978.05 232.83 1106.22 60.39 1371.87 -30.49 1481.23 -187.21 1759.87 -293.82"/><polyline class="cls-1" points="-187.11 1028.35 -67.78 871.8 194.38 785.58 333.03 604.99 591.7 514.1 723.36 337 992.51 247.28 1120.67 74.84 1386.33 -16.04 1495.68 -172.75 1774.32 -279.36"/><polyline class="cls-1" points="-172.66 1042.81 -53.32 886.26 208.84 800.04 347.49 619.44 606.15 528.56 737.81 351.46 1006.96 261.74 1135.13 89.3 1400.78 -1.58 1510.14 -158.3 1788.78 -264.91"/><polyline class="cls-1" points="-158.2 1057.26 -38.87 900.71 223.29 814.49 361.94 633.89 620.61 543.01 752.27 365.91 1021.42 276.19 1149.58 103.75 1415.24 12.87 1524.59 -143.84 1803.23 -250.45"/><polyline class="cls-1" points="-143.75 1071.71 -24.41 915.17 237.75 828.95 376.4 648.35 635.06 557.47 766.72 380.37 1035.87 290.65 1164.04 118.21 1429.69 27.33 1539.05 -129.39 1817.69 -236"/><polyline class="cls-1" points="-129.29 1086.17 -9.96 929.62 252.2 843.4 390.85 662.8 649.52 571.92 781.18 394.82 1050.33 305.1 1178.49 132.66 1444.15 41.78 1553.5 -114.93 1832.14 -221.54"/><polyline class="cls-1" points="-114.84 1100.62 4.5 944.08 266.65 857.86 405.31 677.26 663.97 586.38 795.63 409.27 1064.78 319.56 1192.95 147.12 1458.6 56.23 1567.96 -100.48 1846.6 -207.09"/><polyline class="cls-1" points="-100.38 1115.08 18.95 958.53 281.11 872.31 419.76 691.71 678.43 600.83 810.09 423.73 1079.24 334.01 1207.4 161.57 1473.06 70.69 1582.41 -86.02 1861.05 -192.63"/><polyline class="cls-1" points="-85.93 1129.53 33.41 972.99 295.56 886.77 434.22 706.17 692.88 615.29 824.54 438.19 1093.69 348.47 1221.86 176.03 1487.51 85.14 1596.87 -71.57 1875.51 -178.18"/><polyline class="cls-1" points="-71.47 1143.99 47.86 987.44 310.02 901.22 448.67 720.62 707.34 629.74 839 452.64 1108.15 362.92 1236.31 190.48 1501.97 99.6 1611.32 -57.11 1889.96 -163.72"/><polyline class="cls-1" points="-57.02 1158.44 62.32 1001.9 324.47 915.68 463.13 735.08 721.79 644.2 853.45 467.09 1122.6 377.38 1250.77 204.94 1516.42 114.05 1625.78 -42.66 1904.41 -149.27"/><polyline class="cls-1" points="-42.56 1172.9 76.77 1016.35 338.93 930.13 477.58 749.53 736.25 658.65 867.91 481.55 1137.06 391.83 1265.22 219.39 1530.88 128.51 1640.23 -28.2 1918.87 -134.81"/><polyline class="cls-1" points="-28.11 1187.35 91.23 1030.81 353.38 944.59 492.04 763.99 750.7 673.11 882.36 496 1151.51 406.29 1279.68 233.84 1545.33 142.96 1654.69 -13.75 1933.33 -120.36"/><polyline class="cls-1" points="-13.65 1201.81 105.68 1045.26 367.84 959.04 506.49 778.44 765.15 687.56 896.82 510.46 1165.96 420.74 1294.13 248.3 1559.79 157.42 1669.14 0.71 1947.78 -105.91"/><polyline class="cls-1" points="0.8 1216.26 120.14 1059.72 382.29 973.5 520.95 792.9 779.61 702.02 911.27 524.91 1180.42 435.2 1308.59 262.75 1574.24 171.87 1683.6 15.16 1962.23 -91.45"/><polyline class="cls-1" points="15.25 1230.72 134.59 1074.17 396.75 987.95 535.4 807.35 794.06 716.47 925.73 539.37 1194.88 449.65 1323.04 277.21 1588.69 186.33 1698.05 29.62 1976.69 -77"/><polyline class="cls-1" points="29.71 1245.17 149.04 1088.63 411.2 1002.4 549.86 821.81 808.52 730.92 940.18 553.82 1209.33 464.11 1337.5 291.66 1603.15 200.78 1712.51 44.07 1991.14 -62.54"/><polyline class="cls-1" points="44.16 1259.63 163.5 1103.08 425.66 1016.86 564.31 836.26 822.97 745.38 954.63 568.28 1223.78 478.56 1351.95 306.12 1617.6 215.24 1726.96 58.52 2005.6 -48.09"/><polyline class="cls-1" points="58.62 1274.08 177.95 1117.54 440.11 1031.31 578.76 850.72 837.43 759.84 969.09 582.73 1238.24 493.02 1366.4 320.57 1632.06 229.69 1741.42 72.98 2020.05 -33.63"/><polyline class="cls-1" points="73.07 1288.54 192.41 1131.99 454.57 1045.77 593.22 865.17 851.88 774.29 983.54 597.19 1252.69 507.47 1380.86 335.03 1646.51 244.15 1755.87 87.44 2034.51 -19.18"/><polyline class="cls-1" points="87.53 1302.99 206.86 1146.44 469.02 1060.22 607.67 879.63 866.34 788.74 998 611.64 1267.15 521.92 1395.32 349.48 1660.97 258.6 1770.33 101.89 2048.96 -4.72"/><polyline class="cls-1" points="101.98 1317.44 221.32 1160.9 483.48 1074.68 622.13 894.08 880.79 803.2 1012.45 626.1 1281.6 536.38 1409.77 363.94 1675.42 273.06 1784.78 116.34 2063.42 9.73"/><polyline class="cls-1" points="116.44 1331.9 235.77 1175.35 497.93 1089.13 636.58 908.53 895.25 817.65 1026.91 640.55 1296.06 550.84 1424.22 378.39 1689.88 287.51 1799.23 130.8 2077.87 24.19"/><polyline class="cls-1" points="130.89 1346.36 250.23 1189.81 512.39 1103.59 651.04 922.99 909.7 832.11 1041.36 655.01 1310.51 565.29 1438.68 392.85 1704.33 301.97 1813.69 145.25 2092.33 38.64"/><polyline class="cls-1" points="145.35 1360.81 264.68 1204.26 526.84 1118.04 665.49 937.45 924.16 846.56 1055.82 669.46 1324.97 579.74 1453.13 407.3 1718.79 316.42 1828.14 159.71 2106.78 53.1"/><polyline class="cls-1" points="159.8 1375.26 279.14 1218.72 541.3 1132.5 679.95 951.9 938.61 861.02 1070.27 683.91 1339.42 594.2 1467.59 421.76 1733.24 330.88 1842.6 174.16 2121.24 67.55"/><polyline class="cls-1" points="174.26 1389.72 293.59 1233.17 555.75 1146.95 694.4 966.35 953.07 875.47 1084.73 698.37 1353.88 608.65 1482.04 436.21 1747.7 345.33 1857.05 188.62 2135.69 82.01"/><polyline class="cls-1" points="188.71 1404.17 308.05 1247.63 570.21 1161.41 708.86 980.81 967.52 889.93 1099.18 712.83 1368.33 623.11 1496.5 450.67 1762.15 359.79 1871.51 203.07 2150.15 96.46"/><polyline class="cls-1" points="203.17 1418.63 322.5 1262.08 584.66 1175.86 723.31 995.26 981.98 904.38 1113.64 727.28 1382.79 637.56 1510.95 465.12 1776.61 374.24 1885.96 217.53 2164.6 110.92"/><polyline class="cls-1" points="217.62 1433.08 336.96 1276.54 599.12 1190.32 737.77 1009.72 996.43 918.84 1128.09 741.74 1397.24 652.02 1525.41 479.58 1791.06 388.69 1900.42 231.98 2179.06 125.37"/><polyline class="cls-1" points="232.08 1447.54 351.41 1290.99 613.57 1204.77 752.22 1024.17 1010.88 933.29 1142.55 756.19 1411.7 666.47 1539.86 494.03 1805.52 403.15 1914.87 246.44 2193.51 139.83"/><polyline class="cls-1" points="246.53 1461.99 365.87 1305.45 628.02 1219.23 766.68 1038.63 1025.34 947.75 1157 770.64 1426.15 680.93 1554.32 508.49 1819.97 417.6 1929.33 260.89 2207.97 154.28"/><polyline class="cls-1" points="260.99 1476.45 380.32 1319.9 642.48 1233.68 781.13 1053.08 1039.8 962.2 1171.46 785.1 1440.61 695.38 1568.77 522.94 1834.43 432.06 1943.78 275.35 2222.42 168.74"/><polyline class="cls-1" points="275.44 1490.9 394.78 1334.36 656.93 1248.14 795.59 1067.54 1054.25 976.66 1185.91 799.55 1455.06 709.84 1583.23 537.39 1848.88 446.51 1958.24 289.8 2236.88 183.19"/><polyline class="cls-1" points="289.89 1505.36 409.23 1348.81 671.39 1262.59 810.04 1081.99 1068.7 991.11 1200.37 814.01 1469.52 724.29 1597.68 551.85 1863.34 460.97 1972.69 304.26 2251.33 197.65"/><polyline class="cls-1" points="304.35 1519.81 423.69 1363.27 685.84 1277.05 824.5 1096.45 1083.16 1005.57 1214.82 828.46 1483.97 738.75 1612.14 566.3 1877.79 475.42 1987.15 318.71 2265.78 212.1"/><polyline class="cls-1" points="318.8 1534.27 438.14 1377.72 700.3 1291.5 838.95 1110.9 1097.61 1020.02 1229.28 842.92 1498.42 753.2 1626.59 580.76 1892.24 489.88 2001.6 333.17 2280.24 226.55"/><polyline class="cls-1" points="333.26 1548.72 452.6 1392.18 714.75 1305.95 853.4 1125.36 1112.07 1034.47 1243.73 857.37 1512.88 767.66 1641.05 595.21 1906.7 504.33 2016.06 347.62 2294.69 241.01"/><polyline class="cls-1" points="347.71 1563.18 467.05 1406.63 729.21 1320.41 867.86 1139.81 1126.52 1048.93 1258.18 871.83 1527.33 782.11 1655.5 609.67 1921.15 518.79 2030.51 362.07 2309.15 255.46"/><polyline class="cls-1" points="362.17 1577.63 481.5 1421.09 743.66 1334.86 882.32 1154.27 1140.98 1063.38 1272.64 886.28 1541.79 796.57 1669.95 624.12 1935.61 533.24 2044.97 376.53 2323.6 269.92"/><polyline class="cls-1" points="376.62 1592.09 495.96 1435.54 758.12 1349.32 896.77 1168.72 1155.43 1077.84 1287.09 900.74 1556.24 811.02 1684.41 638.58 1950.06 547.7 2059.42 390.99 2338.06 284.37"/><polyline class="cls-1" points="391.08 1606.54 510.41 1449.99 772.57 1363.77 911.23 1183.18 1169.89 1092.29 1301.55 915.19 1570.7 825.48 1698.87 653.03 1964.52 562.15 2073.88 405.44 2352.51 298.83"/><polyline class="cls-1" points="405.53 1620.99 524.87 1464.45 787.03 1378.23 925.68 1197.63 1184.34 1106.75 1316 929.65 1585.15 839.93 1713.32 667.49 1978.97 576.61 2088.33 419.89 2366.97 313.28"/><polyline class="cls-1" points="419.99 1635.45 539.32 1478.9 801.48 1392.68 940.13 1212.09 1198.8 1121.2 1330.46 944.1 1599.61 854.38 1727.77 681.94 1993.43 591.06 2102.78 434.35 2381.42 327.74"/><polyline class="cls-1" points="434.44 1649.9 553.78 1493.36 815.94 1407.14 954.59 1226.54 1213.25 1135.66 1344.91 958.56 1614.06 868.84 1742.23 696.4 2007.88 605.52 2117.24 448.8 2395.88 342.19"/><polyline class="cls-1" points="448.9 1664.36 568.23 1507.81 830.39 1421.59 969.04 1240.99 1227.71 1150.11 1359.37 973.01 1628.52 883.29 1756.68 710.85 2022.34 619.97 2131.69 463.26 2410.33 356.65"/><polyline class="cls-1" points="463.35 1678.81 582.69 1522.27 844.85 1436.05 983.5 1255.45 1242.16 1164.57 1373.82 987.47 1642.97 897.75 1771.14 725.31 2036.79 634.43 2146.15 477.71 2424.79 371.1"/><polyline class="cls-1" points="477.81 1693.27 597.14 1536.72 859.3 1450.5 997.95 1269.9 1256.62 1179.02 1388.28 1001.92 1657.43 912.2 1785.59 739.76 2051.25 648.88 2160.6 492.17 2439.24 385.56"/><polyline class="cls-1" points="492.26 1707.72 611.6 1551.18 873.75 1464.96 1012.41 1284.36 1271.07 1193.48 1402.73 1016.38 1671.88 926.66 1800.05 754.22 2065.7 663.34 2175.06 506.62 2453.7 400.01"/><polyline class="cls-1" points="506.72 1722.18 626.05 1565.63 888.21 1479.41 1026.86 1298.81 1285.53 1207.93 1417.19 1030.83 1686.34 941.11 1814.5 768.67 2080.16 677.79 2189.51 521.08 2468.15 414.47"/><polyline class="cls-1" points="521.17 1736.63 640.51 1580.09 902.66 1493.87 1041.32 1313.27 1299.98 1222.39 1431.64 1045.28 1700.79 955.57 1828.96 783.13 2094.61 692.25 2203.97 535.53 2482.61 428.92"/><polyline class="cls-1" points="535.63 1751.09 654.96 1594.54 917.12 1508.32 1055.77 1327.72 1314.43 1236.84 1446.1 1059.74 1715.25 970.02 1843.41 797.58 2109.07 706.7 2218.42 549.99 2497.06 443.38"/><polyline class="cls-1" points="550.08 1765.54 669.42 1609 931.57 1522.78 1070.23 1342.18 1328.89 1251.3 1460.55 1074.19 1729.7 984.48 1857.87 812.04 2123.52 721.15 2232.88 564.44 2511.51 457.83"/><polyline class="cls-1" points="564.53 1780 683.87 1623.45 946.03 1537.23 1084.68 1356.63 1343.34 1265.75 1475.01 1088.65 1744.15 998.93 1872.32 826.49 2137.97 735.61 2247.33 578.9 2525.97 472.29"/><polyline class="cls-1" points="578.99 1794.45 698.33 1637.91 960.48 1551.68 1099.14 1371.09 1357.8 1280.21 1489.46 1103.1 1758.61 1013.39 1886.78 840.95 2152.43 750.06 2261.79 593.35 2540.43 486.74"/><polyline class="cls-1" points="593.45 1808.91 712.78 1652.36 974.94 1566.14 1113.59 1385.54 1372.25 1294.66 1503.92 1117.56 1773.07 1027.84 1901.23 855.4 2166.89 764.52 2276.24 607.81 2554.88 501.19"/><polyline class="cls-1" points="607.9 1823.36 727.24 1666.82 989.39 1580.6 1128.05 1400 1386.71 1309.12 1518.37 1132.01 1787.52 1042.3 1915.69 869.86 2181.34 778.97 2290.7 622.26 2569.33 515.65"/><polyline class="cls-1" points="622.35 1837.82 741.69 1681.27 1003.85 1595.05 1142.5 1414.45 1401.16 1323.57 1532.83 1146.47 1801.97 1056.75 1930.14 884.31 2195.8 793.43 2305.15 636.72 2583.79 530.1"/><polyline class="cls-1" points="636.81 1852.27 756.14 1695.72 1018.3 1609.51 1156.95 1428.91 1415.62 1338.03 1547.28 1160.92 1816.43 1071.21 1944.6 898.76 2210.25 807.88 2319.61 651.17 2598.24 544.56"/><polyline class="cls-1" points="651.26 1866.73 770.6 1710.18 1032.76 1623.96 1171.41 1443.36 1430.07 1352.48 1561.73 1175.38 1830.88 1085.66 1959.05 913.22 2224.7 822.34 2334.06 665.63 2612.7 559.01"/><polyline class="cls-1" points="665.72 1881.18 785.05 1724.63 1047.21 1638.41 1185.87 1457.82 1444.53 1366.93 1576.19 1189.83 1845.34 1100.12 1973.51 927.67 2239.16 836.79 2348.51 680.08 2627.15 573.47"/><polyline class="cls-1" points="680.17 1895.64 799.51 1739.09 1061.67 1652.87 1200.32 1472.27 1458.98 1381.39 1590.64 1204.29 1859.79 1114.57 1987.96 942.13 2253.61 851.25 2362.97 694.53 2641.61 587.92"/><polyline class="cls-1" points="694.63 1910.09 813.96 1753.55 1076.12 1667.32 1214.77 1486.73 1473.44 1395.84 1605.1 1218.74 1874.25 1129.03 2002.41 956.58 2268.07 865.7 2377.43 708.99 2656.06 602.38"/><polyline class="cls-1" points="709.08 1924.55 828.42 1768 1090.58 1681.78 1229.23 1501.18 1487.89 1410.3 1619.55 1233.2 1888.7 1143.48 2016.87 971.04 2282.52 880.16 2391.88 723.44 2670.52 616.83"/><polyline class="cls-1" points="723.54 1939 842.87 1782.45 1105.03 1696.23 1243.68 1515.63 1502.35 1424.75 1634.01 1247.65 1903.16 1157.93 2031.32 985.49 2296.98 894.61 2406.33 737.9 2684.97 631.29"/></svg>