<?xml version="1.0" encoding="utf-8"?>
<!-- Generator: Adobe Illustrator 24.0.2, SVG Export Plug-In . SVG Version: 6.00 Build 0)  -->
<svg version="1.1" id="Layer_1" xmlns="http://www.w3.org/2000/svg" xmlns:xlink="http://www.w3.org/1999/xlink" x="0px" y="0px"
	 viewBox="0 0 100 100" style="enable-background:new 0 0 100 100;" xml:space="preserve">
<style type="text/css">
	.st0{fill:#DFE4EA;}
	.st1{fill:#2F3640;}
</style>
<rect x="4" y="5" class="st0" width="92" height="92"/>
<g>
	<path class="st1" d="M27,52.3v-4.6h0.6l1.5,2.3c0.3,0.5,0.6,1,0.8,1.5l0,0c-0.1-0.6-0.1-1.2-0.1-1.9v-1.9h0.6v4.6h-0.6L28.4,50
		c-0.3-0.5-0.6-1-0.9-1.5l0,0c0,0.6,0,1.1,0,1.9v1.9H27z"/>
	<path class="st1" d="M34.4,50.6c0,1.2-0.8,1.7-1.6,1.7c-0.9,0-1.6-0.6-1.6-1.7c0-1.1,0.7-1.7,1.6-1.7C33.8,49,34.4,49.6,34.4,50.6z
		 M31.8,50.7c0,0.7,0.4,1.3,1,1.3c0.6,0,1-0.5,1-1.3c0-0.6-0.3-1.3-1-1.3S31.8,50.1,31.8,50.7z"/>
	<path class="st1" d="M35.9,48.1V49h0.9v0.5h-0.9v1.8c0,0.4,0.1,0.6,0.4,0.6c0.2,0,0.3,0,0.3,0l0,0.4c-0.1,0-0.3,0.1-0.5,0.1
		c-0.3,0-0.5-0.1-0.6-0.3c-0.2-0.2-0.2-0.5-0.2-0.9v-1.8h-0.5V49h0.5v-0.8L35.9,48.1z"/>
	<path class="st1" d="M37.4,47.5H38v2h0c0.1-0.2,0.2-0.3,0.4-0.4C38.6,49,38.8,49,39,49c0.4,0,1.1,0.3,1.1,1.4v1.9h-0.6v-1.9
		c0-0.5-0.2-1-0.8-1c-0.4,0-0.7,0.3-0.8,0.6c0,0.1,0,0.2,0,0.3v2h-0.6V47.5z"/>
	<path class="st1" d="M41.8,48.1c0,0.2-0.1,0.4-0.4,0.4c-0.2,0-0.4-0.2-0.4-0.4c0-0.2,0.2-0.4,0.4-0.4
		C41.7,47.7,41.8,47.9,41.8,48.1z M41.1,52.3V49h0.6v3.3H41.1z"/>
	<path class="st1" d="M42.7,49.9c0-0.3,0-0.6,0-0.9h0.5l0,0.5h0c0.2-0.3,0.5-0.6,1.1-0.6c0.5,0,1.2,0.3,1.2,1.4v2h-0.6v-1.9
		c0-0.5-0.2-1-0.8-1c-0.4,0-0.7,0.3-0.8,0.6c0,0.1,0,0.2,0,0.3v2h-0.6V49.9z"/>
	<path class="st1" d="M49.3,49c0,0.2,0,0.5,0,0.9v1.9c0,0.8-0.1,1.2-0.5,1.5c-0.3,0.3-0.8,0.4-1.2,0.4c-0.4,0-0.8-0.1-1.1-0.3
		l0.1-0.5c0.2,0.1,0.6,0.3,1,0.3c0.6,0,1.1-0.3,1.1-1.1v-0.4h0c-0.2,0.3-0.5,0.5-1,0.5c-0.8,0-1.4-0.7-1.4-1.6
		c0-1.1,0.7-1.7,1.5-1.7c0.6,0,0.9,0.3,1,0.6h0l0-0.5H49.3z M48.7,50.3c0-0.1,0-0.2,0-0.3c-0.1-0.3-0.4-0.6-0.8-0.6
		c-0.6,0-1,0.5-1,1.2c0,0.6,0.3,1.2,1,1.2c0.4,0,0.7-0.2,0.8-0.6c0-0.1,0-0.2,0-0.3V50.3z"/>
	<path class="st1" d="M51.6,51.7c0.2,0.1,0.5,0.2,0.8,0.2c0.4,0,0.6-0.2,0.6-0.5c0-0.3-0.2-0.4-0.6-0.6c-0.6-0.2-0.9-0.5-0.9-0.9
		c0-0.5,0.4-1,1.1-1c0.3,0,0.6,0.1,0.8,0.2l-0.1,0.4c-0.1-0.1-0.4-0.2-0.7-0.2c-0.4,0-0.5,0.2-0.5,0.4c0,0.3,0.2,0.4,0.6,0.6
		c0.6,0.2,0.9,0.5,0.9,1c0,0.6-0.4,1-1.2,1c-0.4,0-0.7-0.1-0.9-0.2L51.6,51.7z"/>
	<path class="st1" d="M54.7,50.8c0,0.8,0.5,1.1,1.1,1.1c0.4,0,0.7-0.1,0.9-0.2l0.1,0.4c-0.2,0.1-0.6,0.2-1.1,0.2
		c-1,0-1.6-0.7-1.6-1.6c0-1,0.6-1.8,1.5-1.8c1.1,0,1.4,0.9,1.4,1.5c0,0.1,0,0.2,0,0.3H54.7z M56.4,50.4c0-0.4-0.2-1-0.8-1
		c-0.6,0-0.9,0.6-0.9,1H56.4z"/>
	<path class="st1" d="M57.8,47.5h0.6v4.8h-0.6V47.5z"/>
	<path class="st1" d="M59.7,50.8c0,0.8,0.5,1.1,1.1,1.1c0.4,0,0.7-0.1,0.9-0.2l0.1,0.4c-0.2,0.1-0.6,0.2-1.1,0.2
		c-1,0-1.6-0.7-1.6-1.6c0-1,0.6-1.8,1.5-1.8c1.1,0,1.4,0.9,1.4,1.5c0,0.1,0,0.2,0,0.3H59.7z M61.4,50.4c0-0.4-0.2-1-0.8-1
		c-0.6,0-0.9,0.6-0.9,1H61.4z"/>
	<path class="st1" d="M65.1,52.2c-0.2,0.1-0.5,0.2-0.9,0.2c-1,0-1.6-0.7-1.6-1.7c0-1,0.7-1.7,1.8-1.7c0.4,0,0.7,0.1,0.8,0.2L65,49.6
		c-0.1-0.1-0.4-0.2-0.7-0.2c-0.8,0-1.2,0.6-1.2,1.2c0,0.8,0.5,1.2,1.1,1.2c0.3,0,0.6-0.1,0.7-0.2L65.1,52.2z"/>
	<path class="st1" d="M66.6,48.1V49h0.9v0.5h-0.9v1.8c0,0.4,0.1,0.6,0.4,0.6c0.2,0,0.3,0,0.3,0l0,0.4c-0.1,0-0.3,0.1-0.5,0.1
		c-0.3,0-0.5-0.1-0.6-0.3C66.1,52,66,51.7,66,51.3v-1.8h-0.5V49H66v-0.8L66.6,48.1z"/>
	<path class="st1" d="M68.4,50.8c0,0.8,0.5,1.1,1.1,1.1c0.4,0,0.7-0.1,0.9-0.2l0.1,0.4c-0.2,0.1-0.6,0.2-1.1,0.2
		c-1,0-1.6-0.7-1.6-1.6c0-1,0.6-1.8,1.5-1.8c1.1,0,1.4,0.9,1.4,1.5c0,0.1,0,0.2,0,0.3H68.4z M70.1,50.4c0-0.4-0.2-1-0.8-1
		c-0.6,0-0.9,0.6-0.9,1H70.1z"/>
	<path class="st1" d="M74.3,47.5v4c0,0.3,0,0.6,0,0.8h-0.5l0-0.6h0c-0.2,0.4-0.6,0.6-1.1,0.6c-0.8,0-1.4-0.7-1.4-1.7
		c0-1.1,0.7-1.8,1.5-1.8c0.5,0,0.8,0.2,1,0.5h0v-2H74.3z M73.7,50.4c0-0.1,0-0.2,0-0.3c-0.1-0.4-0.4-0.7-0.9-0.7c-0.6,0-1,0.5-1,1.3
		c0,0.7,0.3,1.2,1,1.2c0.4,0,0.8-0.3,0.9-0.7c0-0.1,0-0.2,0-0.3V50.4z"/>
</g>
</svg>
